<?xml version="1.0" encoding="UTF-8" standalone="no"?>
<svg
   xmlns:dc="http://purl.org/dc/elements/1.1/"
   xmlns:cc="http://creativecommons.org/ns#"
   xmlns:rdf="http://www.w3.org/1999/02/22-rdf-syntax-ns#"
   xmlns:svg="http://www.w3.org/2000/svg"
   xmlns="http://www.w3.org/2000/svg"
   xmlns:xlink="http://www.w3.org/1999/xlink"
   xmlns:sodipodi="http://sodipodi.sourceforge.net/DTD/sodipodi-0.dtd"
   xmlns:inkscape="http://www.inkscape.org/namespaces/inkscape"
   version="1.2"
   width="192.7347mm"
   height="91.348839mm"
   viewBox="0 0 68.54793 32.489091"
   id="svg648"
   sodipodi:docname="example.svg"
   inkscape:version="0.92.3 (2405546, 2018-03-11)">
  <metadata
     id="metadata654">
    <rdf:RDF>
      <cc:Work
         rdf:about="">
        <dc:format>image/svg+xml</dc:format>
        <dc:type
           rdf:resource="http://purl.org/dc/dcmitype/StillImage" />
      </cc:Work>
    </rdf:RDF>
  </metadata>
  <defs
     id="defs652" />
  <sodipodi:namedview
     pagecolor="#ffffff"
     bordercolor="#666666"
     borderopacity="1"
     objecttolerance="10"
     gridtolerance="10"
     guidetolerance="10"
     inkscape:pageopacity="0"
     inkscape:pageshadow="2"
     inkscape:window-width="1914"
     inkscape:window-height="1012"
     id="namedview650"
     showgrid="false"
     inkscape:zoom="1.1893044"
     inkscape:cx="378.89824"
     inkscape:cy="15.317856"
     inkscape:window-x="0"
     inkscape:window-y="27"
     inkscape:window-maximized="0"
     inkscape:current-layer="svg648" />
  <!-- Page: 1/1 -->
  <g
     style="font-size:2.20029998px;font-family:IPAexGothic;text-anchor:start;fill:currentColor"
     id="text4" />
  <g
     aria-label="例"
     style="font-weight:bold;font-size:3.49230003px;font-family:IPAexGothic;text-anchor:start;fill:currentColor"
     id="text8">
    <path
       d="m 34.578992,0.87307506 h 0.480873 l 0.139829,0.1040187 Q 35.126369,1.7342135 34.902984,2.2219077 34.660843,2.7641692 34.156096,3.1563708 L 33.983868,2.9687961 Q 34.481794,2.6175198 34.739283,2.0258069 34.536361,1.8109486 34.316387,1.6523627 34.193611,1.8876837 34.065719,2.0565009 L 33.907133,1.8689262 q 0.37856,-0.501336 0.509862,-1.41874685 H 34.053783 V 0.23020537 h 1.255045 v 0.21997398 h -0.659922 l -0.0034,0.0204627 q -0.02899,0.23873144 -0.0665,0.40243301 z M 34.52613,1.0862281 q -0.06139,0.2216792 -0.129597,0.387086 0.252373,0.1602911 0.426306,0.3291084 0.01194,-0.037515 0.01364,-0.046041 0.0972,-0.3001195 0.122776,-0.6701533 z M 33.777536,0.81680264 V 3.142729 H 33.54392 V 1.3727059 Q 33.424555,1.6182582 33.277905,1.8262956 L 33.150014,1.6097321 Q 33.549036,0.97197809 33.770715,4.8428774e-8 L 34.007742,0.05968291 Q 33.893491,0.48769429 33.777536,0.81680264 Z M 35.402615,0.4331271 h 0.233616 V 2.375378 H 35.402615 Z M 35.97216,0.12277622 h 0.233616 V 2.8391991 q 0,0.2728359 -0.300119,0.2728359 -0.204627,0 -0.412665,-0.017052 l -0.05457,-0.2557836 q 0.2285,0.03581 0.426306,0.03581 0.107429,0 0.107429,-0.105724 z"
       style=""
       id="path1462" />
  </g>
  <g
     aria-label="Example"
     style="font-weight:bold;font-size:2.46950006px;font-family:IPAexGothic;text-anchor:start;fill:currentColor"
     id="text12">
    <path
       d="M 31.232893,6.3747657 H 30.099431 V 4.6106648 h 1.103317 v 0.1881065 h -0.888683 v 0.5775832 h 0.787395 v 0.1772542 h -0.787395 v 0.6306389 h 0.918828 z"
       style=""
       id="path1465" />
    <path
       d="M 32.511052,6.3747657 H 32.267478 L 31.931057,5.882795 31.600665,6.3747657 h -0.244779 l 0.459413,-0.6221983 -0.44012,-0.6077285 h 0.247191 l 0.320745,0.4762952 0.321952,-0.4762952 h 0.233927 l -0.441327,0.6053169 z"
       style=""
       id="path1467" />
    <path
       d="m 33.759066,6.3747657 h -0.186901 q -0.04341,-0.092847 -0.05426,-0.1905181 h -0.0084 q -0.139874,0.2242808 -0.41721,0.2242808 -0.190518,0 -0.311099,-0.1205811 -0.106112,-0.1061113 -0.106112,-0.2592492 0,-0.3810362 0.657167,-0.4003291 l 0.165196,-0.00482 v -0.063908 q 0,-0.1290217 -0.07355,-0.2025761 -0.07717,-0.077172 -0.197753,-0.077172 -0.2074,0 -0.311099,0.2013704 l -0.183284,-0.084407 q 0.171225,-0.2821597 0.499206,-0.2821597 0.226692,0 0.348479,0.1266102 0.113346,0.1133462 0.113346,0.3207456 v 0.4521789 q 0,0.2303099 0.06632,0.3605374 z m -0.256838,-0.6029053 -0.13505,0.00241 q -0.477501,0.010852 -0.477501,0.2568377 0,0.086818 0.05667,0.1434914 0.06994,0.068731 0.183283,0.068731 0.157961,0 0.273719,-0.1157578 0.09888,-0.1024939 0.09888,-0.2471911 z"
       style=""
       id="path1469" />
    <path
       d="m 35.836678,6.3747657 h -0.212223 v -0.770513 q 0,-0.3123049 -0.241162,-0.3123049 -0.114552,0 -0.209811,0.1061113 -0.06753,0.075966 -0.09405,0.1893123 V 6.3747657 H 34.867206 V 5.6018411 q 0,-0.3098933 -0.227898,-0.3098933 -0.120581,0 -0.212223,0.1061113 -0.09888,0.1109346 -0.09888,0.2134285 V 6.3747657 H 34.115986 V 5.1448389 h 0.197753 v 0.2122227 q 0.121787,-0.2375447 0.367772,-0.2375447 0.268896,0 0.358126,0.2580435 0.133845,-0.2580435 0.384653,-0.2580435 0.202577,0 0.315923,0.1434914 0.09647,0.1181695 0.09647,0.3364212 z"
       style=""
       id="path1471" />
    <path
       d="m 36.464905,5.3618848 q 0.173637,-0.2520144 0.436503,-0.2520144 0.217046,0 0.372596,0.1555496 0.180871,0.1808716 0.180871,0.4992055 0,0.3098934 -0.17846,0.490765 -0.155549,0.1555495 -0.377418,0.1555495 -0.243574,0 -0.422034,-0.203782 V 6.8679422 H 36.267152 V 5.1448389 h 0.197753 z m 0.01206,0.2845713 v 0.254426 q 0,0.1519322 0.157961,0.2664842 0.106112,0.075966 0.227898,0.075966 0.139874,0 0.238751,-0.098876 0.131433,-0.1302276 0.131433,-0.3750071 0,-0.2194575 -0.108523,-0.3581258 -0.108523,-0.1314333 -0.264072,-0.1314333 -0.171225,0 -0.294218,0.1603728 -0.08923,0.1157578 -0.08923,0.2061936 z"
       style=""
       id="path1473" />
    <path
       d="M 38.020401,6.3747657 H 37.808178 V 4.5491685 h 0.212223 z"
       style=""
       id="path1475" />
    <path
       d="m 38.583514,5.7839185 q 0.01085,0.2134285 0.133845,0.3364212 0.125404,0.1254043 0.303864,0.1254043 0.235134,0 0.372596,-0.2194576 l 0.138668,0.091642 q -0.174842,0.293012 -0.536586,0.293012 -0.273719,0 -0.449767,-0.1748425 -0.177254,-0.17846 -0.177254,-0.4702661 0,-0.3098934 0.185695,-0.4955882 0.165196,-0.165196 0.412387,-0.165196 0.232721,0 0.389477,0.1531379 0.176048,0.17846 0.176048,0.4762952 v 0.049438 z M 39.314235,5.628369 Q 39.296148,5.4607613 39.196066,5.3642964 39.09719,5.26542 38.962139,5.26542 q -0.156756,0 -0.26769,0.1338449 -0.07597,0.090436 -0.09888,0.2291041 z"
       style=""
       id="path1477" />
  </g>
  <g
     aria-label="百合ヶ池"
     style="font-size:2.20029998px;font-family:IPAexGothic;text-anchor:start;fill:currentColor"
     id="text16">
    <path
       d="m 60.818413,8.7192289 h 0.737015 V 10.052516 H 61.389976 V 9.9096256 H 60.301644 V 10.052516 H 60.136191 V 8.7192289 h 0.51677 q 0.0376,-0.1396675 0.06231,-0.3341276 H 59.911649 V 8.240062 h 1.868321 v 0.1450393 h -0.882054 q -0.03438,0.179419 -0.07091,0.302971 z m 0.571563,0.1407418 h -1.088332 v 0.3695817 h 1.088332 z m -1.088332,0.5060261 v 0.4050357 h 1.088332 V 9.3659968 Z"
       style=""
       id="path1480" />
    <path
       d="m 62.576075,8.8030294 h 0.970152 v 0.1407418 h -0.99916 V 8.8245167 Q 62.384838,8.9437712 62.150626,9.0555052 L 62.047487,8.9265814 q 0.588752,-0.2342116 0.892798,-0.797179 h 0.185865 q 0.309417,0.4609027 0.926103,0.7370145 L 63.951262,9.0093075 Q 63.36251,8.7246007 63.038052,8.272293 62.857558,8.5903051 62.576075,8.8030294 Z m 1.128083,0.3781765 V 10.053591 H 63.540855 V 9.9321872 H 62.553513 V 10.053591 H 62.388061 V 9.1812059 Z m -1.150645,0.1364444 v 0.4780926 h 0.987342 V 9.3176503 Z"
       style=""
       id="path1482" />
    <path
       d="m 65.949582,9.0297204 h -0.396441 q -0.02256,0.6951143 -0.569414,0.9572595 L 64.847283,9.8612791 q 0.289004,-0.1192545 0.417928,-0.3405737 0.10099,-0.1729728 0.113883,-0.490985 h -0.413631 q -0.128924,0.247104 -0.296525,0.402887 L 64.541089,9.3219478 Q 64.84406,9.0383154 64.967612,8.5355124 l 0.161155,0.036528 q -0.0376,0.1611547 -0.0924,0.3018966 h 0.913211 z"
       style=""
       id="path1484" />
    <path
       d="M 67.341959,8.9083172 V 9.69905 q 0,0.1009903 0.06339,0.1214033 0.06446,0.01719 0.314789,0.01719 0.344871,0 0.431895,-0.02471 0.06231,-0.016115 0.07843,-0.090247 0.01397,-0.060164 0.02471,-0.2223936 l 0.157932,0.052644 q -0.02256,0.258922 -0.06124,0.3330532 -0.03545,0.067685 -0.153634,0.087024 -0.11066,0.022562 -0.453382,0.022562 -0.386772,0 -0.477019,-0.044049 -0.08165,-0.038677 -0.08165,-0.1600804 V 8.9545149 l -0.220245,0.064462 -0.03331,-0.1450393 0.253551,-0.073057 V 8.240062 h 0.155783 v 0.5146209 l 0.262145,-0.075206 V 8.0950227 h 0.155783 v 0.5404057 l 0.409333,-0.1181802 0.09025,0.063388 v 0.673627 q 0,0.1085109 -0.0462,0.1450393 -0.03438,0.029008 -0.12785,0.029008 -0.0795,0 -0.208426,-0.011818 l -0.02686,-0.1536342 q 0.131073,0.02471 0.189089,0.02471 0.06876,0 0.06876,-0.079503 V 8.6816261 L 67.759887,8.7858395 V 9.5583081 H 67.604104 V 8.8320372 Z M 66.869238,8.5741896 Q 66.731719,8.4098117 66.556598,8.2776648 L 66.659737,8.160559 q 0.15256,0.1042134 0.316937,0.2814837 z m -0.08165,0.5038773 Q 66.631803,8.8943504 66.466351,8.7793933 l 0.105288,-0.1214032 q 0.19446,0.1396675 0.321235,0.2857811 z m -0.292227,0.820815 Q 66.699488,9.631365 66.871387,9.2392217 l 0.116031,0.1267751 q -0.172973,0.3899945 -0.363135,0.6714782 z"
       style=""
       id="path1486" />
  </g>
  <g
     aria-label="2/4 二上り"
     style="font-size:2.20029998px;font-family:IPAexGothic;text-anchor:start;fill:currentColor"
     id="text20">
    <path
       d="M 2.2301788,13.377395 H 1.1257314 v -0.182642 q 0.1299982,-0.302971 0.4974311,-0.553299 l 0.061239,-0.04082 q 0.1880139,-0.128924 0.247104,-0.200907 0.067685,-0.08488 0.067685,-0.184791 0,-0.112808 -0.079503,-0.192311 -0.088098,-0.0881 -0.2309885,-0.0881 -0.2868556,0 -0.3760279,0.320161 l -0.1697497,-0.06124 q 0.1224777,-0.419002 0.5565212,-0.419002 0.2374347,0 0.3781766,0.140742 0.123552,0.126775 0.123552,0.306194 0,0.133221 -0.079503,0.241732 -0.073057,0.105288 -0.3362763,0.269665 l -0.046198,0.02793 Q 1.403992,12.968061 1.3083735,13.203347 h 0.9218053 z"
       style=""
       id="path1489" />
    <path
       d="m 3.292726,11.779814 -0.7284196,1.923113 -0.103139,-0.0419 0.7262708,-1.923114 z"
       style=""
       id="path1491" />
    <path
       d="M 4.7689039,13.000292 H 4.5099818 v 0.377103 H 4.3337859 V 13.000292 H 3.5258633 v -0.176195 l 0.776766,-1.03354 h 0.2073525 v 1.046432 h 0.2589221 z m -0.4243743,-1.0142 h -0.00645 q -0.096693,0.155783 -0.191237,0.283632 L 3.719249,12.836989 H 4.3337859 V 12.31807 q 0,-0.116031 0.010744,-0.331978 z"
       style=""
       id="path1493" />
    <path
       d="m 5.7798813,11.909812 h 1.5159293 v 0.169749 H 5.7798813 Z M 5.614429,13.103431 H 7.4601885 V 13.27533 H 5.614429 Z"
       style=""
       id="path1495" />
    <path
       d="m 8.7590963,12.241791 h 0.7617249 v 0.155783 H 8.7590963 v 0.810071 h 0.9389952 v 0.155783 H 7.772829 v -0.155783 h 0.8186663 v -1.544937 h 0.167601 z"
       style=""
       id="path1497" />
    <path
       d="m 10.828324,12.393276 q -0.128924,0.217022 -0.174047,0.304045 -0.05157,0.09992 -0.07198,0.199832 l -0.153634,-0.01504 q -0.07091,-0.215947 -0.07091,-0.545777 0,-0.224543 0.05264,-0.612388 l 0.178344,0.02256 q -0.06124,0.435118 -0.06124,0.615611 0,0.138594 0.0086,0.259997 0.02793,-0.05264 0.09777,-0.174047 0.05909,-0.102065 0.09132,-0.162229 z m -0.134296,0.961557 q 0.359913,-0.128924 0.495283,-0.363136 0.105287,-0.181567 0.105287,-0.615611 0,-0.308343 -0.03868,-0.671478 h 0.18694 q 0.03223,0.389995 0.03223,0.671478 0,0.501729 -0.138593,0.732717 -0.15256,0.254625 -0.51677,0.388921 z"
       style=""
       id="path1499" />
  </g>
  <path
     style="stroke:currentColor;stroke-width:0.0754;stroke-linecap:round;stroke-linejoin:round"
     d="m 6.344697,19.159082 h 62.165"
     id="line22" />
  <path
     style="stroke:currentColor;stroke-width:0.0754;stroke-linecap:round;stroke-linejoin:round"
     d="m 6.344697,17.659082 h 62.165"
     id="line24" />
  <path
     style="stroke:currentColor;stroke-width:0.0754;stroke-linecap:round;stroke-linejoin:round"
     d="m 6.344697,16.159082 h 62.165"
     id="line26" />
  <path
     style="fill:currentColor"
     d="m 53.555996,16.159082 h 0.1432 v 3 h -0.1432 z"
     id="rect28" />
  <path
     style="fill:currentColor"
     d="m 23.269398,16.159082 h 0.1432 v 3 h -0.1432 z"
     id="rect30" />
  <path
     style="fill:currentColor"
     d="m 39.262196,16.159082 h 0.1432 v 3 h -0.1432 z"
     id="rect32" />
  <path
     style="fill:currentColor"
     d="m 68.404198,16.159082 h 0.1432 v 3 h -0.1432 z"
     id="rect34" />
  <path
     d="m 47.032997,18.535263 h 1.1"
     id="path36"
     inkscape:connector-curvature="0"
     style="fill:none;stroke:currentColor;stroke-width:0.12;stroke-linecap:square;stroke-linejoin:round" />
  <path
     d="m 48.589797,16.909082 c 0,-0.128 0.1,-0.228 0.228,-0.228 0.128,0 0.228,0.1 0.228,0.228 0,0.128 -0.1,0.228 -0.228,0.228 -0.128,0 -0.228,-0.1 -0.228,-0.228 z"
     id="path38"
     inkscape:connector-curvature="0"
     style="fill:currentColor;stroke-width:0.004" />
  <g
     id="g42"
     style="color:#ffffff"
     transform="translate(-2.5845028,-2.7782181)">
    <path
       transform="translate(53.7527,21.9373)"
       style="fill:currentColor"
       d="m 0.11,-0.64899999 h 1.1 v 1.29799998 h -1.1 z"
       id="rect40" />
  </g>
  <a
     style="color:inherit"
     xlink:href="textedit:///home/paul/Projects/tsugaru/lilypond-shamisen/example.ly:40:16:17"
     id="a48"
     transform="translate(-2.5845028,-2.7782181)">
    <g
       aria-label="3"
       transform="translate(53.8627,22.5776)"
       style="font-weight:bold;font-size:1.74629998px;font-family:IPAexGothic;text-anchor:start;fill:currentColor"
       id="text46">
      <path
         d="m 0.64974638,-0.65997861 q 0.30696679,0.0554246 0.30696679,0.31123022 0,0.1534834 -0.10317495,0.25154224 -0.11425986,0.10573301 -0.32316782,0.10573301 -0.31293559,0 -0.45192333,-0.24898418 l 0.12790283,-0.0682148 q 0.0963535,0.1884435 0.32231513,0.1884435 0.13301895,0 0.2063499,-0.0682148 0.0699202,-0.0648041 0.0699202,-0.16371563 0,-0.11681792 -0.10488032,-0.18759082 -0.0955008,-0.0639514 -0.25154224,-0.0639514 h -0.0767417 v -0.12449209 h 0.0801524 q 0.15689413,0 0.23960463,-0.059688 0.0886793,-0.0630987 0.0886793,-0.16968442 0,-0.11596524 -0.0997642,-0.17138984 -0.0639514,-0.038371 -0.1534834,-0.038371 -0.18929619,0 -0.28053354,0.19100156 L 0.11852329,-1.0377183 q 0.12619746,-0.2515422 0.41014174,-0.2515422 0.17991665,0 0.29161846,0.090385 0.1117018,0.088679 0.1117018,0.23448856 0,0.13813505 -0.10829106,0.22596166 -0.0699202,0.0562772 -0.17394785,0.0716256 z"
         style=""
         id="path1510" />
    </g>
  </a>
  <path
     d="m 51.278097,20.335263 h 1.1 m -1.1,-0.3 h 1.1"
     id="path50"
     inkscape:connector-curvature="0"
     style="fill:none;stroke:currentColor;stroke-width:0.12;stroke-linecap:square;stroke-linejoin:round" />
  <a
     style="color:inherit"
     xlink:href="textedit:///home/paul/Projects/tsugaru/lilypond-shamisen/example.ly:42:7:8"
     id="a56"
     transform="translate(-2.5845028,-2.7782181)">
    <g
       aria-label="Ⅲ"
       transform="translate(57.1637,18.1496)"
       style="font-size:1.55569994px;font-family:IPAexGothic;text-anchor:start;fill:currentColor"
       id="text54">
      <path
         d="m 0.31448231,-1.1682942 h 0.13673144 v 1.08929381 H 0.31448231 Z m 0.39500194,0 h 0.13673144 v 1.08929381 H 0.70948425 Z m 0.39576155,0 h 0.1367315 v 1.08929381 H 1.1052458 Z"
         style=""
         id="path1513" />
    </g>
  </a>
  <g
     id="g60"
     style="color:#ffffff"
     transform="translate(-2.5845028,-2.7782181)">
    <path
       transform="translate(57.1637,21.9373)"
       style="fill:currentColor"
       d="m 0.11,-0.63840002 h 1.1 V 0.6383 h -1.1 z"
       id="rect58" />
  </g>
  <a
     style="color:inherit"
     xlink:href="textedit:///home/paul/Projects/tsugaru/lilypond-shamisen/example.ly:42:4:5"
     id="a66"
     transform="translate(-2.5845028,-2.7782181)">
    <g
       aria-label="4"
       transform="translate(57.2737,22.5756)"
       style="font-weight:bold;font-size:1.74629998px;font-family:IPAexGothic;text-anchor:start;fill:currentColor"
       id="text64">
      <path
         d="M 1.0402764,-0.31634633 H 0.83477914 v 0.29929262 H 0.69493871 V -0.31634633 H 0.05371919 V -0.45618676 L 0.67021083,-1.2764703 h 0.16456831 v 0.83051576 H 1.0402764 Z M 0.70346557,-1.1212815 h -0.005116 q -0.0767417,0.12363942 -0.15177803,0.225109 l -0.33936884,0.45021796 h 0.48773612 v -0.41184711 q 0,-0.09209 0.008527,-0.26347985 z"
         style=""
         id="path1517" />
    </g>
  </a>
  <path
     d="m 56.245897,18.409082 c 0,-0.128 0.1,-0.228 0.228,-0.228 0.128,0 0.228,0.1 0.228,0.228 0,0.128 -0.1,0.228 -0.228,0.228 -0.128,0 -0.228,-0.1 -0.228,-0.228 z"
     id="path68"
     inkscape:connector-curvature="0"
     style="fill:currentColor;stroke-width:0.004" />
  <path
     d="m 54.689197,20.020859 h 1.1"
     id="path70"
     inkscape:connector-curvature="0"
     style="fill:none;stroke:currentColor;stroke-width:0.12;stroke-linecap:square;stroke-linejoin:round" />
  <path
     d="m 41.959297,16.909082 c 0,-0.128 0.1,-0.228 0.228,-0.228 0.128,0 0.228,0.1 0.228,0.228 0,0.128 -0.1,0.228 -0.228,0.228 -0.128,0 -0.228,-0.1 -0.228,-0.228 z"
     id="path72"
     inkscape:connector-curvature="0"
     style="fill:currentColor;stroke-width:0.004" />
  <path
     d="m 40.402497,18.535263 h 1.1"
     id="path74"
     inkscape:connector-curvature="0"
     style="fill:none;stroke:currentColor;stroke-width:0.12;stroke-linecap:square;stroke-linejoin:round" />
  <g
     id="g78"
     style="color:#ffffff"
     transform="translate(-2.5845028,-2.7782181)">
    <path
       transform="translate(42.877,20.4373)"
       style="fill:currentColor"
       d="m 0.11,-0.64899999 h 1.1 v 1.29799998 h -1.1 z"
       id="rect76" />
  </g>
  <a
     style="color:inherit"
     xlink:href="textedit:///home/paul/Projects/tsugaru/lilypond-shamisen/example.ly:40:4:5"
     id="a84"
     transform="translate(-2.5845028,-2.7782181)">
    <g
       aria-label="0"
       transform="translate(42.987,21.0776)"
       style="font-weight:bold;font-size:1.74629998px;font-family:IPAexGothic;text-anchor:start;fill:currentColor"
       id="text82">
      <path
         d="m 0.55595097,-1.2892605 q 0.2302251,0 0.3538645,0.2131714 0.0980588,0.16883169 0.0980588,0.43657495 0,0.2651852 -0.0980588,0.43742768 -0.12193403,0.21061333 -0.3598333,0.21061333 -0.23704658,0 -0.35898061,-0.21061333 -0.09805884,-0.17224248 -0.09805884,-0.43913305 0,-0.37177088 0.17991665,-0.54145528 0.11425986,-0.1065857 0.2830916,-0.1065857 z m -0.005969,0.1253447 q -0.13642968,0 -0.21487675,0.1381351 -0.0801524,0.13984043 -0.0801524,0.38626655 0,0.24216269 0.0784471,0.38115043 0.0792998,0.13642969 0.21658212,0.13642969 0.16456831,0 0.24386807,-0.19270693 0.0520138,-0.12790283 0.0520138,-0.33340005 0,-0.24045732 -0.0801524,-0.37773969 -0.0810051,-0.1381351 -0.21572944,-0.1381351 z"
         style=""
         id="path1521" />
    </g>
  </a>
  <g
     id="g88"
     style="color:#ffffff"
     transform="translate(-2.5845028,-2.7782181)">
    <path
       transform="translate(47.1221,21.9373)"
       style="fill:currentColor"
       d="m 0.11,-0.63840002 h 1.1 V 0.6383 h -1.1 z"
       id="rect86" />
  </g>
  <a
     style="color:inherit"
     xlink:href="textedit:///home/paul/Projects/tsugaru/lilypond-shamisen/example.ly:40:8:9"
     id="a94"
     transform="translate(-2.5845028,-2.7782181)">
    <g
       aria-label="4"
       transform="translate(47.2321,22.5756)"
       style="font-weight:bold;font-size:1.74629998px;font-family:IPAexGothic;text-anchor:start;fill:currentColor"
       id="text92">
      <path
         d="M 1.0402764,-0.31634633 H 0.83477914 v 0.29929262 H 0.69493871 V -0.31634633 H 0.05371919 V -0.45618676 L 0.67021083,-1.2764703 h 0.16456831 v 0.83051576 H 1.0402764 Z M 0.70346557,-1.1212815 h -0.005116 q -0.0767417,0.12363942 -0.15177803,0.225109 l -0.33936884,0.45021796 h 0.48773612 v -0.41184711 q 0,-0.09209 0.008527,-0.26347985 z"
         style=""
         id="path1525" />
    </g>
  </a>
  <path
     d="m 44.647597,20.320859 h 1.1 m -1.1,-0.3 h 1.1"
     id="path96"
     inkscape:connector-curvature="0"
     style="fill:none;stroke:currentColor;stroke-width:0.12;stroke-linecap:square;stroke-linejoin:round" />
  <g
     id="g100"
     style="color:#ffffff"
     transform="translate(-2.5845028,-2.7782181)">
    <path
       transform="translate(49.5075,20.4373)"
       style="fill:currentColor"
       d="m 0.11,-0.64899999 h 1.1 v 1.29799998 h -1.1 z"
       id="rect98" />
  </g>
  <a
     style="color:inherit"
     xlink:href="textedit:///home/paul/Projects/tsugaru/lilypond-shamisen/example.ly:40:12:13"
     id="a106"
     transform="translate(-2.5845028,-2.7782181)">
    <g
       aria-label="0"
       transform="translate(49.6175,21.0776)"
       style="font-weight:bold;font-size:1.74629998px;font-family:IPAexGothic;text-anchor:start;fill:currentColor"
       id="text104">
      <path
         d="m 0.55595097,-1.2892605 q 0.2302251,0 0.3538645,0.2131714 0.0980588,0.16883169 0.0980588,0.43657495 0,0.2651852 -0.0980588,0.43742768 -0.12193403,0.21061333 -0.3598333,0.21061333 -0.23704658,0 -0.35898061,-0.21061333 -0.09805884,-0.17224248 -0.09805884,-0.43913305 0,-0.37177088 0.17991665,-0.54145528 0.11425986,-0.1065857 0.2830916,-0.1065857 z m -0.005969,0.1253447 q -0.13642968,0 -0.21487675,0.1381351 -0.0801524,0.13984043 -0.0801524,0.38626655 0,0.24216269 0.0784471,0.38115043 0.0792998,0.13642969 0.21658212,0.13642969 0.16456831,0 0.24386807,-0.19270693 0.0520138,-0.12790283 0.0520138,-0.33340005 0,-0.24045732 -0.0801524,-0.37773969 -0.0810051,-0.1381351 -0.21572944,-0.1381351 z"
         style=""
         id="path1529" />
    </g>
  </a>
  <path
     d="m 66.119697,18.835263 h 1.1 m -1.1,-0.3 h 1.1"
     id="path108"
     inkscape:connector-curvature="0"
     style="fill:none;stroke:currentColor;stroke-width:0.12;stroke-linecap:square;stroke-linejoin:round" />
  <a
     style="color:inherit"
     xlink:href="textedit:///home/paul/Projects/tsugaru/lilypond-shamisen/example.ly:43:39:40"
     id="a112"
     transform="translate(-2.5845028,-2.7782181)">
    <path
       transform="translate(67.6542,22.6873)"
       d="m -0.212,-0.334 c -0.077,0.281 -0.197,0.491 -0.341,0.672 m 0.708,-0.69 c 0.173,0.246 0.303,0.466 0.39,0.659"
       id="path110"
       inkscape:connector-curvature="0"
       style="fill:none;stroke:currentColor;stroke-width:0.12;stroke-linecap:square;stroke-linejoin:miter" />
  </a>
  <g
     id="g116"
     style="color:#ffffff"
     transform="translate(-2.5845028,-2.7782181)">
    <path
       transform="translate(66.9942,20.4373)"
       style="fill:currentColor"
       d="m 0.11,-0.64899999 h 1.1 v 1.29799998 h -1.1 z"
       id="rect114" />
  </g>
  <a
     style="color:inherit"
     xlink:href="textedit:///home/paul/Projects/tsugaru/lilypond-shamisen/example.ly:43:37:38"
     id="a122"
     transform="translate(-2.5845028,-2.7782181)">
    <g
       aria-label="0"
       transform="translate(67.1042,21.0776)"
       style="font-weight:bold;font-size:1.74629998px;font-family:IPAexGothic;text-anchor:start;fill:currentColor"
       id="text120">
      <path
         d="m 0.55595097,-1.2892605 q 0.2302251,0 0.3538645,0.2131714 0.0980588,0.16883169 0.0980588,0.43657495 0,0.2651852 -0.0980588,0.43742768 -0.12193403,0.21061333 -0.3598333,0.21061333 -0.23704658,0 -0.35898061,-0.21061333 -0.09805884,-0.17224248 -0.09805884,-0.43913305 0,-0.37177088 0.17991665,-0.54145528 0.11425986,-0.1065857 0.2830916,-0.1065857 z m -0.005969,0.1253447 q -0.13642968,0 -0.21487675,0.1381351 -0.0801524,0.13984043 -0.0801524,0.38626655 0,0.24216269 0.0784471,0.38115043 0.0792998,0.13642969 0.21658212,0.13642969 0.16456831,0 0.24386807,-0.19270693 0.0520138,-0.12790283 0.0520138,-0.33340005 0,-0.24045732 -0.0801524,-0.37773969 -0.0810051,-0.1381351 -0.21572944,-0.1381351 z"
         style=""
         id="path1533" />
    </g>
  </a>
  <path
     d="m 64.519697,18.835263 h 1.1 m -1.1,-0.3 h 1.1"
     id="path124"
     inkscape:connector-curvature="0"
     style="fill:none;stroke:currentColor;stroke-width:0.12;stroke-linecap:square;stroke-linejoin:round" />
  <g
     id="g128"
     style="color:#ffffff"
     transform="translate(-2.5845028,-2.7782181)">
    <path
       transform="translate(68.5942,20.4373)"
       style="fill:currentColor"
       d="m 0.11,-0.64899999 h 1.1 v 1.29799998 h -1.1 z"
       id="rect126" />
  </g>
  <a
     style="color:inherit"
     xlink:href="textedit:///home/paul/Projects/tsugaru/lilypond-shamisen/example.ly:43:47:48"
     id="a134"
     transform="translate(-2.5845028,-2.7782181)">
    <g
       aria-label="0"
       transform="translate(68.7042,21.0776)"
       style="font-weight:bold;font-size:1.74629998px;font-family:IPAexGothic;text-anchor:start;fill:currentColor"
       id="text132">
      <path
         d="m 0.55595097,-1.2892605 q 0.2302251,0 0.3538645,0.2131714 0.0980588,0.16883169 0.0980588,0.43657495 0,0.2651852 -0.0980588,0.43742768 -0.12193403,0.21061333 -0.3598333,0.21061333 -0.23704658,0 -0.35898061,-0.21061333 -0.09805884,-0.17224248 -0.09805884,-0.43913305 0,-0.37177088 0.17991665,-0.54145528 0.11425986,-0.1065857 0.2830916,-0.1065857 z m -0.005969,0.1253447 q -0.13642968,0 -0.21487675,0.1381351 -0.0801524,0.13984043 -0.0801524,0.38626655 0,0.24216269 0.0784471,0.38115043 0.0792998,0.13642969 0.21658212,0.13642969 0.16456831,0 0.24386807,-0.19270693 0.0520138,-0.12790283 0.0520138,-0.33340005 0,-0.24045732 -0.0801524,-0.37773969 -0.0810051,-0.1381351 -0.21572944,-0.1381351 z"
         style=""
         id="path1537" />
    </g>
  </a>
  <g
     id="g138"
     style="color:#ffffff"
     transform="translate(-2.5845028,-2.7782181)">
    <path
       transform="translate(61.4088,20.4373)"
       style="fill:currentColor"
       d="m 0.11,-0.64899999 h 1.1 v 1.29799998 h -1.1 z"
       id="rect136" />
  </g>
  <a
     style="color:inherit"
     xlink:href="textedit:///home/paul/Projects/tsugaru/lilypond-shamisen/example.ly:42:15:16"
     id="a144"
     transform="translate(-2.5845028,-2.7782181)">
    <g
       aria-label="0"
       transform="translate(61.5188,21.0776)"
       style="font-weight:bold;font-size:1.74629998px;font-family:IPAexGothic;text-anchor:start;fill:currentColor"
       id="text142">
      <path
         d="m 0.55595097,-1.2892605 q 0.2302251,0 0.3538645,0.2131714 0.0980588,0.16883169 0.0980588,0.43657495 0,0.2651852 -0.0980588,0.43742768 -0.12193403,0.21061333 -0.3598333,0.21061333 -0.23704658,0 -0.35898061,-0.21061333 -0.09805884,-0.17224248 -0.09805884,-0.43913305 0,-0.37177088 0.17991665,-0.54145528 0.11425986,-0.1065857 0.2830916,-0.1065857 z m -0.005969,0.1253447 q -0.13642968,0 -0.21487675,0.1381351 -0.0801524,0.13984043 -0.0801524,0.38626655 0,0.24216269 0.0784471,0.38115043 0.0792998,0.13642969 0.21658212,0.13642969 0.16456831,0 0.24386807,-0.19270693 0.0520138,-0.12790283 0.0520138,-0.33340005 0,-0.24045732 -0.0801524,-0.37773969 -0.0810051,-0.1381351 -0.21572944,-0.1381351 z"
         style=""
         id="path1541" />
    </g>
  </a>
  <path
     d="m 58.934297,18.835263 h 1.1 m -1.1,-0.3 h 1.1"
     id="path146"
     inkscape:connector-curvature="0"
     style="fill:none;stroke:currentColor;stroke-width:0.12;stroke-linecap:square;stroke-linejoin:round" />
  <a
     style="color:inherit"
     xlink:href="textedit:///home/paul/Projects/tsugaru/lilypond-shamisen/example.ly:43:18:19"
     id="a152"
     transform="translate(-2.5845028,-2.7782181)">
    <g
       aria-label="Ⅲ"
       transform="translate(63.7942,18.1496)"
       style="font-size:1.55569994px;font-family:IPAexGothic;text-anchor:start;fill:currentColor"
       id="text150">
      <path
         d="m 0.31448231,-1.1682942 h 0.13673144 v 1.08929381 H 0.31448231 Z m 0.39500194,0 h 0.13673144 v 1.08929381 H 0.70948425 Z m 0.39576155,0 h 0.1367315 v 1.08929381 H 1.1052458 Z"
         style=""
         id="path1544" />
    </g>
  </a>
  <g
     id="g156"
     style="color:#ffffff"
     transform="translate(-2.5845028,-2.7782181)">
    <path
       transform="translate(63.7942,20.4373)"
       style="fill:currentColor"
       d="m 0.11,-0.63840002 h 1.1 V 0.6383 h -1.1 z"
       id="rect154" />
  </g>
  <a
     style="color:inherit"
     xlink:href="textedit:///home/paul/Projects/tsugaru/lilypond-shamisen/example.ly:43:12:13"
     id="a162"
     transform="translate(-2.5845028,-2.7782181)">
    <g
       aria-label="4"
       transform="translate(63.9042,21.0756)"
       style="font-weight:bold;font-size:1.74629998px;font-family:IPAexGothic;text-anchor:start;fill:currentColor"
       id="text160">
      <path
         d="M 1.0402764,-0.31634633 H 0.83477914 v 0.29929262 H 0.69493871 V -0.31634633 H 0.05371919 V -0.45618676 L 0.67021083,-1.2764703 h 0.16456831 v 0.83051576 H 1.0402764 Z M 0.70346557,-1.1212815 h -0.005116 q -0.0767417,0.12363942 -0.15177803,0.225109 l -0.33936884,0.45021796 h 0.48773612 v -0.41184711 q 0,-0.09209 0.008527,-0.26347985 z"
         style=""
         id="path1548" />
    </g>
  </a>
  <path
     d="m 61.319697,18.820859 h 1.1 m -1.1,-0.3 h 1.1"
     id="path164"
     inkscape:connector-curvature="0"
     style="fill:none;stroke:currentColor;stroke-width:0.12;stroke-linecap:square;stroke-linejoin:round" />
  <a
     style="color:inherit"
     xlink:href="textedit:///home/paul/Projects/tsugaru/lilypond-shamisen/example.ly:43:29:30"
     id="a168"
     transform="translate(-2.5845028,-2.7782181)">
    <path
       transform="translate(66.0542,22.6873)"
       d="m -0.212,-0.334 c -0.077,0.281 -0.197,0.491 -0.341,0.672 m 0.708,-0.69 c 0.173,0.246 0.303,0.466 0.39,0.659"
       id="path166"
       inkscape:connector-curvature="0"
       style="fill:none;stroke:currentColor;stroke-width:0.12;stroke-linecap:square;stroke-linejoin:miter" />
  </a>
  <g
     id="g172"
     style="color:#ffffff"
     transform="translate(-2.5845028,-2.7782181)">
    <path
       transform="translate(65.3942,20.4373)"
       style="fill:currentColor"
       d="m 0.11,-0.64899999 h 1.1 v 1.29799998 h -1.1 z"
       id="rect170" />
  </g>
  <a
     style="color:inherit"
     xlink:href="textedit:///home/paul/Projects/tsugaru/lilypond-shamisen/example.ly:43:26:27"
     id="a178"
     transform="translate(-2.5845028,-2.7782181)">
    <g
       aria-label="3"
       transform="translate(65.5042,21.0776)"
       style="font-weight:bold;font-size:1.74629998px;font-family:IPAexGothic;text-anchor:start;fill:currentColor"
       id="text176">
      <path
         d="m 0.64974638,-0.65997861 q 0.30696679,0.0554246 0.30696679,0.31123022 0,0.1534834 -0.10317495,0.25154224 -0.11425986,0.10573301 -0.32316782,0.10573301 -0.31293559,0 -0.45192333,-0.24898418 l 0.12790283,-0.0682148 q 0.0963535,0.1884435 0.32231513,0.1884435 0.13301895,0 0.2063499,-0.0682148 0.0699202,-0.0648041 0.0699202,-0.16371563 0,-0.11681792 -0.10488032,-0.18759082 -0.0955008,-0.0639514 -0.25154224,-0.0639514 h -0.0767417 v -0.12449209 h 0.0801524 q 0.15689413,0 0.23960463,-0.059688 0.0886793,-0.0630987 0.0886793,-0.16968442 0,-0.11596524 -0.0997642,-0.17138984 -0.0639514,-0.038371 -0.1534834,-0.038371 -0.18929619,0 -0.28053354,0.19100156 L 0.11852329,-1.0377183 q 0.12619746,-0.2515422 0.41014174,-0.2515422 0.17991665,0 0.29161846,0.090385 0.1117018,0.088679 0.1117018,0.23448856 0,0.13813505 -0.10829106,0.22596166 -0.0699202,0.0562772 -0.17394785,0.0716256 z"
         style=""
         id="path1552" />
    </g>
  </a>
  <path
     d="m 62.919697,18.835263 h 1.1 m -1.1,-0.3 h 1.1"
     id="path180"
     inkscape:connector-curvature="0"
     style="fill:none;stroke:currentColor;stroke-width:0.12;stroke-linecap:square;stroke-linejoin:round" />
  <g
     id="g184"
     style="color:#ffffff"
     transform="translate(-2.5845028,-2.7782181)">
    <path
       transform="translate(17.522,20.4373)"
       style="fill:currentColor"
       d="m 0.11,-0.64899999 h 1.1 v 1.29799998 h -1.1 z"
       id="rect182" />
  </g>
  <a
     style="color:inherit"
     xlink:href="textedit:///home/paul/Projects/tsugaru/lilypond-shamisen/example.ly:36:14:15"
     id="a190"
     transform="translate(-2.5845028,-2.7782181)">
    <g
       aria-label="0"
       transform="translate(17.632,21.0776)"
       style="font-weight:bold;font-size:1.74629998px;font-family:IPAexGothic;text-anchor:start;fill:currentColor"
       id="text188">
      <path
         d="m 0.55595097,-1.2892605 q 0.2302251,0 0.3538645,0.2131714 0.0980588,0.16883169 0.0980588,0.43657495 0,0.2651852 -0.0980588,0.43742768 -0.12193403,0.21061333 -0.3598333,0.21061333 -0.23704658,0 -0.35898061,-0.21061333 -0.09805884,-0.17224248 -0.09805884,-0.43913305 0,-0.37177088 0.17991665,-0.54145528 0.11425986,-0.1065857 0.2830916,-0.1065857 z m -0.005969,0.1253447 q -0.13642968,0 -0.21487675,0.1381351 -0.0801524,0.13984043 -0.0801524,0.38626655 0,0.24216269 0.0784471,0.38115043 0.0792998,0.13642969 0.21658212,0.13642969 0.16456831,0 0.24386807,-0.19270693 0.0520138,-0.12790283 0.0520138,-0.33340005 0,-0.24045732 -0.0801524,-0.37773969 -0.0810051,-0.1381351 -0.21572944,-0.1381351 z"
         style=""
         id="path1556" />
    </g>
  </a>
  <path
     d="m 15.047497,18.835263 h 1.1 m -1.1,-0.3 h 1.1"
     id="path192"
     inkscape:connector-curvature="0"
     style="fill:none;stroke:currentColor;stroke-width:0.12;stroke-linecap:square;stroke-linejoin:round" />
  <a
     style="color:inherit"
     xlink:href="textedit:///home/paul/Projects/tsugaru/lilypond-shamisen/example.ly:36:19:20"
     id="a196"
     transform="translate(-2.5845028,-2.7782181)">
    <path
       transform="translate(20.5674,22.6873)"
       d="m -0.394,0.055 0.005,-0.348 h 0.761 l 0.03,0.023 C 0.371,0.116 0.197,0.391 -0.173,0.505 m 0.172,-1.075 v 0.26"
       id="path194"
       inkscape:connector-curvature="0"
       style="fill:none;stroke:currentColor;stroke-width:0.12;stroke-linecap:square;stroke-linejoin:miter" />
  </a>
  <g
     id="g200"
     style="color:#ffffff"
     transform="translate(-2.5845028,-2.7782181)">
    <path
       transform="translate(19.9074,20.4373)"
       style="fill:currentColor"
       d="m 0.11,-0.64899999 h 1.1 v 1.29799998 h -1.1 z"
       id="rect198" />
  </g>
  <a
     style="color:inherit"
     xlink:href="textedit:///home/paul/Projects/tsugaru/lilypond-shamisen/example.ly:36:16:17"
     id="a206"
     transform="translate(-2.5845028,-2.7782181)">
    <g
       aria-label="3"
       transform="translate(20.0174,21.0776)"
       style="font-weight:bold;font-size:1.74629998px;font-family:IPAexGothic;text-anchor:start;fill:currentColor"
       id="text204">
      <path
         d="m 0.64974638,-0.65997861 q 0.30696679,0.0554246 0.30696679,0.31123022 0,0.1534834 -0.10317495,0.25154224 -0.11425986,0.10573301 -0.32316782,0.10573301 -0.31293559,0 -0.45192333,-0.24898418 l 0.12790283,-0.0682148 q 0.0963535,0.1884435 0.32231513,0.1884435 0.13301895,0 0.2063499,-0.0682148 0.0699202,-0.0648041 0.0699202,-0.16371563 0,-0.11681792 -0.10488032,-0.18759082 -0.0955008,-0.0639514 -0.25154224,-0.0639514 h -0.0767417 v -0.12449209 h 0.0801524 q 0.15689413,0 0.23960463,-0.059688 0.0886793,-0.0630987 0.0886793,-0.16968442 0,-0.11596524 -0.0997642,-0.17138984 -0.0639514,-0.038371 -0.1534834,-0.038371 -0.18929619,0 -0.28053354,0.19100156 L 0.11852329,-1.0377183 q 0.12619746,-0.2515422 0.41014174,-0.2515422 0.17991665,0 0.29161846,0.090385 0.1117018,0.088679 0.1117018,0.23448856 0,0.13813505 -0.10829106,0.22596166 -0.0699202,0.0562772 -0.17394785,0.0716256 z"
         style=""
         id="path1560" />
    </g>
  </a>
  <path
     d="m 17.432897,18.835263 h 1.1 m -1.1,-0.3 h 1.1"
     id="path208"
     inkscape:connector-curvature="0"
     style="fill:none;stroke:currentColor;stroke-width:0.12;stroke-linecap:square;stroke-linejoin:round" />
  <g
     id="g212"
     style="color:#ffffff"
     transform="translate(-2.5845028,-2.7782181)">
    <path
       transform="translate(22.2927,18.9373)"
       style="fill:currentColor"
       d="m 0.11,-0.64899999 h 1.1 v 1.29799998 h -1.1 z"
       id="rect210" />
  </g>
  <a
     style="color:inherit"
     xlink:href="textedit:///home/paul/Projects/tsugaru/lilypond-shamisen/example.ly:36:25:26"
     id="a218"
     transform="translate(-2.5845028,-2.7782181)">
    <g
       aria-label="0"
       transform="translate(22.4027,19.5776)"
       style="font-weight:bold;font-size:1.74629998px;font-family:IPAexGothic;text-anchor:start;fill:currentColor"
       id="text216">
      <path
         d="m 0.55595097,-1.2892605 q 0.2302251,0 0.3538645,0.2131714 0.0980588,0.16883169 0.0980588,0.43657495 0,0.2651852 -0.0980588,0.43742768 -0.12193403,0.21061333 -0.3598333,0.21061333 -0.23704658,0 -0.35898061,-0.21061333 -0.09805884,-0.17224248 -0.09805884,-0.43913305 0,-0.37177088 0.17991665,-0.54145528 0.11425986,-0.1065857 0.2830916,-0.1065857 z m -0.005969,0.1253447 q -0.13642968,0 -0.21487675,0.1381351 -0.0801524,0.13984043 -0.0801524,0.38626655 0,0.24216269 0.0784471,0.38115043 0.0792998,0.13642969 0.21658212,0.13642969 0.16456831,0 0.24386807,-0.19270693 0.0520138,-0.12790283 0.0520138,-0.33340005 0,-0.24045732 -0.0801524,-0.37773969 -0.0810051,-0.1381351 -0.21572944,-0.1381351 z"
         style=""
         id="path1564" />
    </g>
  </a>
  <path
     d="m 19.818197,17.035263 h 1.1"
     id="path220"
     inkscape:connector-curvature="0"
     style="fill:none;stroke:currentColor;stroke-width:0.12;stroke-linecap:square;stroke-linejoin:round" />
  <g
     id="g224"
     style="color:#ffffff"
     transform="translate(-2.5845028,-2.7782181)">
    <path
       transform="translate(26.8842,20.4373)"
       style="fill:currentColor"
       d="m 0.11,-0.64899999 h 1.1 v 1.29799998 h -1.1 z"
       id="rect222" />
  </g>
  <a
     style="color:inherit"
     xlink:href="textedit:///home/paul/Projects/tsugaru/lilypond-shamisen/example.ly:38:4:5"
     id="a230"
     transform="translate(-2.5845028,-2.7782181)">
    <g
       aria-label="0"
       transform="translate(26.9942,21.0776)"
       style="font-weight:bold;font-size:1.74629998px;font-family:IPAexGothic;text-anchor:start;fill:currentColor"
       id="text228">
      <path
         d="m 0.55595097,-1.2892605 q 0.2302251,0 0.3538645,0.2131714 0.0980588,0.16883169 0.0980588,0.43657495 0,0.2651852 -0.0980588,0.43742768 -0.12193403,0.21061333 -0.3598333,0.21061333 -0.23704658,0 -0.35898061,-0.21061333 -0.09805884,-0.17224248 -0.09805884,-0.43913305 0,-0.37177088 0.17991665,-0.54145528 0.11425986,-0.1065857 0.2830916,-0.1065857 z m -0.005969,0.1253447 q -0.13642968,0 -0.21487675,0.1381351 -0.0801524,0.13984043 -0.0801524,0.38626655 0,0.24216269 0.0784471,0.38115043 0.0792998,0.13642969 0.21658212,0.13642969 0.16456831,0 0.24386807,-0.19270693 0.0520138,-0.12790283 0.0520138,-0.33340005 0,-0.24045732 -0.0801524,-0.37773969 -0.0810051,-0.1381351 -0.21572944,-0.1381351 z"
         style=""
         id="path1568" />
    </g>
  </a>
  <path
     d="m 25.966497,16.909082 c 0,-0.128 0.1,-0.228 0.228,-0.228 0.128,0 0.228,0.1 0.228,0.228 0,0.128 -0.1,0.228 -0.228,0.228 -0.128,0 -0.228,-0.1 -0.228,-0.228 z"
     id="path232"
     inkscape:connector-curvature="0"
     style="fill:currentColor;stroke-width:0.004" />
  <g
     id="g236"
     style="color:#ffffff"
     transform="translate(-2.5845028,-2.7782181)">
    <path
       transform="translate(10.8915,18.9373)"
       style="fill:currentColor"
       d="m 0.11,-0.64899999 h 1.1 v 1.29799998 h -1.1 z"
       id="rect234" />
  </g>
  <a
     style="color:inherit"
     xlink:href="textedit:///home/paul/Projects/tsugaru/lilypond-shamisen/example.ly:36:4:5"
     id="a242"
     transform="translate(-2.5845028,-2.7782181)">
    <g
       aria-label="0"
       transform="translate(11.0015,19.5776)"
       style="font-weight:bold;font-size:1.74629998px;font-family:IPAexGothic;text-anchor:start;fill:currentColor"
       id="text240">
      <path
         d="m 0.55595097,-1.2892605 q 0.2302251,0 0.3538645,0.2131714 0.0980588,0.16883169 0.0980588,0.43657495 0,0.2651852 -0.0980588,0.43742768 -0.12193403,0.21061333 -0.3598333,0.21061333 -0.23704658,0 -0.35898061,-0.21061333 -0.09805884,-0.17224248 -0.09805884,-0.43913305 0,-0.37177088 0.17991665,-0.54145528 0.11425986,-0.1065857 0.2830916,-0.1065857 z m -0.005969,0.1253447 q -0.13642968,0 -0.21487675,0.1381351 -0.0801524,0.13984043 -0.0801524,0.38626655 0,0.24216269 0.0784471,0.38115043 0.0792998,0.13642969 0.21658212,0.13642969 0.16456831,0 0.24386807,-0.19270693 0.0520138,-0.12790283 0.0520138,-0.33340005 0,-0.24045732 -0.0801524,-0.37773969 -0.0810051,-0.1381351 -0.21572944,-0.1381351 z"
         style=""
         id="path1572" />
    </g>
  </a>
  <path
     d="m 9.9736972,15.409082 c 0,-0.128 0.1,-0.228 0.2279998,-0.228 0.128,0 0.228,0.1 0.228,0.228 0,0.128 -0.1,0.228 -0.228,0.228 -0.128,0 -0.2279998,-0.1 -0.2279998,-0.228 z"
     id="path244"
     inkscape:connector-curvature="0"
     style="fill:currentColor;stroke-width:0.004" />
  <path
     d="m 8.4169972,17.035263 h 1.1"
     id="path246"
     inkscape:connector-curvature="0"
     style="fill:none;stroke:currentColor;stroke-width:0.12;stroke-linecap:square;stroke-linejoin:round" />
  <g
     id="g250"
     style="color:#ffffff"
     transform="translate(-2.5845028,-2.7782181)">
    <path
       transform="translate(15.1366,20.4373)"
       style="fill:currentColor"
       d="m 0.11,-0.64899999 h 1.1 v 1.29799998 h -1.1 z"
       id="rect248" />
  </g>
  <a
     style="color:inherit"
     xlink:href="textedit:///home/paul/Projects/tsugaru/lilypond-shamisen/example.ly:36:9:10"
     id="a256"
     transform="translate(-2.5845028,-2.7782181)">
    <g
       aria-label="3"
       transform="translate(15.2466,21.0776)"
       style="font-weight:bold;font-size:1.74629998px;font-family:IPAexGothic;text-anchor:start;fill:currentColor"
       id="text254">
      <path
         d="m 0.64974638,-0.65997861 q 0.30696679,0.0554246 0.30696679,0.31123022 0,0.1534834 -0.10317495,0.25154224 -0.11425986,0.10573301 -0.32316782,0.10573301 -0.31293559,0 -0.45192333,-0.24898418 l 0.12790283,-0.0682148 q 0.0963535,0.1884435 0.32231513,0.1884435 0.13301895,0 0.2063499,-0.0682148 0.0699202,-0.0648041 0.0699202,-0.16371563 0,-0.11681792 -0.10488032,-0.18759082 -0.0955008,-0.0639514 -0.25154224,-0.0639514 h -0.0767417 v -0.12449209 h 0.0801524 q 0.15689413,0 0.23960463,-0.059688 0.0886793,-0.0630987 0.0886793,-0.16968442 0,-0.11596524 -0.0997642,-0.17138984 -0.0639514,-0.038371 -0.1534834,-0.038371 -0.18929619,0 -0.28053354,0.19100156 L 0.11852329,-1.0377183 q 0.12619746,-0.2515422 0.41014174,-0.2515422 0.17991665,0 0.29161846,0.090385 0.1117018,0.088679 0.1117018,0.23448856 0,0.13813505 -0.10829106,0.22596166 -0.0699202,0.0562772 -0.17394785,0.0716256 z"
         style=""
         id="path1576" />
    </g>
  </a>
  <path
     d="m 12.662097,18.835263 h 1.1 m -1.1,-0.3 h 1.1"
     id="path258"
     inkscape:connector-curvature="0"
     style="fill:none;stroke:currentColor;stroke-width:0.12;stroke-linecap:square;stroke-linejoin:round" />
  <g
     id="g262"
     style="color:#ffffff"
     transform="translate(-2.5845028,-2.7782181)">
    <path
       transform="translate(31.1294,21.9373)"
       style="fill:currentColor"
       d="m 0.11,-0.63840002 h 1.1 V 0.6383 h -1.1 z"
       id="rect260" />
  </g>
  <a
     style="color:inherit"
     xlink:href="textedit:///home/paul/Projects/tsugaru/lilypond-shamisen/example.ly:38:8:9"
     id="a268"
     transform="translate(-2.5845028,-2.7782181)">
    <g
       aria-label="4"
       transform="translate(31.2394,22.5756)"
       style="font-weight:bold;font-size:1.74629998px;font-family:IPAexGothic;text-anchor:start;fill:currentColor"
       id="text266">
      <path
         d="M 1.0402764,-0.31634633 H 0.83477914 v 0.29929262 H 0.69493871 V -0.31634633 H 0.05371919 V -0.45618676 L 0.67021083,-1.2764703 h 0.16456831 v 0.83051576 H 1.0402764 Z M 0.70346557,-1.1212815 h -0.005116 q -0.0767417,0.12363942 -0.15177803,0.225109 l -0.33936884,0.45021796 h 0.48773612 v -0.41184711 q 0,-0.09209 0.008527,-0.26347985 z"
         style=""
         id="path1580" />
    </g>
  </a>
  <path
     d="m 28.654897,20.320859 h 1.1 m -1.1,-0.3 h 1.1"
     id="path270"
     inkscape:connector-curvature="0"
     style="fill:none;stroke:currentColor;stroke-width:0.12;stroke-linecap:square;stroke-linejoin:round" />
  <g
     id="g274"
     style="color:#ffffff"
     transform="translate(-2.5845028,-2.7782181)">
    <path
       transform="translate(33.5148,20.4373)"
       style="fill:currentColor"
       d="m 0.11,-0.64899999 h 1.1 v 1.29799998 h -1.1 z"
       id="rect272" />
  </g>
  <a
     style="color:inherit"
     xlink:href="textedit:///home/paul/Projects/tsugaru/lilypond-shamisen/example.ly:38:19:20"
     id="a280"
     transform="translate(-2.5845028,-2.7782181)">
    <g
       aria-label="0"
       transform="translate(33.6248,21.0776)"
       style="font-weight:bold;font-size:1.74629998px;font-family:IPAexGothic;text-anchor:start;fill:currentColor"
       id="text278">
      <path
         d="m 0.55595097,-1.2892605 q 0.2302251,0 0.3538645,0.2131714 0.0980588,0.16883169 0.0980588,0.43657495 0,0.2651852 -0.0980588,0.43742768 -0.12193403,0.21061333 -0.3598333,0.21061333 -0.23704658,0 -0.35898061,-0.21061333 -0.09805884,-0.17224248 -0.09805884,-0.43913305 0,-0.37177088 0.17991665,-0.54145528 0.11425986,-0.1065857 0.2830916,-0.1065857 z m -0.005969,0.1253447 q -0.13642968,0 -0.21487675,0.1381351 -0.0801524,0.13984043 -0.0801524,0.38626655 0,0.24216269 0.0784471,0.38115043 0.0792998,0.13642969 0.21658212,0.13642969 0.16456831,0 0.24386807,-0.19270693 0.0520138,-0.12790283 0.0520138,-0.33340005 0,-0.24045732 -0.0801524,-0.37773969 -0.0810051,-0.1381351 -0.21572944,-0.1381351 z"
         style=""
         id="path1584" />
    </g>
  </a>
  <path
     d="m 31.040197,18.835263 h 1.1 m -1.1,-0.3 h 1.1"
     id="path282"
     inkscape:connector-curvature="0"
     style="fill:none;stroke:currentColor;stroke-width:0.12;stroke-linecap:square;stroke-linejoin:round" />
  <a
     style="color:inherit"
     xlink:href="textedit:///home/paul/Projects/tsugaru/lilypond-shamisen/example.ly:38:24:25"
     id="a286"
     transform="translate(-2.5845028,-2.7782181)">
    <path
       transform="translate(36.5601,22.6873)"
       d="m -0.394,0.055 0.005,-0.348 h 0.761 l 0.03,0.023 C 0.371,0.116 0.197,0.391 -0.173,0.505 m 0.172,-1.075 v 0.26"
       id="path284"
       inkscape:connector-curvature="0"
       style="fill:none;stroke:currentColor;stroke-width:0.12;stroke-linecap:square;stroke-linejoin:miter" />
  </a>
  <g
     id="g290"
     style="color:#ffffff"
     transform="translate(-2.5845028,-2.7782181)">
    <path
       transform="translate(35.9001,20.4373)"
       style="fill:currentColor"
       d="m 0.11,-0.64899999 h 1.1 v 1.29799998 h -1.1 z"
       id="rect288" />
  </g>
  <a
     style="color:inherit"
     xlink:href="textedit:///home/paul/Projects/tsugaru/lilypond-shamisen/example.ly:38:21:22"
     id="a296"
     transform="translate(-2.5845028,-2.7782181)">
    <g
       aria-label="3"
       transform="translate(36.0101,21.0776)"
       style="font-weight:bold;font-size:1.74629998px;font-family:IPAexGothic;text-anchor:start;fill:currentColor"
       id="text294">
      <path
         d="m 0.64974638,-0.65997861 q 0.30696679,0.0554246 0.30696679,0.31123022 0,0.1534834 -0.10317495,0.25154224 -0.11425986,0.10573301 -0.32316782,0.10573301 -0.31293559,0 -0.45192333,-0.24898418 l 0.12790283,-0.0682148 q 0.0963535,0.1884435 0.32231513,0.1884435 0.13301895,0 0.2063499,-0.0682148 0.0699202,-0.0648041 0.0699202,-0.16371563 0,-0.11681792 -0.10488032,-0.18759082 -0.0955008,-0.0639514 -0.25154224,-0.0639514 h -0.0767417 v -0.12449209 h 0.0801524 q 0.15689413,0 0.23960463,-0.059688 0.0886793,-0.0630987 0.0886793,-0.16968442 0,-0.11596524 -0.0997642,-0.17138984 -0.0639514,-0.038371 -0.1534834,-0.038371 -0.18929619,0 -0.28053354,0.19100156 L 0.11852329,-1.0377183 q 0.12619746,-0.2515422 0.41014174,-0.2515422 0.17991665,0 0.29161846,0.090385 0.1117018,0.088679 0.1117018,0.23448856 0,0.13813505 -0.10829106,0.22596166 -0.0699202,0.0562772 -0.17394785,0.0716256 z"
         style=""
         id="path1588" />
    </g>
  </a>
  <path
     d="m 33.425597,18.835263 h 1.1 m -1.1,-0.3 h 1.1"
     id="path298"
     inkscape:connector-curvature="0"
     style="fill:none;stroke:currentColor;stroke-width:0.12;stroke-linecap:square;stroke-linejoin:round" />
  <g
     id="g302"
     style="color:#ffffff"
     transform="translate(-2.5845028,-2.7782181)">
    <path
       transform="translate(38.2855,18.9373)"
       style="fill:currentColor"
       d="m 0.11,-0.64899999 h 1.1 v 1.29799998 h -1.1 z"
       id="rect300" />
  </g>
  <a
     style="color:inherit"
     xlink:href="textedit:///home/paul/Projects/tsugaru/lilypond-shamisen/example.ly:38:30:31"
     id="a308"
     transform="translate(-2.5845028,-2.7782181)">
    <g
       aria-label="0"
       transform="translate(38.3955,19.5776)"
       style="font-weight:bold;font-size:1.74629998px;font-family:IPAexGothic;text-anchor:start;fill:currentColor"
       id="text306">
      <path
         d="m 0.55595097,-1.2892605 q 0.2302251,0 0.3538645,0.2131714 0.0980588,0.16883169 0.0980588,0.43657495 0,0.2651852 -0.0980588,0.43742768 -0.12193403,0.21061333 -0.3598333,0.21061333 -0.23704658,0 -0.35898061,-0.21061333 -0.09805884,-0.17224248 -0.09805884,-0.43913305 0,-0.37177088 0.17991665,-0.54145528 0.11425986,-0.1065857 0.2830916,-0.1065857 z m -0.005969,0.1253447 q -0.13642968,0 -0.21487675,0.1381351 -0.0801524,0.13984043 -0.0801524,0.38626655 0,0.24216269 0.0784471,0.38115043 0.0792998,0.13642969 0.21658212,0.13642969 0.16456831,0 0.24386807,-0.19270693 0.0520138,-0.12790283 0.0520138,-0.33340005 0,-0.24045732 -0.0801524,-0.37773969 -0.0810051,-0.1381351 -0.21572944,-0.1381351 z"
         style=""
         id="path1592" />
    </g>
  </a>
  <path
     d="m 35.810997,17.035263 h 1.1"
     id="path310"
     inkscape:connector-curvature="0"
     style="fill:none;stroke:currentColor;stroke-width:0.12;stroke-linecap:square;stroke-linejoin:round" />
  <path
     d="m 24.409697,18.535263 h 1.1"
     id="path312"
     inkscape:connector-curvature="0"
     style="fill:none;stroke:currentColor;stroke-width:0.12;stroke-linecap:square;stroke-linejoin:round" />
  <a
     style="color:inherit"
     xlink:href="textedit:///home/paul/Projects/tsugaru/lilypond-shamisen/example.ly:38:11:12"
     id="a318"
     transform="translate(-2.5845028,-2.7782181)">
    <g
       aria-label="Ⅲ"
       transform="translate(31.1294,18.1496)"
       style="font-size:1.55569994px;font-family:IPAexGothic;text-anchor:start;fill:currentColor"
       id="text316">
      <path
         d="m 0.31448231,-1.1682942 h 0.13673144 v 1.08929381 H 0.31448231 Z m 0.39500194,0 h 0.13673144 v 1.08929381 H 0.70948425 Z m 0.39576155,0 h 0.1367315 v 1.08929381 H 1.1052458 Z"
         style=""
         id="path1595" />
    </g>
  </a>
  <path
     style="stroke:currentColor;stroke-width:0.0754;stroke-linecap:round;stroke-linejoin:round"
     d="M 1.0097972,31.159082 H 68.509697"
     id="line320" />
  <path
     style="stroke:currentColor;stroke-width:0.0754;stroke-linecap:round;stroke-linejoin:round"
     d="M 1.0097972,29.659082 H 68.509697"
     id="line322" />
  <path
     style="stroke:currentColor;stroke-width:0.0754;stroke-linecap:round;stroke-linejoin:round"
     d="M 1.0097972,28.159082 H 68.509697"
     id="line324" />
  <path
     style="fill:currentColor"
     d="m 59.850899,28.159082 h 0.1432 v 3 h -0.1432 z"
     id="rect326" />
  <path
     style="fill:currentColor"
     d="m 16.520897,28.159082 h 0.1432 v 3 h -0.1432 z"
     id="rect328" />
  <path
     style="fill:currentColor"
     d="m 30.326397,28.159082 h 0.1432 v 3 h -0.1432 z"
     id="rect330" />
  <path
     style="fill:currentColor"
     d="m 45.589596,28.159082 h 0.1432 v 3 h -0.1432 z"
     id="rect332" />
  <path
     style="fill:currentColor"
     d="m 68.0952,28.159082 h 0.4521 v 3 h -0.4521 z"
     id="rect334" />
  <path
     style="fill:currentColor"
     d="m 67.725998,28.159082 h 0.1432 v 3 h -0.1432 z"
     id="rect336" />
  <path
     d="m 48.283397,28.909082 c 0,-0.128 0.1,-0.228 0.228,-0.228 0.128,0 0.228,0.1 0.228,0.228 0,0.128 -0.1,0.228 -0.228,0.228 -0.128,0 -0.228,-0.1 -0.228,-0.228 z"
     id="path338"
     inkscape:connector-curvature="0"
     style="fill:currentColor;stroke-width:0.004" />
  <a
     style="color:inherit"
     xlink:href="textedit:///home/paul/Projects/tsugaru/lilypond-shamisen/example.ly:50:26:27"
     id="a342"
     transform="translate(-2.5845028,-2.7782181)">
    <path
       transform="translate(45.2808,33.1873)"
       d="m -0.412,-0.422 0.64,-0.005 0.04,0.041 C 0.11,0.046 -0.131,0.276 -0.487,0.457 M 0.494,0.434 C 0.379,0.313 0.247,0.187 0.044,0.036"
       id="path340"
       inkscape:connector-curvature="0"
       style="fill:none;stroke:currentColor;stroke-width:0.12;stroke-linecap:square;stroke-linejoin:miter" />
  </a>
  <g
     id="g346"
     style="color:#ffffff"
     transform="translate(-2.5845028,-2.7782181)">
    <path
       transform="translate(49.2012,32.4373)"
       style="fill:currentColor"
       d="m 0.11,-0.64899999 h 1.1 v 1.29799998 h -1.1 z"
       id="rect344" />
  </g>
  <a
     style="color:inherit"
     xlink:href="textedit:///home/paul/Projects/tsugaru/lilypond-shamisen/example.ly:52:4:5"
     id="a352"
     transform="translate(-2.5845028,-2.7782181)">
    <g
       aria-label="0"
       transform="translate(49.3112,33.0776)"
       style="font-weight:bold;font-size:1.74629998px;font-family:IPAexGothic;text-anchor:start;fill:currentColor"
       id="text350">
      <path
         d="m 0.55595097,-1.2892605 q 0.2302251,0 0.3538645,0.2131714 0.0980588,0.16883169 0.0980588,0.43657495 0,0.2651852 -0.0980588,0.43742768 -0.12193403,0.21061333 -0.3598333,0.21061333 -0.23704658,0 -0.35898061,-0.21061333 -0.09805884,-0.17224248 -0.09805884,-0.43913305 0,-0.37177088 0.17991665,-0.54145528 0.11425986,-0.1065857 0.2830916,-0.1065857 z m -0.005969,0.1253447 q -0.13642968,0 -0.21487675,0.1381351 -0.0801524,0.13984043 -0.0801524,0.38626655 0,0.24216269 0.0784471,0.38115043 0.0792998,0.13642969 0.21658212,0.13642969 0.16456831,0 0.24386807,-0.19270693 0.0520138,-0.12790283 0.0520138,-0.33340005 0,-0.24045732 -0.0801524,-0.37773969 -0.0810051,-0.1381351 -0.21572944,-0.1381351 z"
         style=""
         id="path1608" />
    </g>
  </a>
  <path
     d="m 42.146297,29.020859 h 1.1"
     id="path354"
     inkscape:connector-curvature="0"
     style="fill:none;stroke:currentColor;stroke-width:0.12;stroke-linecap:square;stroke-linejoin:round" />
  <g
     id="g358"
     style="color:#ffffff"
     transform="translate(-2.5845028,-2.7782181)">
    <path
       transform="translate(44.6208,30.9373)"
       style="fill:currentColor"
       d="m 0.11,-0.63840002 h 1.1 V 0.6383 h -1.1 z"
       id="rect356" />
  </g>
  <a
     style="color:inherit"
     xlink:href="textedit:///home/paul/Projects/tsugaru/lilypond-shamisen/example.ly:50:23:24"
     id="a364"
     transform="translate(-2.5845028,-2.7782181)">
    <g
       aria-label="4"
       transform="translate(44.7308,31.5756)"
       style="font-weight:bold;font-size:1.74629998px;font-family:IPAexGothic;text-anchor:start;fill:currentColor"
       id="text362">
      <path
         d="M 1.0402764,-0.31634633 H 0.83477914 v 0.29929262 H 0.69493871 V -0.31634633 H 0.05371919 V -0.45618676 L 0.67021083,-1.2764703 h 0.16456831 v 0.83051576 H 1.0402764 Z M 0.70346557,-1.1212815 h -0.005116 q -0.0767417,0.12363942 -0.15177803,0.225109 l -0.33936884,0.45021796 h 0.48773612 v -0.41184711 q 0,-0.09209 0.008527,-0.26347985 z"
         style=""
         id="path1612" />
    </g>
  </a>
  <path
     d="m 46.726697,30.535263 h 1.1"
     id="path366"
     inkscape:connector-curvature="0"
     style="fill:none;stroke:currentColor;stroke-width:0.12;stroke-linecap:square;stroke-linejoin:round" />
  <path
     d="m 31.494897,29.020859 h 1.1"
     id="path368"
     inkscape:connector-curvature="0"
     style="fill:none;stroke:currentColor;stroke-width:0.12;stroke-linecap:square;stroke-linejoin:round" />
  <a
     style="color:inherit"
     xlink:href="textedit:///home/paul/Projects/tsugaru/lilypond-shamisen/example.ly:50:14:15"
     id="a372"
     transform="translate(-2.5845028,-2.7782181)">
    <path
       transform="translate(33.9694,32.4373)"
       d="M 0.65889091,-2.8883531 C 1.6179876,-3.767352 3.2449899,-3.7722415 4.2093523,-2.8990229 3.2452617,-3.6818133 1.6182593,-3.6769239 0.65889091,-2.8883531 Z"
       id="path370"
       inkscape:connector-curvature="0"
       style="fill:currentColor;stroke:currentColor;stroke-width:0.0603;stroke-linecap:round;stroke-linejoin:round" />
  </a>
  <g
     id="g376"
     style="color:#ffffff"
     transform="translate(-2.5845028,-2.7782181)">
    <path
       transform="translate(37.5199,30.9373)"
       style="fill:currentColor"
       d="m 0.11,-0.64899999 h 1.1 v 1.29799998 h -1.1 z"
       id="rect374" />
  </g>
  <a
     style="color:inherit"
     xlink:href="textedit:///home/paul/Projects/tsugaru/lilypond-shamisen/example.ly:50:16:17"
     id="a382"
     transform="translate(-2.5845028,-2.7782181)">
    <g
       aria-label="6"
       transform="translate(37.6299,31.5776)"
       style="font-weight:bold;font-size:1.74629998px;font-family:IPAexGothic;text-anchor:start;fill:currentColor"
       id="text380">
      <path
         d="M 0.28820771,-0.63525073 Q 0.41184711,-0.813462 0.60967016,-0.813462 q 0.18332739,0 0.2950292,0.12790283 0.0980588,0.11084912 0.0980588,0.27030131 0,0.17394785 -0.10999644,0.29673457 -0.11425986,0.12705015 -0.29843994,0.12705015 -0.21914018,0 -0.34277959,-0.16712637 -0.12022866,-0.16286294 -0.12022866,-0.44936528 0,-0.32657856 0.14495654,-0.51331671 0.13131358,-0.167979 0.34363228,-0.167979 0.25068954,0 0.36494941,0.1910015 l -0.12534478,0.068215 q -0.0699202,-0.1338717 -0.23193046,-0.1338717 -0.32231514,0 -0.34619033,0.52866507 z m 0.29588188,-0.059688 q -0.12449208,0 -0.2063499,0.0929427 -0.073331,0.0835632 -0.073331,0.18162202 0,0.10488032 0.0648041,0.19014887 0.0869739,0.11340718 0.21999287,0.11340718 0.13898774,0 0.21317138,-0.11340718 0.0503084,-0.0775944 0.0503084,-0.17991664 0,-0.12022866 -0.0665095,-0.19782305 -0.0767417,-0.0869739 -0.20208648,-0.0869739 z"
         style=""
         id="path1616" />
    </g>
  </a>
  <path
     d="m 35.045397,29.035263 h 1.1"
     id="path384"
     inkscape:connector-curvature="0"
     style="fill:none;stroke:currentColor;stroke-width:0.12;stroke-linecap:square;stroke-linejoin:round" />
  <g
     id="g388"
     style="color:#ffffff"
     transform="translate(-2.5845028,-2.7782181)">
    <path
       transform="translate(41.0704,30.9373)"
       style="fill:currentColor"
       d="m 0.11,-0.63840002 h 1.1 V 0.6383 h -1.1 z"
       id="rect386" />
  </g>
  <a
     style="color:inherit"
     xlink:href="textedit:///home/paul/Projects/tsugaru/lilypond-shamisen/example.ly:50:20:21"
     id="a394"
     transform="translate(-2.5845028,-2.7782181)">
    <g
       aria-label="4"
       transform="translate(41.1804,31.5756)"
       style="font-weight:bold;font-size:1.74629998px;font-family:IPAexGothic;text-anchor:start;fill:currentColor"
       id="text392">
      <path
         d="M 1.0402764,-0.31634633 H 0.83477914 v 0.29929262 H 0.69493871 V -0.31634633 H 0.05371919 V -0.45618676 L 0.67021083,-1.2764703 h 0.16456831 v 0.83051576 H 1.0402764 Z M 0.70346557,-1.1212815 h -0.005116 q -0.0767417,0.12363942 -0.15177803,0.225109 l -0.33936884,0.45021796 h 0.48773612 v -0.41184711 q 0,-0.09209 0.008527,-0.26347985 z"
         style=""
         id="path1620" />
    </g>
  </a>
  <path
     d="m 38.595897,29.020859 h 1.1"
     id="path396"
     inkscape:connector-curvature="0"
     style="fill:none;stroke:currentColor;stroke-width:0.12;stroke-linecap:square;stroke-linejoin:round" />
  <a
     style="color:inherit"
     xlink:href="textedit:///home/paul/Projects/tsugaru/lilypond-shamisen/example.ly:54:13:14"
     id="a400"
     transform="translate(-2.5845028,-2.7782181)">
    <path
       transform="matrix(0.004,0,0,-0.004,65.1002,29.9242)"
       d="m -63,47 c 0,35 28,63 63,63 35,0 63,-28 63,-63 0,-35 -28,-63 -63,-63 -35,0 -63,28 -63,63 z M 0,360 c 156,0 329,-173 329,-362 0,-8 -8,-14 -16,-14 -7,0 -15,5 -17,16 C 270,149 149,265 0,265 -149,265 -270,149 -296,0 c -2,-11 -10,-16 -17,-16 -8,0 -16,6 -16,14 0,189 174,362 329,362 z"
       id="path398"
       inkscape:connector-curvature="0"
       style="fill:currentColor" />
  </a>
  <g
     id="g404"
     style="color:#ffffff"
     transform="translate(-2.5845028,-2.7782181)">
    <path
       transform="translate(64.4402,33.9373)"
       style="fill:currentColor"
       d="m 0.11,-0.64899999 h 1.1 v 1.29799998 h -1.1 z"
       id="rect402" />
  </g>
  <a
     style="color:inherit"
     xlink:href="textedit:///home/paul/Projects/tsugaru/lilypond-shamisen/example.ly:54:5:6"
     id="a410"
     transform="translate(-2.5845028,-2.7782181)">
    <g
       aria-label="0"
       transform="translate(64.5502,34.5776)"
       style="font-weight:bold;font-size:1.74629998px;font-family:IPAexGothic;text-anchor:start;fill:currentColor"
       id="text408">
      <path
         d="m 0.55595097,-1.2892605 q 0.2302251,0 0.3538645,0.2131714 0.0980588,0.16883169 0.0980588,0.43657495 0,0.2651852 -0.0980588,0.43742768 -0.12193403,0.21061333 -0.3598333,0.21061333 -0.23704658,0 -0.35898061,-0.21061333 -0.09805884,-0.17224248 -0.09805884,-0.43913305 0,-0.37177088 0.17991665,-0.54145528 0.11425986,-0.1065857 0.2830916,-0.1065857 z m -0.005969,0.1253447 q -0.13642968,0 -0.21487675,0.1381351 -0.0801524,0.13984043 -0.0801524,0.38626655 0,0.24216269 0.0784471,0.38115043 0.0792998,0.13642969 0.21658212,0.13642969 0.16456831,0 0.24386807,-0.19270693 0.0520138,-0.12790283 0.0520138,-0.33340005 0,-0.24045732 -0.0801524,-0.37773969 -0.0810051,-0.1381351 -0.21572944,-0.1381351 z"
         style=""
         id="path1624" />
    </g>
  </a>
  <g
     id="g414"
     style="color:#ffffff"
     transform="translate(-2.5845028,-2.7782181)">
    <path
       transform="translate(64.4402,32.4373)"
       style="fill:currentColor"
       d="m 0.11,-0.64899999 h 1.1 v 1.29799998 h -1.1 z"
       id="rect412" />
  </g>
  <a
     style="color:inherit"
     xlink:href="textedit:///home/paul/Projects/tsugaru/lilypond-shamisen/example.ly:54:7:8"
     id="a420"
     transform="translate(-2.5845028,-2.7782181)">
    <g
       aria-label="0"
       transform="translate(64.5502,33.0776)"
       style="font-weight:bold;font-size:1.74629998px;font-family:IPAexGothic;text-anchor:start;fill:currentColor"
       id="text418">
      <path
         d="m 0.55595097,-1.2892605 q 0.2302251,0 0.3538645,0.2131714 0.0980588,0.16883169 0.0980588,0.43657495 0,0.2651852 -0.0980588,0.43742768 -0.12193403,0.21061333 -0.3598333,0.21061333 -0.23704658,0 -0.35898061,-0.21061333 -0.09805884,-0.17224248 -0.09805884,-0.43913305 0,-0.37177088 0.17991665,-0.54145528 0.11425986,-0.1065857 0.2830916,-0.1065857 z m -0.005969,0.1253447 q -0.13642968,0 -0.21487675,0.1381351 -0.0801524,0.13984043 -0.0801524,0.38626655 0,0.24216269 0.0784471,0.38115043 0.0792998,0.13642969 0.21658212,0.13642969 0.16456831,0 0.24386807,-0.19270693 0.0520138,-0.12790283 0.0520138,-0.33340005 0,-0.24045732 -0.0801524,-0.37773969 -0.0810051,-0.1381351 -0.21572944,-0.1381351 z"
         style=""
         id="path1628" />
    </g>
  </a>
  <g
     id="g424"
     style="color:#ffffff"
     transform="translate(-2.5845028,-2.7782181)">
    <path
       transform="translate(64.4402,30.9373)"
       style="fill:currentColor"
       d="m 0.11,-0.64899999 h 1.1 v 1.29799998 h -1.1 z"
       id="rect422" />
  </g>
  <a
     style="color:inherit"
     xlink:href="textedit:///home/paul/Projects/tsugaru/lilypond-shamisen/example.ly:54:9:10"
     id="a430"
     transform="translate(-2.5845028,-2.7782181)">
    <g
       aria-label="0"
       transform="translate(64.5502,31.5776)"
       style="font-weight:bold;font-size:1.74629998px;font-family:IPAexGothic;text-anchor:start;fill:currentColor"
       id="text428">
      <path
         d="m 0.55595097,-1.2892605 q 0.2302251,0 0.3538645,0.2131714 0.0980588,0.16883169 0.0980588,0.43657495 0,0.2651852 -0.0980588,0.43742768 -0.12193403,0.21061333 -0.3598333,0.21061333 -0.23704658,0 -0.35898061,-0.21061333 -0.09805884,-0.17224248 -0.09805884,-0.43913305 0,-0.37177088 0.17991665,-0.54145528 0.11425986,-0.1065857 0.2830916,-0.1065857 z m -0.005969,0.1253447 q -0.13642968,0 -0.21487675,0.1381351 -0.0801524,0.13984043 -0.0801524,0.38626655 0,0.24216269 0.0784471,0.38115043 0.0792998,0.13642969 0.21658212,0.13642969 0.16456831,0 0.24386807,-0.19270693 0.0520138,-0.12790283 0.0520138,-0.33340005 0,-0.24045732 -0.0801524,-0.37773969 -0.0810051,-0.1381351 -0.21572944,-0.1381351 z"
         style=""
         id="path1632" />
    </g>
  </a>
  <path
     d="m 64.515697,28.989082 h 1"
     id="path432"
     inkscape:connector-curvature="0"
     style="fill:none;stroke:currentColor;stroke-width:0.12;stroke-linecap:square;stroke-linejoin:round" />
  <g
     id="g436"
     style="color:#ffffff"
     transform="translate(-2.5845028,-2.7782181)">
    <path
       transform="translate(53.4355,33.9373)"
       style="fill:currentColor"
       d="m 0.11,-0.63840002 h 1.1 V 0.6383 h -1.1 z"
       id="rect434" />
  </g>
  <a
     style="color:inherit"
     xlink:href="textedit:///home/paul/Projects/tsugaru/lilypond-shamisen/example.ly:52:8:9"
     id="a442"
     transform="translate(-2.5845028,-2.7782181)">
    <g
       aria-label="4"
       transform="translate(53.5455,34.5756)"
       style="font-weight:bold;font-size:1.74629998px;font-family:IPAexGothic;text-anchor:start;fill:currentColor"
       id="text440">
      <path
         d="M 1.0402764,-0.31634633 H 0.83477914 v 0.29929262 H 0.69493871 V -0.31634633 H 0.05371919 V -0.45618676 L 0.67021083,-1.2764703 h 0.16456831 v 0.83051576 H 1.0402764 Z M 0.70346557,-1.1212815 h -0.005116 q -0.0767417,0.12363942 -0.15177803,0.225109 l -0.33936884,0.45021796 h 0.48773612 v -0.41184711 q 0,-0.09209 0.008527,-0.26347985 z"
         style=""
         id="path1636" />
    </g>
  </a>
  <path
     d="m 50.960997,32.320859 h 1.1 m -1.1,-0.3 h 1.1"
     id="path444"
     inkscape:connector-curvature="0"
     style="fill:none;stroke:currentColor;stroke-width:0.12;stroke-linecap:square;stroke-linejoin:round" />
  <a
     style="color:inherit"
     xlink:href="textedit:///home/paul/Projects/tsugaru/lilypond-shamisen/example.ly:52:16:17"
     id="a448"
     transform="translate(-2.5845028,-2.7782181)">
    <path
       transform="translate(56.4769,34.6873)"
       d="M -1,0 H 0 V -0.6"
       id="path446"
       inkscape:connector-curvature="0"
       style="fill:none;stroke:currentColor;stroke-width:0.12;stroke-linecap:square;stroke-linejoin:miter" />
  </a>
  <g
     id="g452"
     style="color:#ffffff"
     transform="translate(-2.5845028,-2.7782181)">
    <path
       transform="translate(55.8169,32.4373)"
       style="fill:currentColor"
       d="m 0.11,-0.64899999 h 1.1 v 1.29799998 h -1.1 z"
       id="rect450" />
  </g>
  <a
     style="color:inherit"
     xlink:href="textedit:///home/paul/Projects/tsugaru/lilypond-shamisen/example.ly:52:12:13"
     id="a458"
     transform="translate(-2.5845028,-2.7782181)">
    <g
       aria-label="0"
       transform="translate(55.9269,33.0776)"
       style="font-weight:bold;font-size:1.74629998px;font-family:IPAexGothic;text-anchor:start;fill:currentColor"
       id="text456">
      <path
         d="m 0.55595097,-1.2892605 q 0.2302251,0 0.3538645,0.2131714 0.0980588,0.16883169 0.0980588,0.43657495 0,0.2651852 -0.0980588,0.43742768 -0.12193403,0.21061333 -0.3598333,0.21061333 -0.23704658,0 -0.35898061,-0.21061333 -0.09805884,-0.17224248 -0.09805884,-0.43913305 0,-0.37177088 0.17991665,-0.54145528 0.11425986,-0.1065857 0.2830916,-0.1065857 z m -0.005969,0.1253447 q -0.13642968,0 -0.21487675,0.1381351 -0.0801524,0.13984043 -0.0801524,0.38626655 0,0.24216269 0.0784471,0.38115043 0.0792998,0.13642969 0.21658212,0.13642969 0.16456831,0 0.24386807,-0.19270693 0.0520138,-0.12790283 0.0520138,-0.33340005 0,-0.24045732 -0.0801524,-0.37773969 -0.0810051,-0.1381351 -0.21572944,-0.1381351 z"
         style=""
         id="path1640" />
    </g>
  </a>
  <path
     d="m 54.899097,28.909082 c 0,-0.128 0.1,-0.228 0.228,-0.228 0.128,0 0.228,0.1 0.228,0.228 0,0.128 -0.1,0.228 -0.228,0.228 -0.128,0 -0.228,-0.1 -0.228,-0.228 z"
     id="path460"
     inkscape:connector-curvature="0"
     style="fill:currentColor;stroke-width:0.004" />
  <path
     d="m 53.342397,30.535263 h 1.1"
     id="path462"
     inkscape:connector-curvature="0"
     style="fill:none;stroke:currentColor;stroke-width:0.12;stroke-linecap:square;stroke-linejoin:round" />
  <g
     id="g466"
     style="color:#ffffff"
     transform="translate(-2.5845028,-2.7782181)">
    <path
       transform="translate(60.0512,33.9373)"
       style="fill:currentColor"
       d="m 0.11,-0.64899999 h 1.1 v 1.29799998 h -1.1 z"
       id="rect464" />
  </g>
  <a
     style="color:inherit"
     xlink:href="textedit:///home/paul/Projects/tsugaru/lilypond-shamisen/example.ly:52:23:24"
     id="a472"
     transform="translate(-2.5845028,-2.7782181)">
    <g
       aria-label="0"
       transform="translate(60.1612,34.5776)"
       style="font-weight:bold;font-size:1.74629998px;font-family:IPAexGothic;text-anchor:start;fill:currentColor"
       id="text470">
      <path
         d="m 0.55595097,-1.2892605 q 0.2302251,0 0.3538645,0.2131714 0.0980588,0.16883169 0.0980588,0.43657495 0,0.2651852 -0.0980588,0.43742768 -0.12193403,0.21061333 -0.3598333,0.21061333 -0.23704658,0 -0.35898061,-0.21061333 -0.09805884,-0.17224248 -0.09805884,-0.43913305 0,-0.37177088 0.17991665,-0.54145528 0.11425986,-0.1065857 0.2830916,-0.1065857 z m -0.005969,0.1253447 q -0.13642968,0 -0.21487675,0.1381351 -0.0801524,0.13984043 -0.0801524,0.38626655 0,0.24216269 0.0784471,0.38115043 0.0792998,0.13642969 0.21658212,0.13642969 0.16456831,0 0.24386807,-0.19270693 0.0520138,-0.12790283 0.0520138,-0.33340005 0,-0.24045732 -0.0801524,-0.37773969 -0.0810051,-0.1381351 -0.21572944,-0.1381351 z"
         style=""
         id="path1644" />
    </g>
  </a>
  <g
     id="g476"
     style="color:#ffffff"
     transform="translate(-2.5845028,-2.7782181)">
    <path
       transform="translate(60.0512,32.4373)"
       style="fill:currentColor"
       d="m 0.11,-0.64899999 h 1.1 v 1.29799998 h -1.1 z"
       id="rect474" />
  </g>
  <a
     style="color:inherit"
     xlink:href="textedit:///home/paul/Projects/tsugaru/lilypond-shamisen/example.ly:52:25:26"
     id="a482"
     transform="translate(-2.5845028,-2.7782181)">
    <g
       aria-label="0"
       transform="translate(60.1612,33.0776)"
       style="font-weight:bold;font-size:1.74629998px;font-family:IPAexGothic;text-anchor:start;fill:currentColor"
       id="text480">
      <path
         d="m 0.55595097,-1.2892605 q 0.2302251,0 0.3538645,0.2131714 0.0980588,0.16883169 0.0980588,0.43657495 0,0.2651852 -0.0980588,0.43742768 -0.12193403,0.21061333 -0.3598333,0.21061333 -0.23704658,0 -0.35898061,-0.21061333 -0.09805884,-0.17224248 -0.09805884,-0.43913305 0,-0.37177088 0.17991665,-0.54145528 0.11425986,-0.1065857 0.2830916,-0.1065857 z m -0.005969,0.1253447 q -0.13642968,0 -0.21487675,0.1381351 -0.0801524,0.13984043 -0.0801524,0.38626655 0,0.24216269 0.0784471,0.38115043 0.0792998,0.13642969 0.21658212,0.13642969 0.16456831,0 0.24386807,-0.19270693 0.0520138,-0.12790283 0.0520138,-0.33340005 0,-0.24045732 -0.0801524,-0.37773969 -0.0810051,-0.1381351 -0.21572944,-0.1381351 z"
         style=""
         id="path1648" />
    </g>
  </a>
  <g
     id="g486"
     style="color:#ffffff"
     transform="translate(-2.5845028,-2.7782181)">
    <path
       transform="translate(60.0512,30.9373)"
       style="fill:currentColor"
       d="m 0.11,-0.64899999 h 1.1 v 1.29799998 h -1.1 z"
       id="rect484" />
  </g>
  <a
     style="color:inherit"
     xlink:href="textedit:///home/paul/Projects/tsugaru/lilypond-shamisen/example.ly:52:27:28"
     id="a492"
     transform="translate(-2.5845028,-2.7782181)">
    <g
       aria-label="0"
       transform="translate(60.1612,31.5776)"
       style="font-weight:bold;font-size:1.74629998px;font-family:IPAexGothic;text-anchor:start;fill:currentColor"
       id="text490">
      <path
         d="m 0.55595097,-1.2892605 q 0.2302251,0 0.3538645,0.2131714 0.0980588,0.16883169 0.0980588,0.43657495 0,0.2651852 -0.0980588,0.43742768 -0.12193403,0.21061333 -0.3598333,0.21061333 -0.23704658,0 -0.35898061,-0.21061333 -0.09805884,-0.17224248 -0.09805884,-0.43913305 0,-0.37177088 0.17991665,-0.54145528 0.11425986,-0.1065857 0.2830916,-0.1065857 z m -0.005969,0.1253447 q -0.13642968,0 -0.21487675,0.1381351 -0.0801524,0.13984043 -0.0801524,0.38626655 0,0.24216269 0.0784471,0.38115043 0.0792998,0.13642969 0.21658212,0.13642969 0.16456831,0 0.24386807,-0.19270693 0.0520138,-0.12790283 0.0520138,-0.33340005 0,-0.24045732 -0.0801524,-0.37773969 -0.0810051,-0.1381351 -0.21572944,-0.1381351 z"
         style=""
         id="path1652" />
    </g>
  </a>
  <path
     d="m 57.576697,32.335263 h 1.1 m -1.1,-0.3 h 1.1"
     id="path494"
     inkscape:connector-curvature="0"
     style="fill:none;stroke:currentColor;stroke-width:0.12;stroke-linecap:square;stroke-linejoin:round" />
  <g
     id="g498"
     style="color:#ffffff"
     transform="translate(-2.5845028,-2.7782181)">
    <path
       transform="translate(11.906,30.9373)"
       style="fill:currentColor"
       d="m 0.11,-0.63840002 h 1.1 V 0.6383 h -1.1 z"
       id="rect496" />
  </g>
  <a
     style="color:inherit"
     xlink:href="textedit:///home/paul/Projects/tsugaru/lilypond-shamisen/example.ly:46:12:13"
     id="a504"
     transform="translate(-2.5845028,-2.7782181)">
    <g
       aria-label="4"
       transform="translate(12.016,31.5756)"
       style="font-weight:bold;font-size:1.74629998px;font-family:IPAexGothic;text-anchor:start;fill:currentColor"
       id="text502">
      <path
         d="M 1.0402764,-0.31634633 H 0.83477914 v 0.29929262 H 0.69493871 V -0.31634633 H 0.05371919 V -0.45618676 L 0.67021083,-1.2764703 h 0.16456831 v 0.83051576 H 1.0402764 Z M 0.70346557,-1.1212815 h -0.005116 q -0.0767417,0.12363942 -0.15177803,0.225109 l -0.33936884,0.45021796 h 0.48773612 v -0.41184711 q 0,-0.09209 0.008527,-0.26347985 z"
         style=""
         id="path1656" />
    </g>
  </a>
  <path
     d="m 9.4314972,29.320859 h 1.0999998 m -1.0999998,-0.3 h 1.0999998"
     id="path506"
     inkscape:connector-curvature="0"
     style="fill:none;stroke:currentColor;stroke-width:0.12;stroke-linecap:square;stroke-linejoin:round" />
  <a
     style="color:inherit"
     xlink:href="textedit:///home/paul/Projects/tsugaru/lilypond-shamisen/example.ly:46:21:22"
     id="a510"
     transform="translate(-2.5845028,-2.7782181)">
    <path
       transform="translate(14.166,33.1873)"
       d="m -0.212,-0.334 c -0.077,0.281 -0.197,0.491 -0.341,0.672 m 0.708,-0.69 c 0.173,0.246 0.303,0.466 0.39,0.659"
       id="path508"
       inkscape:connector-curvature="0"
       style="fill:none;stroke:currentColor;stroke-width:0.12;stroke-linecap:square;stroke-linejoin:miter" />
  </a>
  <g
     id="g514"
     style="color:#ffffff"
     transform="translate(-2.5845028,-2.7782181)">
    <path
       transform="translate(13.506,30.9373)"
       style="fill:currentColor"
       d="m 0.11,-0.64899999 h 1.1 v 1.29799998 h -1.1 z"
       id="rect512" />
  </g>
  <a
     style="color:inherit"
     xlink:href="textedit:///home/paul/Projects/tsugaru/lilypond-shamisen/example.ly:46:17:18"
     id="a520"
     transform="translate(-2.5845028,-2.7782181)">
    <g
       aria-label="3"
       transform="translate(13.616,31.5776)"
       style="font-weight:bold;font-size:1.74629998px;font-family:IPAexGothic;text-anchor:start;fill:currentColor"
       id="text518">
      <path
         d="m 0.64974638,-0.65997861 q 0.30696679,0.0554246 0.30696679,0.31123022 0,0.1534834 -0.10317495,0.25154224 -0.11425986,0.10573301 -0.32316782,0.10573301 -0.31293559,0 -0.45192333,-0.24898418 l 0.12790283,-0.0682148 q 0.0963535,0.1884435 0.32231513,0.1884435 0.13301895,0 0.2063499,-0.0682148 0.0699202,-0.0648041 0.0699202,-0.16371563 0,-0.11681792 -0.10488032,-0.18759082 -0.0955008,-0.0639514 -0.25154224,-0.0639514 h -0.0767417 v -0.12449209 h 0.0801524 q 0.15689413,0 0.23960463,-0.059688 0.0886793,-0.0630987 0.0886793,-0.16968442 0,-0.11596524 -0.0997642,-0.17138984 -0.0639514,-0.038371 -0.1534834,-0.038371 -0.18929619,0 -0.28053354,0.19100156 L 0.11852329,-1.0377183 q 0.12619746,-0.2515422 0.41014174,-0.2515422 0.17991665,0 0.29161846,0.090385 0.1117018,0.088679 0.1117018,0.23448856 0,0.13813505 -0.10829106,0.22596166 -0.0699202,0.0562772 -0.17394785,0.0716256 z"
         style=""
         id="path1660" />
    </g>
  </a>
  <path
     d="m 11.031497,29.335263 h 1.1 m -1.1,-0.3 h 1.1"
     id="path522"
     inkscape:connector-curvature="0"
     style="fill:none;stroke:currentColor;stroke-width:0.12;stroke-linecap:square;stroke-linejoin:round" />
  <a
     style="color:inherit"
     xlink:href="textedit:///home/paul/Projects/tsugaru/lilypond-shamisen/example.ly:46:32:33"
     id="a526"
     transform="translate(-2.5845028,-2.7782181)">
    <path
       transform="translate(15.7659,33.1873)"
       d="m -0.212,-0.334 c -0.077,0.281 -0.197,0.491 -0.341,0.672 m 0.708,-0.69 c 0.173,0.246 0.303,0.466 0.39,0.659"
       id="path524"
       inkscape:connector-curvature="0"
       style="fill:none;stroke:currentColor;stroke-width:0.12;stroke-linecap:square;stroke-linejoin:miter" />
  </a>
  <g
     id="g530"
     style="color:#ffffff"
     transform="translate(-2.5845028,-2.7782181)">
    <path
       transform="translate(15.106,30.9373)"
       style="fill:currentColor"
       d="m 0.11,-0.64899999 h 1.1 v 1.29799998 h -1.1 z"
       id="rect528" />
  </g>
  <a
     style="color:inherit"
     xlink:href="textedit:///home/paul/Projects/tsugaru/lilypond-shamisen/example.ly:46:29:30"
     id="a536"
     transform="translate(-2.5845028,-2.7782181)">
    <g
       aria-label="0"
       transform="translate(15.216,31.5776)"
       style="font-weight:bold;font-size:1.74629998px;font-family:IPAexGothic;text-anchor:start;fill:currentColor"
       id="text534">
      <path
         d="m 0.55595097,-1.2892605 q 0.2302251,0 0.3538645,0.2131714 0.0980588,0.16883169 0.0980588,0.43657495 0,0.2651852 -0.0980588,0.43742768 -0.12193403,0.21061333 -0.3598333,0.21061333 -0.23704658,0 -0.35898061,-0.21061333 -0.09805884,-0.17224248 -0.09805884,-0.43913305 0,-0.37177088 0.17991665,-0.54145528 0.11425986,-0.1065857 0.2830916,-0.1065857 z m -0.005969,0.1253447 q -0.13642968,0 -0.21487675,0.1381351 -0.0801524,0.13984043 -0.0801524,0.38626655 0,0.24216269 0.0784471,0.38115043 0.0792998,0.13642969 0.21658212,0.13642969 0.16456831,0 0.24386807,-0.19270693 0.0520138,-0.12790283 0.0520138,-0.33340005 0,-0.24045732 -0.0801524,-0.37773969 -0.0810051,-0.1381351 -0.21572944,-0.1381351 z"
         style=""
         id="path1664" />
    </g>
  </a>
  <path
     d="m 12.631397,29.335263 h 1.1 m -1.1,-0.3 h 1.1"
     id="path538"
     inkscape:connector-curvature="0"
     style="fill:none;stroke:currentColor;stroke-width:0.12;stroke-linecap:square;stroke-linejoin:round" />
  <g
     id="g542"
     style="color:#ffffff"
     transform="translate(-2.5845028,-2.7782181)">
    <path
       transform="translate(16.7059,32.4373)"
       style="fill:currentColor"
       d="m 0.11,-0.64899999 h 1.1 v 1.29799998 h -1.1 z"
       id="rect540" />
  </g>
  <a
     style="color:inherit"
     xlink:href="textedit:///home/paul/Projects/tsugaru/lilypond-shamisen/example.ly:46:40:41"
     id="a548"
     transform="translate(-2.5845028,-2.7782181)">
    <g
       aria-label="3"
       transform="translate(16.8159,33.0776)"
       style="font-weight:bold;font-size:1.74629998px;font-family:IPAexGothic;text-anchor:start;fill:currentColor"
       id="text546">
      <path
         d="m 0.64974638,-0.65997861 q 0.30696679,0.0554246 0.30696679,0.31123022 0,0.1534834 -0.10317495,0.25154224 -0.11425986,0.10573301 -0.32316782,0.10573301 -0.31293559,0 -0.45192333,-0.24898418 l 0.12790283,-0.0682148 q 0.0963535,0.1884435 0.32231513,0.1884435 0.13301895,0 0.2063499,-0.0682148 0.0699202,-0.0648041 0.0699202,-0.16371563 0,-0.11681792 -0.10488032,-0.18759082 -0.0955008,-0.0639514 -0.25154224,-0.0639514 h -0.0767417 v -0.12449209 h 0.0801524 q 0.15689413,0 0.23960463,-0.059688 0.0886793,-0.0630987 0.0886793,-0.16968442 0,-0.11596524 -0.0997642,-0.17138984 -0.0639514,-0.038371 -0.1534834,-0.038371 -0.18929619,0 -0.28053354,0.19100156 L 0.11852329,-1.0377183 q 0.12619746,-0.2515422 0.41014174,-0.2515422 0.17991665,0 0.29161846,0.090385 0.1117018,0.088679 0.1117018,0.23448856 0,0.13813505 -0.10829106,0.22596166 -0.0699202,0.0562772 -0.17394785,0.0716256 z"
         style=""
         id="path1668" />
    </g>
  </a>
  <path
     d="m 14.231397,30.835263 h 1.1 m -1.1,-0.3 h 1.1"
     id="path550"
     inkscape:connector-curvature="0"
     style="fill:none;stroke:currentColor;stroke-width:0.12;stroke-linecap:square;stroke-linejoin:round" />
  <g
     aria-label="5"
     style="font-size:1.74629998px;font-family:IPAexGothic;text-anchor:start;fill:currentColor"
     id="text554">
    <path
       d="m 0.19355961,26.402395 q 0.12449209,-0.09806 0.271154,-0.09806 0.17565322,0 0.29161846,0.118524 0.10829106,0.113407 0.10829106,0.281386 0,0.152631 -0.0929427,0.268596 Q 0.65486249,27.121209 0.42634276,27.121209 0.13387162,27.121209 0,26.898658 l 0.12790283,-0.06651 q 0.10146957,0.16201 0.29332382,0.16201 0.1236394,0 0.2063499,-0.07674 0.0852686,-0.08101 0.0852686,-0.214876 0,-0.126198 -0.0750363,-0.201234 -0.0784471,-0.07845 -0.20464453,-0.07845 -0.17735859,0 -0.26859595,0.136429 L 0.03325473,26.542236 0.11340717,25.84815 H 0.8015244 v 0.131313 H 0.23789926 l -0.0562772,0.422932 z"
       style=""
       id="path1671" />
  </g>
  <g
     id="g558"
     style="color:#ffffff"
     transform="translate(-2.5845028,-2.7782181)">
    <path
       transform="translate(4.8051,30.9373)"
       style="fill:currentColor"
       d="m 0.11,-0.64899999 h 1.1 v 1.29799998 h -1.1 z"
       id="rect556" />
  </g>
  <a
     style="color:inherit"
     xlink:href="textedit:///home/paul/Projects/tsugaru/lilypond-shamisen/example.ly:45:4:5"
     id="a564"
     transform="translate(-2.5845028,-2.7782181)">
    <g
       aria-label="0"
       transform="translate(4.9151,31.5776)"
       style="font-weight:bold;font-size:1.74629998px;font-family:IPAexGothic;text-anchor:start;fill:currentColor"
       id="text562">
      <path
         d="m 0.55595097,-1.2892605 q 0.2302251,0 0.3538645,0.2131714 0.0980588,0.16883169 0.0980588,0.43657495 0,0.2651852 -0.0980588,0.43742768 -0.12193403,0.21061333 -0.3598333,0.21061333 -0.23704658,0 -0.35898061,-0.21061333 -0.09805884,-0.17224248 -0.09805884,-0.43913305 0,-0.37177088 0.17991665,-0.54145528 0.11425986,-0.1065857 0.2830916,-0.1065857 z m -0.005969,0.1253447 q -0.13642968,0 -0.21487675,0.1381351 -0.0801524,0.13984043 -0.0801524,0.38626655 0,0.24216269 0.0784471,0.38115043 0.0792998,0.13642969 0.21658212,0.13642969 0.16456831,0 0.24386807,-0.19270693 0.0520138,-0.12790283 0.0520138,-0.33340005 0,-0.24045732 -0.0801524,-0.37773969 -0.0810051,-0.1381351 -0.21572944,-0.1381351 z"
         style=""
         id="path1675" />
    </g>
  </a>
  <path
     d="m 2.3305972,29.035263 h 1.1"
     id="path566"
     inkscape:connector-curvature="0"
     style="fill:none;stroke:currentColor;stroke-width:0.12;stroke-linecap:square;stroke-linejoin:round" />
  <a
     style="color:inherit"
     xlink:href="textedit:///home/paul/Projects/tsugaru/lilypond-shamisen/example.ly:45:11:12"
     id="a570"
     transform="translate(-2.5845028,-2.7782181)">
    <path
       transform="translate(9.0155,33.1873)"
       d="m -0.412,-0.422 0.64,-0.005 0.04,0.041 C 0.11,0.046 -0.131,0.276 -0.487,0.457 M 0.494,0.434 C 0.379,0.313 0.247,0.187 0.044,0.036"
       id="path568"
       inkscape:connector-curvature="0"
       style="fill:none;stroke:currentColor;stroke-width:0.12;stroke-linecap:square;stroke-linejoin:miter" />
  </a>
  <g
     id="g574"
     style="color:#ffffff"
     transform="translate(-2.5845028,-2.7782181)">
    <path
       transform="translate(8.3555,30.9373)"
       style="fill:currentColor"
       d="m 0.11,-0.64899999 h 1.1 v 1.29799998 h -1.1 z"
       id="rect572" />
  </g>
  <a
     style="color:inherit"
     xlink:href="textedit:///home/paul/Projects/tsugaru/lilypond-shamisen/example.ly:45:8:9"
     id="a580"
     transform="translate(-2.5845028,-2.7782181)">
    <g
       aria-label="0"
       transform="translate(8.4655,31.5776)"
       style="font-weight:bold;font-size:1.74629998px;font-family:IPAexGothic;text-anchor:start;fill:currentColor"
       id="text578">
      <path
         d="m 0.55595097,-1.2892605 q 0.2302251,0 0.3538645,0.2131714 0.0980588,0.16883169 0.0980588,0.43657495 0,0.2651852 -0.0980588,0.43742768 -0.12193403,0.21061333 -0.3598333,0.21061333 -0.23704658,0 -0.35898061,-0.21061333 -0.09805884,-0.17224248 -0.09805884,-0.43913305 0,-0.37177088 0.17991665,-0.54145528 0.11425986,-0.1065857 0.2830916,-0.1065857 z m -0.005969,0.1253447 q -0.13642968,0 -0.21487675,0.1381351 -0.0801524,0.13984043 -0.0801524,0.38626655 0,0.24216269 0.0784471,0.38115043 0.0792998,0.13642969 0.21658212,0.13642969 0.16456831,0 0.24386807,-0.19270693 0.0520138,-0.12790283 0.0520138,-0.33340005 0,-0.24045732 -0.0801524,-0.37773969 -0.0810051,-0.1381351 -0.21572944,-0.1381351 z"
         style=""
         id="path1679" />
    </g>
  </a>
  <path
     d="m 5.8809972,29.035263 h 1.1"
     id="path582"
     inkscape:connector-curvature="0"
     style="fill:none;stroke:currentColor;stroke-width:0.12;stroke-linecap:square;stroke-linejoin:round" />
  <path
     d="m 22.420697,29.035263 h 1.1"
     id="path584"
     inkscape:connector-curvature="0"
     style="fill:none;stroke:currentColor;stroke-width:0.12;stroke-linecap:square;stroke-linejoin:round" />
  <a
     style="color:inherit"
     xlink:href="textedit:///home/paul/Projects/tsugaru/lilypond-shamisen/example.ly:48:11:12"
     id="a588"
     transform="translate(-2.5845028,-2.7782181)">
    <path
       transform="translate(23.1738,34.6873)"
       d="m -0.394,0.055 0.005,-0.348 h 0.761 l 0.03,0.023 C 0.371,0.116 0.197,0.391 -0.173,0.505 m 0.172,-1.075 v 0.26"
       id="path586"
       inkscape:connector-curvature="0"
       style="fill:none;stroke:currentColor;stroke-width:0.12;stroke-linecap:square;stroke-linejoin:miter" />
  </a>
  <path
     d="m 20.039297,30.835263 h 1.1 m -1.1,-0.3 h 1.1"
     id="path590"
     inkscape:connector-curvature="0"
     style="fill:none;stroke:currentColor;stroke-width:0.12;stroke-linecap:square;stroke-linejoin:round" />
  <a
     style="color:inherit"
     xlink:href="textedit:///home/paul/Projects/tsugaru/lilypond-shamisen/example.ly:48:21:22"
     id="a594"
     transform="translate(-2.5845028,-2.7782181)">
    <path
       transform="translate(25.5552,33.1873)"
       d="m -0.168,-0.552 c -0.077,0.331 -0.209,0.504 -0.34,0.636 M -0.25,-0.257 H 0.53 M 0.158,-0.262 C 0.186,0.065 0.086,0.342 -0.254,0.523"
       id="path592"
       inkscape:connector-curvature="0"
       style="fill:none;stroke:currentColor;stroke-width:0.12;stroke-linecap:square;stroke-linejoin:miter" />
  </a>
  <g
     id="g598"
     style="color:#ffffff"
     transform="translate(-2.5845028,-2.7782181)">
    <path
       transform="translate(24.8952,30.9373)"
       style="fill:currentColor"
       d="m 0.11,-0.64899999 h 1.1 v 1.29799998 h -1.1 z"
       id="rect596" />
  </g>
  <a
     style="color:inherit"
     xlink:href="textedit:///home/paul/Projects/tsugaru/lilypond-shamisen/example.ly:48:17:18"
     id="a604"
     transform="translate(-2.5845028,-2.7782181)">
    <g
       aria-label="0"
       transform="translate(25.0052,31.5776)"
       style="font-weight:bold;font-size:1.74629998px;font-family:IPAexGothic;text-anchor:start;fill:currentColor"
       id="text602">
      <path
         d="m 0.55595097,-1.2892605 q 0.2302251,0 0.3538645,0.2131714 0.0980588,0.16883169 0.0980588,0.43657495 0,0.2651852 -0.0980588,0.43742768 -0.12193403,0.21061333 -0.3598333,0.21061333 -0.23704658,0 -0.35898061,-0.21061333 -0.09805884,-0.17224248 -0.09805884,-0.43913305 0,-0.37177088 0.17991665,-0.54145528 0.11425986,-0.1065857 0.2830916,-0.1065857 z m -0.005969,0.1253447 q -0.13642968,0 -0.21487675,0.1381351 -0.0801524,0.13984043 -0.0801524,0.38626655 0,0.24216269 0.0784471,0.38115043 0.0792998,0.13642969 0.21658212,0.13642969 0.16456831,0 0.24386807,-0.19270693 0.0520138,-0.12790283 0.0520138,-0.33340005 0,-0.24045732 -0.0801524,-0.37773969 -0.0810051,-0.1381351 -0.21572944,-0.1381351 z"
         style=""
         id="path1683" />
    </g>
  </a>
  <g
     id="g608"
     style="color:#ffffff"
     transform="translate(-2.5845028,-2.7782181)">
    <path
       transform="translate(22.5138,32.4373)"
       style="fill:currentColor"
       d="m 0.11,-0.64899999 h 1.1 v 1.29799998 h -1.1 z"
       id="rect606" />
  </g>
  <a
     style="color:inherit"
     xlink:href="textedit:///home/paul/Projects/tsugaru/lilypond-shamisen/example.ly:48:8:9"
     id="a614"
     transform="translate(-2.5845028,-2.7782181)">
    <g
       aria-label="3"
       transform="translate(22.6238,33.0776)"
       style="font-weight:bold;font-size:1.74629998px;font-family:IPAexGothic;text-anchor:start;fill:currentColor"
       id="text612">
      <path
         d="m 0.64974638,-0.65997861 q 0.30696679,0.0554246 0.30696679,0.31123022 0,0.1534834 -0.10317495,0.25154224 -0.11425986,0.10573301 -0.32316782,0.10573301 -0.31293559,0 -0.45192333,-0.24898418 l 0.12790283,-0.0682148 q 0.0963535,0.1884435 0.32231513,0.1884435 0.13301895,0 0.2063499,-0.0682148 0.0699202,-0.0648041 0.0699202,-0.16371563 0,-0.11681792 -0.10488032,-0.18759082 -0.0955008,-0.0639514 -0.25154224,-0.0639514 h -0.0767417 v -0.12449209 h 0.0801524 q 0.15689413,0 0.23960463,-0.059688 0.0886793,-0.0630987 0.0886793,-0.16968442 0,-0.11596524 -0.0997642,-0.17138984 -0.0639514,-0.038371 -0.1534834,-0.038371 -0.18929619,0 -0.28053354,0.19100156 L 0.11852329,-1.0377183 q 0.12619746,-0.2515422 0.41014174,-0.2515422 0.17991665,0 0.29161846,0.090385 0.1117018,0.088679 0.1117018,0.23448856 0,0.13813505 -0.10829106,0.22596166 -0.0699202,0.0562772 -0.17394785,0.0716256 z"
         style=""
         id="path1687" />
    </g>
  </a>
  <a
     style="color:inherit"
     xlink:href="textedit:///home/paul/Projects/tsugaru/lilypond-shamisen/example.ly:48:28:29"
     id="a618"
     transform="translate(-2.5845028,-2.7782181)">
    <path
       transform="translate(28.8985,32.4373)"
       style="fill:currentColor;stroke:currentColor;stroke-width:0;stroke-linecap:round;stroke-linejoin:round"
       d="M 0.44999999,0 A 0.44999999,0.44999999 0 0 1 0,0.44999999 0.44999999,0.44999999 0 0 1 -0.44999999,0 0.44999999,0.44999999 0 0 1 0,-0.44999999 0.44999999,0.44999999 0 0 1 0.44999999,0 Z"
       id="circle616" />
  </a>
  <a
     style="color:inherit"
     xlink:href="textedit:///home/paul/Projects/tsugaru/lilypond-shamisen/example.ly:50:7:8"
     id="a624"
     transform="translate(-2.5845028,-2.7782181)">
    <g
       aria-label="Ⅲ"
       transform="translate(33.9694,28.4865)"
       style="font-size:1.55569994px;font-family:IPAexGothic;text-anchor:start;fill:currentColor"
       id="text622">
      <path
         d="m 0.31448231,-1.1682942 h 0.13673144 v 1.08929381 H 0.31448231 Z m 0.39500194,0 h 0.13673144 v 1.08929381 H 0.70948425 Z m 0.39576155,0 h 0.1367315 v 1.08929381 H 1.1052458 Z"
         style=""
         id="path1691" />
    </g>
  </a>
  <g
     id="g628"
     style="color:#ffffff"
     transform="translate(-2.5845028,-2.7782181)">
    <path
       transform="translate(33.9694,30.9373)"
       style="fill:currentColor"
       d="m 0.11,-0.63840002 h 1.1 V 0.6383 h -1.1 z"
       id="rect626" />
  </g>
  <a
     style="color:inherit"
     xlink:href="textedit:///home/paul/Projects/tsugaru/lilypond-shamisen/example.ly:50:4:5"
     id="a634"
     transform="translate(-2.5845028,-2.7782181)">
    <g
       aria-label="4"
       transform="translate(34.0794,31.5756)"
       style="font-weight:bold;font-size:1.74629998px;font-family:IPAexGothic;text-anchor:start;fill:currentColor"
       id="text632">
      <path
         d="M 1.0402764,-0.31634633 H 0.83477914 v 0.29929262 H 0.69493871 V -0.31634633 H 0.05371919 V -0.45618676 L 0.67021083,-1.2764703 h 0.16456831 v 0.83051576 H 1.0402764 Z M 0.70346557,-1.1212815 h -0.005116 q -0.0767417,0.12363942 -0.15177803,0.225109 l -0.33936884,0.45021796 h 0.48773612 v -0.41184711 q 0,-0.09209 0.008527,-0.26347985 z"
         style=""
         id="path1695" />
    </g>
  </a>
  <g
     id="g638"
     style="color:#ffffff"
     transform="translate(-2.5845028,-2.7782181)">
    <path
       transform="translate(20.1324,32.4373)"
       style="fill:currentColor"
       d="m 0.11,-0.64899999 h 1.1 v 1.29799998 h -1.1 z"
       id="rect636" />
  </g>
  <a
     style="color:inherit"
     xlink:href="textedit:///home/paul/Projects/tsugaru/lilypond-shamisen/example.ly:48:4:5"
     id="a644"
     transform="translate(-2.5845028,-2.7782181)">
    <g
       aria-label="0"
       transform="translate(20.2424,33.0776)"
       style="font-weight:bold;font-size:1.74629998px;font-family:IPAexGothic;text-anchor:start;fill:currentColor"
       id="text642">
      <path
         d="m 0.55595097,-1.2892605 q 0.2302251,0 0.3538645,0.2131714 0.0980588,0.16883169 0.0980588,0.43657495 0,0.2651852 -0.0980588,0.43742768 -0.12193403,0.21061333 -0.3598333,0.21061333 -0.23704658,0 -0.35898061,-0.21061333 -0.09805884,-0.17224248 -0.09805884,-0.43913305 0,-0.37177088 0.17991665,-0.54145528 0.11425986,-0.1065857 0.2830916,-0.1065857 z m -0.005969,0.1253447 q -0.13642968,0 -0.21487675,0.1381351 -0.0801524,0.13984043 -0.0801524,0.38626655 0,0.24216269 0.0784471,0.38115043 0.0792998,0.13642969 0.21658212,0.13642969 0.16456831,0 0.24386807,-0.19270693 0.0520138,-0.12790283 0.0520138,-0.33340005 0,-0.24045732 -0.0801524,-0.37773969 -0.0810051,-0.1381351 -0.21572944,-0.1381351 z"
         style=""
         id="path1699" />
    </g>
  </a>
  <path
     d="m 17.657897,30.835263 h 1.1 m -1.1,-0.3 h 1.1"
     id="path646"
     inkscape:connector-curvature="0"
     style="fill:none;stroke:currentColor;stroke-width:0.12;stroke-linecap:square;stroke-linejoin:round" />
</svg>
