<?xml version="1.0" encoding="UTF-8" standalone="no"?>
<svg
   xmlns:dc="http://purl.org/dc/elements/1.1/"
   xmlns:cc="http://creativecommons.org/ns#"
   xmlns:rdf="http://www.w3.org/1999/02/22-rdf-syntax-ns#"
   xmlns:svg="http://www.w3.org/2000/svg"
   xmlns="http://www.w3.org/2000/svg"
   xmlns:xlink="http://www.w3.org/1999/xlink"
   xmlns:sodipodi="http://sodipodi.sourceforge.net/DTD/sodipodi-0.dtd"
   xmlns:inkscape="http://www.inkscape.org/namespaces/inkscape"
   version="1.2"
   width="192.7347mm"
   height="91.416748mm"
   viewBox="0 0 68.54793 32.513244"
   id="svg648"
   sodipodi:docname="example.svg"
   inkscape:version="0.92.3 (2405546, 2018-03-11)">
  <metadata
     id="metadata654">
    <rdf:RDF>
      <cc:Work
         rdf:about="">
        <dc:format>image/svg+xml</dc:format>
        <dc:type
           rdf:resource="http://purl.org/dc/dcmitype/StillImage" />
      </cc:Work>
    </rdf:RDF>
  </metadata>
  <defs
     id="defs652" />
  <sodipodi:namedview
     pagecolor="#ffffff"
     bordercolor="#666666"
     borderopacity="1"
     objecttolerance="10"
     gridtolerance="10"
     guidetolerance="10"
     inkscape:pageopacity="0"
     inkscape:pageshadow="2"
     inkscape:window-width="2127"
     inkscape:window-height="1278"
     id="namedview650"
     showgrid="false"
     inkscape:zoom="1.6819304"
     inkscape:cx="378.89824"
     inkscape:cy="99.16223"
     inkscape:window-x="0"
     inkscape:window-y="27"
     inkscape:window-maximized="0"
     inkscape:current-layer="svg648" />
  <!-- Page: 1/1 -->
  <g
     style="font-size:2.20029998px;font-family:IPAexGothic;text-anchor:start;fill:currentColor"
     id="text4" />
  <g
     aria-label="例"
     style="font-weight:bold;font-size:3.49230003px;font-family:IPAexGothic;text-anchor:start;fill:currentColor"
     id="text8">
    <path
       d="m 34.578992,0.87307506 h 0.480873 l 0.139829,0.1040187 Q 35.126369,1.7342135 34.902984,2.2219077 34.660843,2.7641692 34.156096,3.1563708 L 33.983868,2.9687961 Q 34.481794,2.6175198 34.739283,2.0258069 34.536361,1.8109486 34.316387,1.6523627 34.193611,1.8876837 34.065719,2.0565009 L 33.907133,1.8689262 q 0.37856,-0.501336 0.509862,-1.41874685 H 34.053783 V 0.23020537 h 1.255045 v 0.21997398 h -0.659922 l -0.0034,0.0204627 q -0.02899,0.23873144 -0.0665,0.40243301 z M 34.52613,1.0862281 q -0.06139,0.2216792 -0.129597,0.387086 0.252373,0.1602911 0.426306,0.3291084 0.01194,-0.037515 0.01364,-0.046041 0.0972,-0.3001195 0.122776,-0.6701533 z M 33.777536,0.81680264 V 3.142729 H 33.54392 V 1.3727059 Q 33.424555,1.6182582 33.277905,1.8262956 L 33.150014,1.6097321 Q 33.549036,0.97197809 33.770715,4.8428774e-8 L 34.007742,0.05968291 Q 33.893491,0.48769429 33.777536,0.81680264 Z M 35.402615,0.4331271 h 0.233616 V 2.375378 H 35.402615 Z M 35.97216,0.12277622 h 0.233616 V 2.8391991 q 0,0.2728359 -0.300119,0.2728359 -0.204627,0 -0.412665,-0.017052 l -0.05457,-0.2557836 q 0.2285,0.03581 0.426306,0.03581 0.107429,0 0.107429,-0.105724 z"
       style=""
       id="path1481" />
  </g>
  <g
     aria-label="Example"
     style="font-weight:bold;font-size:2.46950006px;font-family:IPAexGothic;text-anchor:start;fill:currentColor"
     id="text12">
    <path
       d="M 31.232893,6.3747657 H 30.099431 V 4.6106648 h 1.103317 v 0.1881065 h -0.888683 v 0.5775832 h 0.787395 v 0.1772542 h -0.787395 v 0.6306389 h 0.918828 z"
       style=""
       id="path1484" />
    <path
       d="M 32.511052,6.3747657 H 32.267478 L 31.931057,5.882795 31.600665,6.3747657 h -0.244779 l 0.459413,-0.6221983 -0.44012,-0.6077285 h 0.247191 l 0.320745,0.4762952 0.321952,-0.4762952 h 0.233927 l -0.441327,0.6053169 z"
       style=""
       id="path1486" />
    <path
       d="m 33.759066,6.3747657 h -0.186901 q -0.04341,-0.092847 -0.05426,-0.1905181 h -0.0084 q -0.139874,0.2242808 -0.41721,0.2242808 -0.190518,0 -0.311099,-0.1205811 -0.106112,-0.1061113 -0.106112,-0.2592492 0,-0.3810362 0.657167,-0.4003291 l 0.165196,-0.00482 v -0.063908 q 0,-0.1290217 -0.07355,-0.2025761 -0.07717,-0.077172 -0.197753,-0.077172 -0.2074,0 -0.311099,0.2013704 l -0.183284,-0.084407 q 0.171225,-0.2821597 0.499206,-0.2821597 0.226692,0 0.348479,0.1266102 0.113346,0.1133462 0.113346,0.3207456 v 0.4521789 q 0,0.2303099 0.06632,0.3605374 z m -0.256838,-0.6029053 -0.13505,0.00241 q -0.477501,0.010852 -0.477501,0.2568377 0,0.086818 0.05667,0.1434914 0.06994,0.068731 0.183283,0.068731 0.157961,0 0.273719,-0.1157578 0.09888,-0.1024939 0.09888,-0.2471911 z"
       style=""
       id="path1488" />
    <path
       d="m 35.836678,6.3747657 h -0.212223 v -0.770513 q 0,-0.3123049 -0.241162,-0.3123049 -0.114552,0 -0.209811,0.1061113 -0.06753,0.075966 -0.09405,0.1893123 V 6.3747657 H 34.867206 V 5.6018411 q 0,-0.3098933 -0.227898,-0.3098933 -0.120581,0 -0.212223,0.1061113 -0.09888,0.1109346 -0.09888,0.2134285 V 6.3747657 H 34.115986 V 5.1448389 h 0.197753 v 0.2122227 q 0.121787,-0.2375447 0.367772,-0.2375447 0.268896,0 0.358126,0.2580435 0.133845,-0.2580435 0.384653,-0.2580435 0.202577,0 0.315923,0.1434914 0.09647,0.1181695 0.09647,0.3364212 z"
       style=""
       id="path1490" />
    <path
       d="m 36.464905,5.3618848 q 0.173637,-0.2520144 0.436503,-0.2520144 0.217046,0 0.372596,0.1555496 0.180871,0.1808716 0.180871,0.4992055 0,0.3098934 -0.17846,0.490765 -0.155549,0.1555495 -0.377418,0.1555495 -0.243574,0 -0.422034,-0.203782 V 6.8679422 H 36.267152 V 5.1448389 h 0.197753 z m 0.01206,0.2845713 v 0.254426 q 0,0.1519322 0.157961,0.2664842 0.106112,0.075966 0.227898,0.075966 0.139874,0 0.238751,-0.098876 0.131433,-0.1302276 0.131433,-0.3750071 0,-0.2194575 -0.108523,-0.3581258 -0.108523,-0.1314333 -0.264072,-0.1314333 -0.171225,0 -0.294218,0.1603728 -0.08923,0.1157578 -0.08923,0.2061936 z"
       style=""
       id="path1492" />
    <path
       d="M 38.020401,6.3747657 H 37.808178 V 4.5491685 h 0.212223 z"
       style=""
       id="path1494" />
    <path
       d="m 38.583514,5.7839185 q 0.01085,0.2134285 0.133845,0.3364212 0.125404,0.1254043 0.303864,0.1254043 0.235134,0 0.372596,-0.2194576 l 0.138668,0.091642 q -0.174842,0.293012 -0.536586,0.293012 -0.273719,0 -0.449767,-0.1748425 -0.177254,-0.17846 -0.177254,-0.4702661 0,-0.3098934 0.185695,-0.4955882 0.165196,-0.165196 0.412387,-0.165196 0.232721,0 0.389477,0.1531379 0.176048,0.17846 0.176048,0.4762952 v 0.049438 z M 39.314235,5.628369 Q 39.296148,5.4607613 39.196066,5.3642964 39.09719,5.26542 38.962139,5.26542 q -0.156756,0 -0.26769,0.1338449 -0.07597,0.090436 -0.09888,0.2291041 z"
       style=""
       id="path1496" />
  </g>
  <g
     aria-label="百合ヶ池"
     style="font-size:2.20029998px;font-family:IPAexGothic;text-anchor:start;fill:currentColor"
     id="text16">
    <path
       d="m 60.818413,8.7192289 h 0.737015 V 10.052516 H 61.389976 V 9.9096256 H 60.301644 V 10.052516 H 60.136191 V 8.7192289 h 0.51677 q 0.0376,-0.1396675 0.06231,-0.3341276 H 59.911649 V 8.240062 h 1.868321 v 0.1450393 h -0.882054 q -0.03438,0.179419 -0.07091,0.302971 z m 0.571563,0.1407418 h -1.088332 v 0.3695817 h 1.088332 z m -1.088332,0.5060261 v 0.4050357 h 1.088332 V 9.3659968 Z"
       style=""
       id="path1499" />
    <path
       d="m 62.576075,8.8030294 h 0.970152 v 0.1407418 h -0.99916 V 8.8245167 Q 62.384838,8.9437712 62.150626,9.0555052 L 62.047487,8.9265814 q 0.588752,-0.2342116 0.892798,-0.797179 h 0.185865 q 0.309417,0.4609027 0.926103,0.7370145 L 63.951262,9.0093075 Q 63.36251,8.7246007 63.038052,8.272293 62.857558,8.5903051 62.576075,8.8030294 Z m 1.128083,0.3781765 V 10.053591 H 63.540855 V 9.9321872 H 62.553513 V 10.053591 H 62.388061 V 9.1812059 Z m -1.150645,0.1364444 v 0.4780926 h 0.987342 V 9.3176503 Z"
       style=""
       id="path1501" />
    <path
       d="m 65.949582,9.0297204 h -0.396441 q -0.02256,0.6951143 -0.569414,0.9572595 L 64.847283,9.8612791 q 0.289004,-0.1192545 0.417928,-0.3405737 0.10099,-0.1729728 0.113883,-0.490985 h -0.413631 q -0.128924,0.247104 -0.296525,0.402887 L 64.541089,9.3219478 Q 64.84406,9.0383154 64.967612,8.5355124 l 0.161155,0.036528 q -0.0376,0.1611547 -0.0924,0.3018966 h 0.913211 z"
       style=""
       id="path1503" />
    <path
       d="M 67.341959,8.9083172 V 9.69905 q 0,0.1009903 0.06339,0.1214033 0.06446,0.01719 0.314789,0.01719 0.344871,0 0.431895,-0.02471 0.06231,-0.016115 0.07843,-0.090247 0.01397,-0.060164 0.02471,-0.2223936 l 0.157932,0.052644 q -0.02256,0.258922 -0.06124,0.3330532 -0.03545,0.067685 -0.153634,0.087024 -0.11066,0.022562 -0.453382,0.022562 -0.386772,0 -0.477019,-0.044049 -0.08165,-0.038677 -0.08165,-0.1600804 V 8.9545149 l -0.220245,0.064462 -0.03331,-0.1450393 0.253551,-0.073057 V 8.240062 h 0.155783 v 0.5146209 l 0.262145,-0.075206 V 8.0950227 h 0.155783 v 0.5404057 l 0.409333,-0.1181802 0.09025,0.063388 v 0.673627 q 0,0.1085109 -0.0462,0.1450393 -0.03438,0.029008 -0.12785,0.029008 -0.0795,0 -0.208426,-0.011818 l -0.02686,-0.1536342 q 0.131073,0.02471 0.189089,0.02471 0.06876,0 0.06876,-0.079503 V 8.6816261 L 67.759887,8.7858395 V 9.5583081 H 67.604104 V 8.8320372 Z M 66.869238,8.5741896 Q 66.731719,8.4098117 66.556598,8.2776648 L 66.659737,8.160559 q 0.15256,0.1042134 0.316937,0.2814837 z m -0.08165,0.5038773 Q 66.631803,8.8943504 66.466351,8.7793933 l 0.105288,-0.1214032 q 0.19446,0.1396675 0.321235,0.2857811 z m -0.292227,0.820815 Q 66.699488,9.631365 66.871387,9.2392217 l 0.116031,0.1267751 q -0.172973,0.3899945 -0.363135,0.6714782 z"
       style=""
       id="path1505" />
  </g>
  <g
     aria-label="2/4 二上り"
     style="font-size:2.20029998px;font-family:IPAexGothic;text-anchor:start;fill:currentColor"
     id="text20">
    <path
       d="M 2.2301788,13.377395 H 1.1257314 v -0.182642 q 0.1299982,-0.302971 0.4974311,-0.553299 l 0.061239,-0.04082 q 0.1880139,-0.128924 0.247104,-0.200907 0.067685,-0.08488 0.067685,-0.184791 0,-0.112808 -0.079503,-0.192311 -0.088098,-0.0881 -0.2309885,-0.0881 -0.2868556,0 -0.3760279,0.320161 l -0.1697497,-0.06124 q 0.1224777,-0.419002 0.5565212,-0.419002 0.2374347,0 0.3781766,0.140742 0.123552,0.126775 0.123552,0.306194 0,0.133221 -0.079503,0.241732 -0.073057,0.105288 -0.3362763,0.269665 l -0.046198,0.02793 Q 1.403992,12.968061 1.3083735,13.203347 h 0.9218053 z"
       style=""
       id="path1508" />
    <path
       d="m 3.292726,11.779814 -0.7284196,1.923113 -0.103139,-0.0419 0.7262708,-1.923114 z"
       style=""
       id="path1510" />
    <path
       d="M 4.7689039,13.000292 H 4.5099818 v 0.377103 H 4.3337859 V 13.000292 H 3.5258633 v -0.176195 l 0.776766,-1.03354 h 0.2073525 v 1.046432 h 0.2589221 z m -0.4243743,-1.0142 h -0.00645 q -0.096693,0.155783 -0.191237,0.283632 L 3.719249,12.836989 H 4.3337859 V 12.31807 q 0,-0.116031 0.010744,-0.331978 z"
       style=""
       id="path1512" />
    <path
       d="m 5.7798813,11.909812 h 1.5159293 v 0.169749 H 5.7798813 Z M 5.614429,13.103431 H 7.4601885 V 13.27533 H 5.614429 Z"
       style=""
       id="path1514" />
    <path
       d="m 8.7590963,12.241791 h 0.7617249 v 0.155783 H 8.7590963 v 0.810071 h 0.9389952 v 0.155783 H 7.772829 v -0.155783 h 0.8186663 v -1.544937 h 0.167601 z"
       style=""
       id="path1516" />
    <path
       d="m 10.828324,12.393276 q -0.128924,0.217022 -0.174047,0.304045 -0.05157,0.09992 -0.07198,0.199832 l -0.153634,-0.01504 q -0.07091,-0.215947 -0.07091,-0.545777 0,-0.224543 0.05264,-0.612388 l 0.178344,0.02256 q -0.06124,0.435118 -0.06124,0.615611 0,0.138594 0.0086,0.259997 0.02793,-0.05264 0.09777,-0.174047 0.05909,-0.102065 0.09132,-0.162229 z m -0.134296,0.961557 q 0.359913,-0.128924 0.495283,-0.363136 0.105287,-0.181567 0.105287,-0.615611 0,-0.308343 -0.03868,-0.671478 h 0.18694 q 0.03223,0.389995 0.03223,0.671478 0,0.501729 -0.138593,0.732717 -0.15256,0.254625 -0.51677,0.388921 z"
       style=""
       id="path1518" />
  </g>
  <path
     style="stroke:currentColor;stroke-width:0.0754;stroke-linecap:round;stroke-linejoin:round"
     d="m 6.344697,19.159082 h 62.165"
     id="line22" />
  <path
     style="stroke:currentColor;stroke-width:0.0754;stroke-linecap:round;stroke-linejoin:round"
     d="m 6.344697,17.659082 h 62.165"
     id="line24" />
  <path
     style="stroke:currentColor;stroke-width:0.0754;stroke-linecap:round;stroke-linejoin:round"
     d="m 6.344697,16.159082 h 62.165"
     id="line26" />
  <path
     style="fill:currentColor"
     d="m 39.390697,16.159082 h 0.1432 v 3 h -0.1432 z"
     id="rect28" />
  <path
     style="fill:currentColor"
     d="m 23.330498,16.159082 h 0.1432 v 3 h -0.1432 z"
     id="rect30" />
  <path
     style="fill:currentColor"
     d="m 53.748997,16.159082 h 0.1432 v 3 h -0.1432 z"
     id="rect32" />
  <path
     style="fill:currentColor"
     d="m 68.404198,16.159082 h 0.1432 v 3 h -0.1432 z"
     id="rect34" />
  <g
     id="g38"
     style="color:#ffffff"
     transform="translate(-2.5845028,-2.7782181)">
    <path
       transform="translate(49.6719,20.4373)"
       style="fill:currentColor"
       d="m 0.11,-0.64899999 h 1.1 v 1.29799998 h -1.1 z"
       id="rect36" />
  </g>
  <a
     style="color:inherit"
     xlink:href="textedit:///home/paul/Projects/tsugaru/lilypond-shamisen/example.ly:40:12:13"
     id="a44"
     transform="translate(-2.5845028,-2.7782181)">
    <g
       aria-label="0"
       transform="translate(49.7819,21.0776)"
       style="font-weight:bold;font-size:1.74629998px;font-family:IPAexGothic;text-anchor:start;fill:currentColor"
       id="text42">
      <path
         d="m 0.55595097,-1.2892605 q 0.2302251,0 0.3538645,0.2131714 0.0980588,0.16883169 0.0980588,0.43657495 0,0.2651852 -0.0980588,0.43742768 -0.12193403,0.21061333 -0.3598333,0.21061333 -0.23704658,0 -0.35898061,-0.21061333 -0.09805884,-0.17224248 -0.09805884,-0.43913305 0,-0.37177088 0.17991665,-0.54145528 0.11425986,-0.1065857 0.2830916,-0.1065857 z m -0.005969,0.1253447 q -0.13642968,0 -0.21487675,0.1381351 -0.0801524,0.13984043 -0.0801524,0.38626655 0,0.24216269 0.0784471,0.38115043 0.0792998,0.13642969 0.21658212,0.13642969 0.16456831,0 0.24386807,-0.19270693 0.0520138,-0.12790283 0.0520138,-0.33340005 0,-0.24045732 -0.0801524,-0.37773969 -0.0810051,-0.1381351 -0.21572944,-0.1381351 z"
         style=""
         id="path1529" />
    </g>
  </a>
  <path
     d="m 48.754197,16.909082 c 0,-0.128 0.1,-0.228 0.228,-0.228 0.128,0 0.228,0.1 0.228,0.228 0,0.128 -0.1,0.228 -0.228,0.228 -0.128,0 -0.228,-0.1 -0.228,-0.228 z"
     id="path46"
     inkscape:connector-curvature="0"
     style="fill:currentColor;stroke-width:0.004" />
  <path
     d="m 47.197397,18.535263 h 1.1"
     id="path48"
     inkscape:connector-curvature="0"
     style="fill:none;stroke:currentColor;stroke-width:0.12;stroke-linecap:square;stroke-linejoin:round" />
  <g
     id="g52"
     style="color:#ffffff"
     transform="translate(-2.5845028,-2.7782181)">
    <path
       transform="translate(53.9386,21.9373)"
       style="fill:currentColor"
       d="m 0.11,-0.64899999 h 1.1 v 1.29799998 h -1.1 z"
       id="rect50" />
  </g>
  <a
     style="color:inherit"
     xlink:href="textedit:///home/paul/Projects/tsugaru/lilypond-shamisen/example.ly:40:16:17"
     id="a58"
     transform="translate(-2.5845028,-2.7782181)">
    <g
       aria-label="3"
       transform="translate(54.0486,22.5776)"
       style="font-weight:bold;font-size:1.74629998px;font-family:IPAexGothic;text-anchor:start;fill:currentColor"
       id="text56">
      <path
         d="m 0.64974638,-0.65997861 q 0.30696679,0.0554246 0.30696679,0.31123022 0,0.1534834 -0.10317495,0.25154224 -0.11425986,0.10573301 -0.32316782,0.10573301 -0.31293559,0 -0.45192333,-0.24898418 l 0.12790283,-0.0682148 q 0.0963535,0.1884435 0.32231513,0.1884435 0.13301895,0 0.2063499,-0.0682148 0.0699202,-0.0648041 0.0699202,-0.16371563 0,-0.11681792 -0.10488032,-0.18759082 -0.0955008,-0.0639514 -0.25154224,-0.0639514 h -0.0767417 v -0.12449209 h 0.0801524 q 0.15689413,0 0.23960463,-0.059688 0.0886793,-0.0630987 0.0886793,-0.16968442 0,-0.11596524 -0.0997642,-0.17138984 -0.0639514,-0.038371 -0.1534834,-0.038371 -0.18929619,0 -0.28053354,0.19100156 L 0.11852329,-1.0377183 q 0.12619746,-0.2515422 0.41014174,-0.2515422 0.17991665,0 0.29161846,0.090385 0.1117018,0.088679 0.1117018,0.23448856 0,0.13813505 -0.10829106,0.22596166 -0.0699202,0.0562772 -0.17394785,0.0716256 z"
         style=""
         id="path1533" />
    </g>
  </a>
  <path
     d="m 51.464097,20.335263 h 1.1 m -1.1,-0.3 h 1.1"
     id="path60"
     inkscape:connector-curvature="0"
     style="fill:none;stroke:currentColor;stroke-width:0.12;stroke-linecap:square;stroke-linejoin:round" />
  <a
     style="color:inherit"
     xlink:href="textedit:///home/paul/Projects/tsugaru/lilypond-shamisen/example.ly:42:7:8"
     id="a66"
     transform="translate(-2.5845028,-2.7782181)">
    <g
       aria-label="Ⅲ"
       transform="translate(57.3632,18.1496)"
       style="font-size:1.55569994px;font-family:IPAexGothic;text-anchor:start;fill:currentColor"
       id="text64">
      <path
         d="m 0.31448231,-1.1682942 h 0.13673144 v 1.08929381 H 0.31448231 Z m 0.39500194,0 h 0.13673144 v 1.08929381 H 0.70948425 Z m 0.39576155,0 h 0.1367315 v 1.08929381 H 1.1052458 Z"
         style=""
         id="path1536" />
    </g>
  </a>
  <g
     id="g70"
     style="color:#ffffff"
     transform="translate(-2.5845028,-2.7782181)">
    <path
       transform="translate(57.3632,21.9373)"
       style="fill:currentColor"
       d="m 0.11,-0.63840002 h 1.1 V 0.6383 h -1.1 z"
       id="rect68" />
  </g>
  <a
     style="color:inherit"
     xlink:href="textedit:///home/paul/Projects/tsugaru/lilypond-shamisen/example.ly:42:4:5"
     id="a76"
     transform="translate(-2.5845028,-2.7782181)">
    <g
       aria-label="4"
       transform="translate(57.4732,22.5756)"
       style="font-weight:bold;font-size:1.74629998px;font-family:IPAexGothic;text-anchor:start;fill:currentColor"
       id="text74">
      <path
         d="M 1.0402764,-0.31634633 H 0.83477914 v 0.29929262 H 0.69493871 V -0.31634633 H 0.05371919 V -0.45618676 L 0.67021083,-1.2764703 h 0.16456831 v 0.83051576 H 1.0402764 Z M 0.70346557,-1.1212815 h -0.005116 q -0.0767417,0.12363942 -0.15177803,0.225109 l -0.33936884,0.45021796 h 0.48773612 v -0.41184711 q 0,-0.09209 0.008527,-0.26347985 z"
         style=""
         id="path1540" />
    </g>
  </a>
  <path
     d="m 56.445497,18.409082 c 0,-0.128 0.1,-0.228 0.228,-0.228 0.128,0 0.228,0.1 0.228,0.228 0,0.128 -0.1,0.228 -0.228,0.228 -0.128,0 -0.228,-0.1 -0.228,-0.228 z"
     id="path78"
     inkscape:connector-curvature="0"
     style="fill:currentColor;stroke-width:0.004" />
  <path
     d="m 54.888697,20.020859 h 1.1"
     id="path80"
     inkscape:connector-curvature="0"
     style="fill:none;stroke:currentColor;stroke-width:0.12;stroke-linecap:square;stroke-linejoin:round" />
  <g
     id="g84"
     style="color:#ffffff"
     transform="translate(-2.5845028,-2.7782181)">
    <path
       transform="translate(43.0119,20.4373)"
       style="fill:currentColor"
       d="m 0.11,-0.64899999 h 1.1 v 1.29799998 h -1.1 z"
       id="rect82" />
  </g>
  <a
     style="color:inherit"
     xlink:href="textedit:///home/paul/Projects/tsugaru/lilypond-shamisen/example.ly:40:4:5"
     id="a90"
     transform="translate(-2.5845028,-2.7782181)">
    <g
       aria-label="0"
       transform="translate(43.1219,21.0776)"
       style="font-weight:bold;font-size:1.74629998px;font-family:IPAexGothic;text-anchor:start;fill:currentColor"
       id="text88">
      <path
         d="m 0.55595097,-1.2892605 q 0.2302251,0 0.3538645,0.2131714 0.0980588,0.16883169 0.0980588,0.43657495 0,0.2651852 -0.0980588,0.43742768 -0.12193403,0.21061333 -0.3598333,0.21061333 -0.23704658,0 -0.35898061,-0.21061333 -0.09805884,-0.17224248 -0.09805884,-0.43913305 0,-0.37177088 0.17991665,-0.54145528 0.11425986,-0.1065857 0.2830916,-0.1065857 z m -0.005969,0.1253447 q -0.13642968,0 -0.21487675,0.1381351 -0.0801524,0.13984043 -0.0801524,0.38626655 0,0.24216269 0.0784471,0.38115043 0.0792998,0.13642969 0.21658212,0.13642969 0.16456831,0 0.24386807,-0.19270693 0.0520138,-0.12790283 0.0520138,-0.33340005 0,-0.24045732 -0.0801524,-0.37773969 -0.0810051,-0.1381351 -0.21572944,-0.1381351 z"
         style=""
         id="path1544" />
    </g>
  </a>
  <path
     d="m 42.094197,16.909082 c 0,-0.128 0.1,-0.228 0.228,-0.228 0.128,0 0.228,0.1 0.228,0.228 0,0.128 -0.1,0.228 -0.228,0.228 -0.128,0 -0.228,-0.1 -0.228,-0.228 z"
     id="path92"
     inkscape:connector-curvature="0"
     style="fill:currentColor;stroke-width:0.004" />
  <path
     d="m 40.537397,18.535263 h 1.1"
     id="path94"
     inkscape:connector-curvature="0"
     style="fill:none;stroke:currentColor;stroke-width:0.12;stroke-linecap:square;stroke-linejoin:round" />
  <g
     id="g98"
     style="color:#ffffff"
     transform="translate(-2.5845028,-2.7782181)">
    <path
       transform="translate(47.2786,21.9373)"
       style="fill:currentColor"
       d="m 0.11,-0.63840002 h 1.1 V 0.6383 h -1.1 z"
       id="rect96" />
  </g>
  <a
     style="color:inherit"
     xlink:href="textedit:///home/paul/Projects/tsugaru/lilypond-shamisen/example.ly:40:8:9"
     id="a104"
     transform="translate(-2.5845028,-2.7782181)">
    <g
       aria-label="4"
       transform="translate(47.3886,22.5756)"
       style="font-weight:bold;font-size:1.74629998px;font-family:IPAexGothic;text-anchor:start;fill:currentColor"
       id="text102">
      <path
         d="M 1.0402764,-0.31634633 H 0.83477914 v 0.29929262 H 0.69493871 V -0.31634633 H 0.05371919 V -0.45618676 L 0.67021083,-1.2764703 h 0.16456831 v 0.83051576 H 1.0402764 Z M 0.70346557,-1.1212815 h -0.005116 q -0.0767417,0.12363942 -0.15177803,0.225109 l -0.33936884,0.45021796 h 0.48773612 v -0.41184711 q 0,-0.09209 0.008527,-0.26347985 z"
         style=""
         id="path1548" />
    </g>
  </a>
  <path
     d="m 44.804097,20.320859 h 1.1 m -1.1,-0.3 h 1.1"
     id="path106"
     inkscape:connector-curvature="0"
     style="fill:none;stroke:currentColor;stroke-width:0.12;stroke-linecap:square;stroke-linejoin:round" />
  <g
     id="g110"
     style="color:#ffffff"
     transform="translate(-2.5845028,-2.7782181)">
    <path
       transform="translate(66.0787,20.4373)"
       style="fill:currentColor"
       d="m 0.11,-0.64899999 h 1.1 v 1.29799998 h -1.1 z"
       id="rect108" />
  </g>
  <a
     style="color:inherit"
     xlink:href="textedit:///home/paul/Projects/tsugaru/lilypond-shamisen/example.ly:43:26:27"
     id="a116"
     transform="translate(-2.5845028,-2.7782181)">
    <g
       aria-label="3"
       transform="translate(66.1887,21.0776)"
       style="font-weight:bold;font-size:1.74629998px;font-family:IPAexGothic;text-anchor:start;fill:currentColor"
       id="text114">
      <path
         d="m 0.64974638,-0.65997861 q 0.30696679,0.0554246 0.30696679,0.31123022 0,0.1534834 -0.10317495,0.25154224 -0.11425986,0.10573301 -0.32316782,0.10573301 -0.31293559,0 -0.45192333,-0.24898418 l 0.12790283,-0.0682148 q 0.0963535,0.1884435 0.32231513,0.1884435 0.13301895,0 0.2063499,-0.0682148 0.0699202,-0.0648041 0.0699202,-0.16371563 0,-0.11681792 -0.10488032,-0.18759082 -0.0955008,-0.0639514 -0.25154224,-0.0639514 h -0.0767417 v -0.12449209 h 0.0801524 q 0.15689413,0 0.23960463,-0.059688 0.0886793,-0.0630987 0.0886793,-0.16968442 0,-0.11596524 -0.0997642,-0.17138984 -0.0639514,-0.038371 -0.1534834,-0.038371 -0.18929619,0 -0.28053354,0.19100156 L 0.11852329,-1.0377183 q 0.12619746,-0.2515422 0.41014174,-0.2515422 0.17991665,0 0.29161846,0.090385 0.1117018,0.088679 0.1117018,0.23448856 0,0.13813505 -0.10829106,0.22596166 -0.0699202,0.0562772 -0.17394785,0.0716256 z"
         style=""
         id="path1552" />
    </g>
  </a>
  <path
     d="m 63.604197,18.835263 h 1.1 m -1.1,-0.3 h 1.1"
     id="path118"
     inkscape:connector-curvature="0"
     style="fill:none;stroke:currentColor;stroke-width:0.12;stroke-linecap:square;stroke-linejoin:round" />
  <a
     style="color:inherit"
     xlink:href="textedit:///home/paul/Projects/tsugaru/lilypond-shamisen/example.ly:43:39:40"
     id="a122"
     transform="translate(-2.5845028,-2.7782181)">
    <path
       transform="translate(68.3387,22.6873)"
       d="m -0.212,-0.334 c -0.077,0.281 -0.197,0.491 -0.341,0.672 m 0.708,-0.69 c 0.173,0.246 0.303,0.466 0.39,0.659"
       id="path120"
       inkscape:connector-curvature="0"
       style="fill:none;stroke:currentColor;stroke-width:0.12;stroke-linecap:square;stroke-linejoin:miter" />
  </a>
  <g
     id="g126"
     style="color:#ffffff"
     transform="translate(-2.5845028,-2.7782181)">
    <path
       transform="translate(67.6787,20.4373)"
       style="fill:currentColor"
       d="m 0.11,-0.64899999 h 1.1 v 1.29799998 h -1.1 z"
       id="rect124" />
  </g>
  <a
     style="color:inherit"
     xlink:href="textedit:///home/paul/Projects/tsugaru/lilypond-shamisen/example.ly:43:37:38"
     id="a132"
     transform="translate(-2.5845028,-2.7782181)">
    <g
       aria-label="0"
       transform="translate(67.7887,21.0776)"
       style="font-weight:bold;font-size:1.74629998px;font-family:IPAexGothic;text-anchor:start;fill:currentColor"
       id="text130">
      <path
         d="m 0.55595097,-1.2892605 q 0.2302251,0 0.3538645,0.2131714 0.0980588,0.16883169 0.0980588,0.43657495 0,0.2651852 -0.0980588,0.43742768 -0.12193403,0.21061333 -0.3598333,0.21061333 -0.23704658,0 -0.35898061,-0.21061333 -0.09805884,-0.17224248 -0.09805884,-0.43913305 0,-0.37177088 0.17991665,-0.54145528 0.11425986,-0.1065857 0.2830916,-0.1065857 z m -0.005969,0.1253447 q -0.13642968,0 -0.21487675,0.1381351 -0.0801524,0.13984043 -0.0801524,0.38626655 0,0.24216269 0.0784471,0.38115043 0.0792998,0.13642969 0.21658212,0.13642969 0.16456831,0 0.24386807,-0.19270693 0.0520138,-0.12790283 0.0520138,-0.33340005 0,-0.24045732 -0.0801524,-0.37773969 -0.0810051,-0.1381351 -0.21572944,-0.1381351 z"
         style=""
         id="path1556" />
    </g>
  </a>
  <path
     d="m 65.204197,18.835263 h 1.1 m -1.1,-0.3 h 1.1"
     id="path134"
     inkscape:connector-curvature="0"
     style="fill:none;stroke:currentColor;stroke-width:0.12;stroke-linecap:square;stroke-linejoin:round" />
  <a
     style="color:inherit"
     xlink:href="textedit:///home/paul/Projects/tsugaru/lilypond-shamisen/example.ly:43:29:30"
     id="a138"
     transform="translate(-2.5845028,-2.7782181)">
    <path
       transform="translate(66.7387,22.6873)"
       d="m -0.212,-0.334 c -0.077,0.281 -0.197,0.491 -0.341,0.672 m 0.708,-0.69 c 0.173,0.246 0.303,0.466 0.39,0.659"
       id="path136"
       inkscape:connector-curvature="0"
       style="fill:none;stroke:currentColor;stroke-width:0.12;stroke-linecap:square;stroke-linejoin:miter" />
  </a>
  <g
     id="g142"
     style="color:#ffffff"
     transform="translate(-2.5845028,-2.7782181)">
    <path
       transform="translate(69.2787,20.4373)"
       style="fill:currentColor"
       d="m 0.11,-0.64899999 h 1.1 v 1.29799998 h -1.1 z"
       id="rect140" />
  </g>
  <a
     style="color:inherit"
     xlink:href="textedit:///home/paul/Projects/tsugaru/lilypond-shamisen/example.ly:43:47:48"
     id="a148"
     transform="translate(-2.5845028,-2.7782181)">
    <g
       aria-label="0"
       transform="translate(69.3887,21.0776)"
       style="font-weight:bold;font-size:1.74629998px;font-family:IPAexGothic;text-anchor:start;fill:currentColor"
       id="text146">
      <path
         d="m 0.55595097,-1.2892605 q 0.2302251,0 0.3538645,0.2131714 0.0980588,0.16883169 0.0980588,0.43657495 0,0.2651852 -0.0980588,0.43742768 -0.12193403,0.21061333 -0.3598333,0.21061333 -0.23704658,0 -0.35898061,-0.21061333 -0.09805884,-0.17224248 -0.09805884,-0.43913305 0,-0.37177088 0.17991665,-0.54145528 0.11425986,-0.1065857 0.2830916,-0.1065857 z m -0.005969,0.1253447 q -0.13642968,0 -0.21487675,0.1381351 -0.0801524,0.13984043 -0.0801524,0.38626655 0,0.24216269 0.0784471,0.38115043 0.0792998,0.13642969 0.21658212,0.13642969 0.16456831,0 0.24386807,-0.19270693 0.0520138,-0.12790283 0.0520138,-0.33340005 0,-0.24045732 -0.0801524,-0.37773969 -0.0810051,-0.1381351 -0.21572944,-0.1381351 z"
         style=""
         id="path1560" />
    </g>
  </a>
  <path
     d="m 66.804197,18.835263 h 1.1 m -1.1,-0.3 h 1.1"
     id="path150"
     inkscape:connector-curvature="0"
     style="fill:none;stroke:currentColor;stroke-width:0.12;stroke-linecap:square;stroke-linejoin:round" />
  <g
     id="g154"
     style="color:#ffffff"
     transform="translate(-2.5845028,-2.7782181)">
    <path
       transform="translate(61.6299,20.4373)"
       style="fill:currentColor"
       d="m 0.11,-0.64899999 h 1.1 v 1.29799998 h -1.1 z"
       id="rect152" />
  </g>
  <a
     style="color:inherit"
     xlink:href="textedit:///home/paul/Projects/tsugaru/lilypond-shamisen/example.ly:42:15:16"
     id="a160"
     transform="translate(-2.5845028,-2.7782181)">
    <g
       aria-label="0"
       transform="translate(61.7399,21.0776)"
       style="font-weight:bold;font-size:1.74629998px;font-family:IPAexGothic;text-anchor:start;fill:currentColor"
       id="text158">
      <path
         d="m 0.55595097,-1.2892605 q 0.2302251,0 0.3538645,0.2131714 0.0980588,0.16883169 0.0980588,0.43657495 0,0.2651852 -0.0980588,0.43742768 -0.12193403,0.21061333 -0.3598333,0.21061333 -0.23704658,0 -0.35898061,-0.21061333 -0.09805884,-0.17224248 -0.09805884,-0.43913305 0,-0.37177088 0.17991665,-0.54145528 0.11425986,-0.1065857 0.2830916,-0.1065857 z m -0.005969,0.1253447 q -0.13642968,0 -0.21487675,0.1381351 -0.0801524,0.13984043 -0.0801524,0.38626655 0,0.24216269 0.0784471,0.38115043 0.0792998,0.13642969 0.21658212,0.13642969 0.16456831,0 0.24386807,-0.19270693 0.0520138,-0.12790283 0.0520138,-0.33340005 0,-0.24045732 -0.0801524,-0.37773969 -0.0810051,-0.1381351 -0.21572944,-0.1381351 z"
         style=""
         id="path1564" />
    </g>
  </a>
  <path
     d="m 59.155397,18.835263 h 1.1 m -1.1,-0.3 h 1.1"
     id="path162"
     inkscape:connector-curvature="0"
     style="fill:none;stroke:currentColor;stroke-width:0.12;stroke-linecap:square;stroke-linejoin:round" />
  <a
     style="color:inherit"
     xlink:href="textedit:///home/paul/Projects/tsugaru/lilypond-shamisen/example.ly:43:18:19"
     id="a168"
     transform="translate(-2.5845028,-2.7782181)">
    <g
       aria-label="Ⅲ"
       transform="translate(64.4788,18.1496)"
       style="font-size:1.55569994px;font-family:IPAexGothic;text-anchor:start;fill:currentColor"
       id="text166">
      <path
         d="m 0.31448231,-1.1682942 h 0.13673144 v 1.08929381 H 0.31448231 Z m 0.39500194,0 h 0.13673144 v 1.08929381 H 0.70948425 Z m 0.39576155,0 h 0.1367315 v 1.08929381 H 1.1052458 Z"
         style=""
         id="path1567" />
    </g>
  </a>
  <g
     id="g172"
     style="color:#ffffff"
     transform="translate(-2.5845028,-2.7782181)">
    <path
       transform="translate(64.4788,20.4373)"
       style="fill:currentColor"
       d="m 0.11,-0.63840002 h 1.1 V 0.6383 h -1.1 z"
       id="rect170" />
  </g>
  <a
     style="color:inherit"
     xlink:href="textedit:///home/paul/Projects/tsugaru/lilypond-shamisen/example.ly:43:12:13"
     id="a178"
     transform="translate(-2.5845028,-2.7782181)">
    <g
       aria-label="4"
       transform="translate(64.5888,21.0756)"
       style="font-weight:bold;font-size:1.74629998px;font-family:IPAexGothic;text-anchor:start;fill:currentColor"
       id="text176">
      <path
         d="M 1.0402764,-0.31634633 H 0.83477914 v 0.29929262 H 0.69493871 V -0.31634633 H 0.05371919 V -0.45618676 L 0.67021083,-1.2764703 h 0.16456831 v 0.83051576 H 1.0402764 Z M 0.70346557,-1.1212815 h -0.005116 q -0.0767417,0.12363942 -0.15177803,0.225109 l -0.33936884,0.45021796 h 0.48773612 v -0.41184711 q 0,-0.09209 0.008527,-0.26347985 z"
         style=""
         id="path1571" />
    </g>
  </a>
  <path
     d="m 62.004297,18.820859 h 1.1 m -1.1,-0.3 h 1.1"
     id="path180"
     inkscape:connector-curvature="0"
     style="fill:none;stroke:currentColor;stroke-width:0.12;stroke-linecap:square;stroke-linejoin:round" />
  <g
     id="g184"
     style="color:#ffffff"
     transform="translate(-2.5845028,-2.7782181)">
    <path
       transform="translate(17.5515,20.4373)"
       style="fill:currentColor"
       d="m 0.11,-0.64899999 h 1.1 v 1.29799998 h -1.1 z"
       id="rect182" />
  </g>
  <a
     style="color:inherit"
     xlink:href="textedit:///home/paul/Projects/tsugaru/lilypond-shamisen/example.ly:36:14:15"
     id="a190"
     transform="translate(-2.5845028,-2.7782181)">
    <g
       aria-label="0"
       transform="translate(17.6615,21.0776)"
       style="font-weight:bold;font-size:1.74629998px;font-family:IPAexGothic;text-anchor:start;fill:currentColor"
       id="text188">
      <path
         d="m 0.55595097,-1.2892605 q 0.2302251,0 0.3538645,0.2131714 0.0980588,0.16883169 0.0980588,0.43657495 0,0.2651852 -0.0980588,0.43742768 -0.12193403,0.21061333 -0.3598333,0.21061333 -0.23704658,0 -0.35898061,-0.21061333 -0.09805884,-0.17224248 -0.09805884,-0.43913305 0,-0.37177088 0.17991665,-0.54145528 0.11425986,-0.1065857 0.2830916,-0.1065857 z m -0.005969,0.1253447 q -0.13642968,0 -0.21487675,0.1381351 -0.0801524,0.13984043 -0.0801524,0.38626655 0,0.24216269 0.0784471,0.38115043 0.0792998,0.13642969 0.21658212,0.13642969 0.16456831,0 0.24386807,-0.19270693 0.0520138,-0.12790283 0.0520138,-0.33340005 0,-0.24045732 -0.0801524,-0.37773969 -0.0810051,-0.1381351 -0.21572944,-0.1381351 z"
         style=""
         id="path1575" />
    </g>
  </a>
  <path
     d="m 15.076997,18.835263 h 1.1 m -1.1,-0.3 h 1.1"
     id="path192"
     inkscape:connector-curvature="0"
     style="fill:none;stroke:currentColor;stroke-width:0.12;stroke-linecap:square;stroke-linejoin:round" />
  <a
     style="color:inherit"
     xlink:href="textedit:///home/paul/Projects/tsugaru/lilypond-shamisen/example.ly:36:19:20"
     id="a196"
     transform="translate(-2.5845028,-2.7782181)">
    <path
       transform="translate(20.6048,22.6873)"
       d="m -0.394,0.055 0.005,-0.348 h 0.761 l 0.03,0.023 C 0.371,0.116 0.197,0.391 -0.173,0.505 m 0.172,-1.075 v 0.26"
       id="path194"
       inkscape:connector-curvature="0"
       style="fill:none;stroke:currentColor;stroke-width:0.12;stroke-linecap:square;stroke-linejoin:miter" />
  </a>
  <g
     id="g200"
     style="color:#ffffff"
     transform="translate(-2.5845028,-2.7782181)">
    <path
       transform="translate(19.9448,20.4373)"
       style="fill:currentColor"
       d="m 0.11,-0.64899999 h 1.1 v 1.29799998 h -1.1 z"
       id="rect198" />
  </g>
  <a
     style="color:inherit"
     xlink:href="textedit:///home/paul/Projects/tsugaru/lilypond-shamisen/example.ly:36:16:17"
     id="a206"
     transform="translate(-2.5845028,-2.7782181)">
    <g
       aria-label="3"
       transform="translate(20.0548,21.0776)"
       style="font-weight:bold;font-size:1.74629998px;font-family:IPAexGothic;text-anchor:start;fill:currentColor"
       id="text204">
      <path
         d="m 0.64974638,-0.65997861 q 0.30696679,0.0554246 0.30696679,0.31123022 0,0.1534834 -0.10317495,0.25154224 -0.11425986,0.10573301 -0.32316782,0.10573301 -0.31293559,0 -0.45192333,-0.24898418 l 0.12790283,-0.0682148 q 0.0963535,0.1884435 0.32231513,0.1884435 0.13301895,0 0.2063499,-0.0682148 0.0699202,-0.0648041 0.0699202,-0.16371563 0,-0.11681792 -0.10488032,-0.18759082 -0.0955008,-0.0639514 -0.25154224,-0.0639514 h -0.0767417 v -0.12449209 h 0.0801524 q 0.15689413,0 0.23960463,-0.059688 0.0886793,-0.0630987 0.0886793,-0.16968442 0,-0.11596524 -0.0997642,-0.17138984 -0.0639514,-0.038371 -0.1534834,-0.038371 -0.18929619,0 -0.28053354,0.19100156 L 0.11852329,-1.0377183 q 0.12619746,-0.2515422 0.41014174,-0.2515422 0.17991665,0 0.29161846,0.090385 0.1117018,0.088679 0.1117018,0.23448856 0,0.13813505 -0.10829106,0.22596166 -0.0699202,0.0562772 -0.17394785,0.0716256 z"
         style=""
         id="path1579" />
    </g>
  </a>
  <path
     d="m 17.470297,18.835263 h 1.1 m -1.1,-0.3 h 1.1"
     id="path208"
     inkscape:connector-curvature="0"
     style="fill:none;stroke:currentColor;stroke-width:0.12;stroke-linecap:square;stroke-linejoin:round" />
  <g
     id="g212"
     style="color:#ffffff"
     transform="translate(-2.5845028,-2.7782181)">
    <path
       transform="translate(22.3381,18.9373)"
       style="fill:currentColor"
       d="m 0.11,-0.64899999 h 1.1 v 1.29799998 h -1.1 z"
       id="rect210" />
  </g>
  <a
     style="color:inherit"
     xlink:href="textedit:///home/paul/Projects/tsugaru/lilypond-shamisen/example.ly:36:25:26"
     id="a218"
     transform="translate(-2.5845028,-2.7782181)">
    <g
       aria-label="0"
       transform="translate(22.4481,19.5776)"
       style="font-weight:bold;font-size:1.74629998px;font-family:IPAexGothic;text-anchor:start;fill:currentColor"
       id="text216">
      <path
         d="m 0.55595097,-1.2892605 q 0.2302251,0 0.3538645,0.2131714 0.0980588,0.16883169 0.0980588,0.43657495 0,0.2651852 -0.0980588,0.43742768 -0.12193403,0.21061333 -0.3598333,0.21061333 -0.23704658,0 -0.35898061,-0.21061333 -0.09805884,-0.17224248 -0.09805884,-0.43913305 0,-0.37177088 0.17991665,-0.54145528 0.11425986,-0.1065857 0.2830916,-0.1065857 z m -0.005969,0.1253447 q -0.13642968,0 -0.21487675,0.1381351 -0.0801524,0.13984043 -0.0801524,0.38626655 0,0.24216269 0.0784471,0.38115043 0.0792998,0.13642969 0.21658212,0.13642969 0.16456831,0 0.24386807,-0.19270693 0.0520138,-0.12790283 0.0520138,-0.33340005 0,-0.24045732 -0.0801524,-0.37773969 -0.0810051,-0.1381351 -0.21572944,-0.1381351 z"
         style=""
         id="path1583" />
    </g>
  </a>
  <path
     d="m 19.863597,17.035263 h 1.1"
     id="path220"
     inkscape:connector-curvature="0"
     style="fill:none;stroke:currentColor;stroke-width:0.12;stroke-linecap:square;stroke-linejoin:round" />
  <g
     id="g224"
     style="color:#ffffff"
     transform="translate(-2.5845028,-2.7782181)">
    <path
       transform="translate(26.9517,20.4373)"
       style="fill:currentColor"
       d="m 0.11,-0.64899999 h 1.1 v 1.29799998 h -1.1 z"
       id="rect222" />
  </g>
  <a
     style="color:inherit"
     xlink:href="textedit:///home/paul/Projects/tsugaru/lilypond-shamisen/example.ly:38:4:5"
     id="a230"
     transform="translate(-2.5845028,-2.7782181)">
    <g
       aria-label="0"
       transform="translate(27.0617,21.0776)"
       style="font-weight:bold;font-size:1.74629998px;font-family:IPAexGothic;text-anchor:start;fill:currentColor"
       id="text228">
      <path
         d="m 0.55595097,-1.2892605 q 0.2302251,0 0.3538645,0.2131714 0.0980588,0.16883169 0.0980588,0.43657495 0,0.2651852 -0.0980588,0.43742768 -0.12193403,0.21061333 -0.3598333,0.21061333 -0.23704658,0 -0.35898061,-0.21061333 -0.09805884,-0.17224248 -0.09805884,-0.43913305 0,-0.37177088 0.17991665,-0.54145528 0.11425986,-0.1065857 0.2830916,-0.1065857 z m -0.005969,0.1253447 q -0.13642968,0 -0.21487675,0.1381351 -0.0801524,0.13984043 -0.0801524,0.38626655 0,0.24216269 0.0784471,0.38115043 0.0792998,0.13642969 0.21658212,0.13642969 0.16456831,0 0.24386807,-0.19270693 0.0520138,-0.12790283 0.0520138,-0.33340005 0,-0.24045732 -0.0801524,-0.37773969 -0.0810051,-0.1381351 -0.21572944,-0.1381351 z"
         style=""
         id="path1587" />
    </g>
  </a>
  <g
     id="g234"
     style="color:#ffffff"
     transform="translate(-2.5845028,-2.7782181)">
    <path
       transform="translate(10.8915,18.9373)"
       style="fill:currentColor"
       d="m 0.11,-0.64899999 h 1.1 v 1.29799998 h -1.1 z"
       id="rect232" />
  </g>
  <a
     style="color:inherit"
     xlink:href="textedit:///home/paul/Projects/tsugaru/lilypond-shamisen/example.ly:36:4:5"
     id="a240"
     transform="translate(-2.5845028,-2.7782181)">
    <g
       aria-label="0"
       transform="translate(11.0015,19.5776)"
       style="font-weight:bold;font-size:1.74629998px;font-family:IPAexGothic;text-anchor:start;fill:currentColor"
       id="text238">
      <path
         d="m 0.55595097,-1.2892605 q 0.2302251,0 0.3538645,0.2131714 0.0980588,0.16883169 0.0980588,0.43657495 0,0.2651852 -0.0980588,0.43742768 -0.12193403,0.21061333 -0.3598333,0.21061333 -0.23704658,0 -0.35898061,-0.21061333 -0.09805884,-0.17224248 -0.09805884,-0.43913305 0,-0.37177088 0.17991665,-0.54145528 0.11425986,-0.1065857 0.2830916,-0.1065857 z m -0.005969,0.1253447 q -0.13642968,0 -0.21487675,0.1381351 -0.0801524,0.13984043 -0.0801524,0.38626655 0,0.24216269 0.0784471,0.38115043 0.0792998,0.13642969 0.21658212,0.13642969 0.16456831,0 0.24386807,-0.19270693 0.0520138,-0.12790283 0.0520138,-0.33340005 0,-0.24045732 -0.0801524,-0.37773969 -0.0810051,-0.1381351 -0.21572944,-0.1381351 z"
         style=""
         id="path1591" />
    </g>
  </a>
  <path
     d="m 9.9736972,15.409082 c 0,-0.128 0.1,-0.228 0.2279998,-0.228 0.128,0 0.228,0.1 0.228,0.228 0,0.128 -0.1,0.228 -0.228,0.228 -0.128,0 -0.2279998,-0.1 -0.2279998,-0.228 z"
     id="path242"
     inkscape:connector-curvature="0"
     style="fill:currentColor;stroke-width:0.004" />
  <path
     d="m 8.4169972,17.035263 h 1.1"
     id="path244"
     inkscape:connector-curvature="0"
     style="fill:none;stroke:currentColor;stroke-width:0.12;stroke-linecap:square;stroke-linejoin:round" />
  <g
     id="g248"
     style="color:#ffffff"
     transform="translate(-2.5845028,-2.7782181)">
    <path
       transform="translate(15.1582,20.4373)"
       style="fill:currentColor"
       d="m 0.11,-0.64899999 h 1.1 v 1.29799998 h -1.1 z"
       id="rect246" />
  </g>
  <a
     style="color:inherit"
     xlink:href="textedit:///home/paul/Projects/tsugaru/lilypond-shamisen/example.ly:36:9:10"
     id="a254"
     transform="translate(-2.5845028,-2.7782181)">
    <g
       aria-label="3"
       transform="translate(15.2682,21.0776)"
       style="font-weight:bold;font-size:1.74629998px;font-family:IPAexGothic;text-anchor:start;fill:currentColor"
       id="text252">
      <path
         d="m 0.64974638,-0.65997861 q 0.30696679,0.0554246 0.30696679,0.31123022 0,0.1534834 -0.10317495,0.25154224 -0.11425986,0.10573301 -0.32316782,0.10573301 -0.31293559,0 -0.45192333,-0.24898418 l 0.12790283,-0.0682148 q 0.0963535,0.1884435 0.32231513,0.1884435 0.13301895,0 0.2063499,-0.0682148 0.0699202,-0.0648041 0.0699202,-0.16371563 0,-0.11681792 -0.10488032,-0.18759082 -0.0955008,-0.0639514 -0.25154224,-0.0639514 h -0.0767417 v -0.12449209 h 0.0801524 q 0.15689413,0 0.23960463,-0.059688 0.0886793,-0.0630987 0.0886793,-0.16968442 0,-0.11596524 -0.0997642,-0.17138984 -0.0639514,-0.038371 -0.1534834,-0.038371 -0.18929619,0 -0.28053354,0.19100156 L 0.11852329,-1.0377183 q 0.12619746,-0.2515422 0.41014174,-0.2515422 0.17991665,0 0.29161846,0.090385 0.1117018,0.088679 0.1117018,0.23448856 0,0.13813505 -0.10829106,0.22596166 -0.0699202,0.0562772 -0.17394785,0.0716256 z"
         style=""
         id="path1595" />
    </g>
  </a>
  <path
     d="m 12.683697,18.835263 h 1.1 m -1.1,-0.3 h 1.1"
     id="path256"
     inkscape:connector-curvature="0"
     style="fill:none;stroke:currentColor;stroke-width:0.12;stroke-linecap:square;stroke-linejoin:round" />
  <g
     id="g260"
     style="color:#ffffff"
     transform="translate(-2.5845028,-2.7782181)">
    <path
       transform="translate(31.2184,21.9373)"
       style="fill:currentColor"
       d="m 0.11,-0.63840002 h 1.1 V 0.6383 h -1.1 z"
       id="rect258" />
  </g>
  <a
     style="color:inherit"
     xlink:href="textedit:///home/paul/Projects/tsugaru/lilypond-shamisen/example.ly:38:8:9"
     id="a266"
     transform="translate(-2.5845028,-2.7782181)">
    <g
       aria-label="4"
       transform="translate(31.3284,22.5756)"
       style="font-weight:bold;font-size:1.74629998px;font-family:IPAexGothic;text-anchor:start;fill:currentColor"
       id="text264">
      <path
         d="M 1.0402764,-0.31634633 H 0.83477914 v 0.29929262 H 0.69493871 V -0.31634633 H 0.05371919 V -0.45618676 L 0.67021083,-1.2764703 h 0.16456831 v 0.83051576 H 1.0402764 Z M 0.70346557,-1.1212815 h -0.005116 q -0.0767417,0.12363942 -0.15177803,0.225109 l -0.33936884,0.45021796 h 0.48773612 v -0.41184711 q 0,-0.09209 0.008527,-0.26347985 z"
         style=""
         id="path1599" />
    </g>
  </a>
  <path
     d="m 28.743897,20.320859 h 1.1 m -1.1,-0.3 h 1.1"
     id="path268"
     inkscape:connector-curvature="0"
     style="fill:none;stroke:currentColor;stroke-width:0.12;stroke-linecap:square;stroke-linejoin:round" />
  <g
     id="g272"
     style="color:#ffffff"
     transform="translate(-2.5845028,-2.7782181)">
    <path
       transform="translate(33.6117,20.4373)"
       style="fill:currentColor"
       d="m 0.11,-0.64899999 h 1.1 v 1.29799998 h -1.1 z"
       id="rect270" />
  </g>
  <a
     style="color:inherit"
     xlink:href="textedit:///home/paul/Projects/tsugaru/lilypond-shamisen/example.ly:38:19:20"
     id="a278"
     transform="translate(-2.5845028,-2.7782181)">
    <g
       aria-label="0"
       transform="translate(33.7217,21.0776)"
       style="font-weight:bold;font-size:1.74629998px;font-family:IPAexGothic;text-anchor:start;fill:currentColor"
       id="text276">
      <path
         d="m 0.55595097,-1.2892605 q 0.2302251,0 0.3538645,0.2131714 0.0980588,0.16883169 0.0980588,0.43657495 0,0.2651852 -0.0980588,0.43742768 -0.12193403,0.21061333 -0.3598333,0.21061333 -0.23704658,0 -0.35898061,-0.21061333 -0.09805884,-0.17224248 -0.09805884,-0.43913305 0,-0.37177088 0.17991665,-0.54145528 0.11425986,-0.1065857 0.2830916,-0.1065857 z m -0.005969,0.1253447 q -0.13642968,0 -0.21487675,0.1381351 -0.0801524,0.13984043 -0.0801524,0.38626655 0,0.24216269 0.0784471,0.38115043 0.0792998,0.13642969 0.21658212,0.13642969 0.16456831,0 0.24386807,-0.19270693 0.0520138,-0.12790283 0.0520138,-0.33340005 0,-0.24045732 -0.0801524,-0.37773969 -0.0810051,-0.1381351 -0.21572944,-0.1381351 z"
         style=""
         id="path1603" />
    </g>
  </a>
  <path
     d="m 31.137197,18.835263 h 1.1 m -1.1,-0.3 h 1.1"
     id="path280"
     inkscape:connector-curvature="0"
     style="fill:none;stroke:currentColor;stroke-width:0.12;stroke-linecap:square;stroke-linejoin:round" />
  <path
     d="m 24.477197,18.535263 h 1.1"
     id="path282"
     inkscape:connector-curvature="0"
     style="fill:none;stroke:currentColor;stroke-width:0.12;stroke-linecap:square;stroke-linejoin:round" />
  <a
     style="color:inherit"
     xlink:href="textedit:///home/paul/Projects/tsugaru/lilypond-shamisen/example.ly:38:24:25"
     id="a286"
     transform="translate(-2.5845028,-2.7782181)">
    <path
       transform="translate(36.665,22.6873)"
       d="m -0.394,0.055 0.005,-0.348 h 0.761 l 0.03,0.023 C 0.371,0.116 0.197,0.391 -0.173,0.505 m 0.172,-1.075 v 0.26"
       id="path284"
       inkscape:connector-curvature="0"
       style="fill:none;stroke:currentColor;stroke-width:0.12;stroke-linecap:square;stroke-linejoin:miter" />
  </a>
  <g
     id="g290"
     style="color:#ffffff"
     transform="translate(-2.5845028,-2.7782181)">
    <path
       transform="translate(36.005,20.4373)"
       style="fill:currentColor"
       d="m 0.11,-0.64899999 h 1.1 v 1.29799998 h -1.1 z"
       id="rect288" />
  </g>
  <a
     style="color:inherit"
     xlink:href="textedit:///home/paul/Projects/tsugaru/lilypond-shamisen/example.ly:38:21:22"
     id="a296"
     transform="translate(-2.5845028,-2.7782181)">
    <g
       aria-label="3"
       transform="translate(36.115,21.0776)"
       style="font-weight:bold;font-size:1.74629998px;font-family:IPAexGothic;text-anchor:start;fill:currentColor"
       id="text294">
      <path
         d="m 0.64974638,-0.65997861 q 0.30696679,0.0554246 0.30696679,0.31123022 0,0.1534834 -0.10317495,0.25154224 -0.11425986,0.10573301 -0.32316782,0.10573301 -0.31293559,0 -0.45192333,-0.24898418 l 0.12790283,-0.0682148 q 0.0963535,0.1884435 0.32231513,0.1884435 0.13301895,0 0.2063499,-0.0682148 0.0699202,-0.0648041 0.0699202,-0.16371563 0,-0.11681792 -0.10488032,-0.18759082 -0.0955008,-0.0639514 -0.25154224,-0.0639514 h -0.0767417 v -0.12449209 h 0.0801524 q 0.15689413,0 0.23960463,-0.059688 0.0886793,-0.0630987 0.0886793,-0.16968442 0,-0.11596524 -0.0997642,-0.17138984 -0.0639514,-0.038371 -0.1534834,-0.038371 -0.18929619,0 -0.28053354,0.19100156 L 0.11852329,-1.0377183 q 0.12619746,-0.2515422 0.41014174,-0.2515422 0.17991665,0 0.29161846,0.090385 0.1117018,0.088679 0.1117018,0.23448856 0,0.13813505 -0.10829106,0.22596166 -0.0699202,0.0562772 -0.17394785,0.0716256 z"
         style=""
         id="path1607" />
    </g>
  </a>
  <path
     d="m 33.530497,18.835263 h 1.1 m -1.1,-0.3 h 1.1"
     id="path298"
     inkscape:connector-curvature="0"
     style="fill:none;stroke:currentColor;stroke-width:0.12;stroke-linecap:square;stroke-linejoin:round" />
  <g
     id="g302"
     style="color:#ffffff"
     transform="translate(-2.5845028,-2.7782181)">
    <path
       transform="translate(38.3983,18.9373)"
       style="fill:currentColor"
       d="m 0.11,-0.64899999 h 1.1 v 1.29799998 h -1.1 z"
       id="rect300" />
  </g>
  <a
     style="color:inherit"
     xlink:href="textedit:///home/paul/Projects/tsugaru/lilypond-shamisen/example.ly:38:30:31"
     id="a308"
     transform="translate(-2.5845028,-2.7782181)">
    <g
       aria-label="0"
       transform="translate(38.5083,19.5776)"
       style="font-weight:bold;font-size:1.74629998px;font-family:IPAexGothic;text-anchor:start;fill:currentColor"
       id="text306">
      <path
         d="m 0.55595097,-1.2892605 q 0.2302251,0 0.3538645,0.2131714 0.0980588,0.16883169 0.0980588,0.43657495 0,0.2651852 -0.0980588,0.43742768 -0.12193403,0.21061333 -0.3598333,0.21061333 -0.23704658,0 -0.35898061,-0.21061333 -0.09805884,-0.17224248 -0.09805884,-0.43913305 0,-0.37177088 0.17991665,-0.54145528 0.11425986,-0.1065857 0.2830916,-0.1065857 z m -0.005969,0.1253447 q -0.13642968,0 -0.21487675,0.1381351 -0.0801524,0.13984043 -0.0801524,0.38626655 0,0.24216269 0.0784471,0.38115043 0.0792998,0.13642969 0.21658212,0.13642969 0.16456831,0 0.24386807,-0.19270693 0.0520138,-0.12790283 0.0520138,-0.33340005 0,-0.24045732 -0.0801524,-0.37773969 -0.0810051,-0.1381351 -0.21572944,-0.1381351 z"
         style=""
         id="path1611" />
    </g>
  </a>
  <path
     d="m 35.923797,17.035263 h 1.1"
     id="path310"
     inkscape:connector-curvature="0"
     style="fill:none;stroke:currentColor;stroke-width:0.12;stroke-linecap:square;stroke-linejoin:round" />
  <path
     d="m 26.033997,16.909082 c 0,-0.128 0.1,-0.228 0.228,-0.228 0.128,0 0.228,0.1 0.228,0.228 0,0.128 -0.1,0.228 -0.228,0.228 -0.128,0 -0.228,-0.1 -0.228,-0.228 z"
     id="path312"
     inkscape:connector-curvature="0"
     style="fill:currentColor;stroke-width:0.004" />
  <a
     style="color:inherit"
     xlink:href="textedit:///home/paul/Projects/tsugaru/lilypond-shamisen/example.ly:38:11:12"
     id="a318"
     transform="translate(-2.5845028,-2.7782181)">
    <g
       aria-label="Ⅲ"
       transform="translate(31.2184,18.1496)"
       style="font-size:1.55569994px;font-family:IPAexGothic;text-anchor:start;fill:currentColor"
       id="text316">
      <path
         d="m 0.31448231,-1.1682942 h 0.13673144 v 1.08929381 H 0.31448231 Z m 0.39500194,0 h 0.13673144 v 1.08929381 H 0.70948425 Z m 0.39576155,0 h 0.1367315 v 1.08929381 H 1.1052458 Z"
         style=""
         id="path1614" />
    </g>
  </a>
  <path
     style="stroke:currentColor;stroke-width:0.0754;stroke-linecap:round;stroke-linejoin:round"
     d="M 1.0097972,31.159082 H 68.509697"
     id="line320" />
  <path
     style="stroke:currentColor;stroke-width:0.0754;stroke-linecap:round;stroke-linejoin:round"
     d="M 1.0097972,29.659082 H 68.509697"
     id="line322" />
  <path
     style="stroke:currentColor;stroke-width:0.0754;stroke-linecap:round;stroke-linejoin:round"
     d="M 1.0097972,28.159082 H 68.509697"
     id="line324" />
  <path
     style="fill:currentColor"
     d="m 60.210697,28.159082 h 0.1432 v 3 h -0.1432 z"
     id="rect326" />
  <path
     style="fill:currentColor"
     d="m 29.684397,28.159082 h 0.1432 v 3 h -0.1432 z"
     id="rect328" />
  <path
     style="fill:currentColor"
     d="m 14.417597,28.159082 h 0.1432 v 3 h -0.1432 z"
     id="rect330" />
  <path
     style="fill:currentColor"
     d="m 68.404198,28.159082 h 0.1432 v 3 h -0.1432 z"
     id="rect332" />
  <path
     style="fill:currentColor"
     d="m 45.474697,28.159082 h 0.1432 v 3 h -0.1432 z"
     id="rect334" />
  <g
     id="g338"
     style="color:#ffffff"
     transform="translate(-2.5845028,-2.7782181)">
    <path
       transform="translate(44.385,30.9373)"
       style="fill:currentColor"
       d="m 0.11,-0.63840002 h 1.1 V 0.6383 h -1.1 z"
       id="rect336" />
  </g>
  <a
     style="color:inherit"
     xlink:href="textedit:///home/paul/Projects/tsugaru/lilypond-shamisen/example.ly:50:23:24"
     id="a344"
     transform="translate(-2.5845028,-2.7782181)">
    <g
       aria-label="4"
       transform="translate(44.495,31.5756)"
       style="font-weight:bold;font-size:1.74629998px;font-family:IPAexGothic;text-anchor:start;fill:currentColor"
       id="text342">
      <path
         d="M 1.0402764,-0.31634633 H 0.83477914 v 0.29929262 H 0.69493871 V -0.31634633 H 0.05371919 V -0.45618676 L 0.67021083,-1.2764703 h 0.16456831 v 0.83051576 H 1.0402764 Z M 0.70346557,-1.1212815 h -0.005116 q -0.0767417,0.12363942 -0.15177803,0.225109 l -0.33936884,0.45021796 h 0.48773612 v -0.41184711 q 0,-0.09209 0.008527,-0.26347985 z"
         style=""
         id="path1626" />
    </g>
  </a>
  <a
     style="color:inherit"
     xlink:href="textedit:///home/paul/Projects/tsugaru/lilypond-shamisen/example.ly:50:26:27"
     id="a348"
     transform="translate(-2.5845028,-2.7782181)">
    <path
       transform="translate(45.045,33.1873)"
       d="m -0.412,-0.422 0.64,-0.005 0.04,0.041 C 0.11,0.046 -0.131,0.276 -0.487,0.457 M 0.494,0.434 C 0.379,0.313 0.247,0.187 0.044,0.036"
       id="path346"
       inkscape:connector-curvature="0"
       style="fill:none;stroke:currentColor;stroke-width:0.12;stroke-linecap:square;stroke-linejoin:miter" />
  </a>
  <path
     d="m 41.910497,29.020859 h 1.1"
     id="path350"
     inkscape:connector-curvature="0"
     style="fill:none;stroke:currentColor;stroke-width:0.12;stroke-linecap:square;stroke-linejoin:round" />
  <g
     id="g354"
     style="color:#ffffff"
     transform="translate(-2.5845028,-2.7782181)">
    <path
       transform="translate(49.1214,32.4373)"
       style="fill:currentColor"
       d="m 0.11,-0.64899999 h 1.1 v 1.29799998 h -1.1 z"
       id="rect352" />
  </g>
  <a
     style="color:inherit"
     xlink:href="textedit:///home/paul/Projects/tsugaru/lilypond-shamisen/example.ly:52:4:5"
     id="a360"
     transform="translate(-2.5845028,-2.7782181)">
    <g
       aria-label="0"
       transform="translate(49.2314,33.0776)"
       style="font-weight:bold;font-size:1.74629998px;font-family:IPAexGothic;text-anchor:start;fill:currentColor"
       id="text358">
      <path
         d="m 0.55595097,-1.2892605 q 0.2302251,0 0.3538645,0.2131714 0.0980588,0.16883169 0.0980588,0.43657495 0,0.2651852 -0.0980588,0.43742768 -0.12193403,0.21061333 -0.3598333,0.21061333 -0.23704658,0 -0.35898061,-0.21061333 -0.09805884,-0.17224248 -0.09805884,-0.43913305 0,-0.37177088 0.17991665,-0.54145528 0.11425986,-0.1065857 0.2830916,-0.1065857 z m -0.005969,0.1253447 q -0.13642968,0 -0.21487675,0.1381351 -0.0801524,0.13984043 -0.0801524,0.38626655 0,0.24216269 0.0784471,0.38115043 0.0792998,0.13642969 0.21658212,0.13642969 0.16456831,0 0.24386807,-0.19270693 0.0520138,-0.12790283 0.0520138,-0.33340005 0,-0.24045732 -0.0801524,-0.37773969 -0.0810051,-0.1381351 -0.21572944,-0.1381351 z"
         style=""
         id="path1630" />
    </g>
  </a>
  <path
     d="m 48.203697,28.909082 c 0,-0.128 0.1,-0.228 0.228,-0.228 0.128,0 0.228,0.1 0.228,0.228 0,0.128 -0.1,0.228 -0.228,0.228 -0.128,0 -0.228,-0.1 -0.228,-0.228 z"
     id="path362"
     inkscape:connector-curvature="0"
     style="fill:currentColor;stroke-width:0.004" />
  <path
     d="m 46.646897,30.535263 h 1.1"
     id="path364"
     inkscape:connector-curvature="0"
     style="fill:none;stroke:currentColor;stroke-width:0.12;stroke-linecap:square;stroke-linejoin:round" />
  <a
     style="color:inherit"
     xlink:href="textedit:///home/paul/Projects/tsugaru/lilypond-shamisen/example.ly:50:7:8"
     id="a370"
     transform="translate(-2.5845028,-2.7782181)">
    <g
       aria-label="Ⅲ"
       transform="translate(33.3626,28.4683)"
       style="font-size:1.55569994px;font-family:IPAexGothic;text-anchor:start;fill:currentColor"
       id="text368">
      <path
         d="m 0.31448231,-1.1682942 h 0.13673144 v 1.08929381 H 0.31448231 Z m 0.39500194,0 h 0.13673144 v 1.08929381 H 0.70948425 Z m 0.39576155,0 h 0.1367315 v 1.08929381 H 1.1052458 Z"
         style=""
         id="path1633" />
    </g>
  </a>
  <g
     id="g374"
     style="color:#ffffff"
     transform="translate(-2.5845028,-2.7782181)">
    <path
       transform="translate(33.3626,30.9373)"
       style="fill:currentColor"
       d="m 0.11,-0.63840002 h 1.1 V 0.6383 h -1.1 z"
       id="rect372" />
  </g>
  <a
     style="color:inherit"
     xlink:href="textedit:///home/paul/Projects/tsugaru/lilypond-shamisen/example.ly:50:4:5"
     id="a380"
     transform="translate(-2.5845028,-2.7782181)">
    <g
       aria-label="4"
       transform="translate(33.4726,31.5756)"
       style="font-weight:bold;font-size:1.74629998px;font-family:IPAexGothic;text-anchor:start;fill:currentColor"
       id="text378">
      <path
         d="M 1.0402764,-0.31634633 H 0.83477914 v 0.29929262 H 0.69493871 V -0.31634633 H 0.05371919 V -0.45618676 L 0.67021083,-1.2764703 h 0.16456831 v 0.83051576 H 1.0402764 Z M 0.70346557,-1.1212815 h -0.005116 q -0.0767417,0.12363942 -0.15177803,0.225109 l -0.33936884,0.45021796 h 0.48773612 v -0.41184711 q 0,-0.09209 0.008527,-0.26347985 z"
         style=""
         id="path1637" />
    </g>
  </a>
  <path
     d="m 30.888097,29.020859 h 1.1"
     id="path382"
     inkscape:connector-curvature="0"
     style="fill:none;stroke:currentColor;stroke-width:0.12;stroke-linecap:square;stroke-linejoin:round" />
  <g
     id="g386"
     style="color:#ffffff"
     transform="translate(-2.5845028,-2.7782181)">
    <path
       transform="translate(37.0368,30.9373)"
       style="fill:currentColor"
       d="m 0.11,-0.64899999 h 1.1 v 1.29799998 h -1.1 z"
       id="rect384" />
  </g>
  <a
     style="color:inherit"
     xlink:href="textedit:///home/paul/Projects/tsugaru/lilypond-shamisen/example.ly:50:16:17"
     id="a392"
     transform="translate(-2.5845028,-2.7782181)">
    <g
       aria-label="6"
       transform="translate(37.1468,31.5776)"
       style="font-weight:bold;font-size:1.74629998px;font-family:IPAexGothic;text-anchor:start;fill:currentColor"
       id="text390">
      <path
         d="M 0.28820771,-0.63525073 Q 0.41184711,-0.813462 0.60967016,-0.813462 q 0.18332739,0 0.2950292,0.12790283 0.0980588,0.11084912 0.0980588,0.27030131 0,0.17394785 -0.10999644,0.29673457 -0.11425986,0.12705015 -0.29843994,0.12705015 -0.21914018,0 -0.34277959,-0.16712637 -0.12022866,-0.16286294 -0.12022866,-0.44936528 0,-0.32657856 0.14495654,-0.51331671 0.13131358,-0.167979 0.34363228,-0.167979 0.25068954,0 0.36494941,0.1910015 l -0.12534478,0.068215 q -0.0699202,-0.1338717 -0.23193046,-0.1338717 -0.32231514,0 -0.34619033,0.52866507 z m 0.29588188,-0.059688 q -0.12449208,0 -0.2063499,0.0929427 -0.073331,0.0835632 -0.073331,0.18162202 0,0.10488032 0.0648041,0.19014887 0.0869739,0.11340718 0.21999287,0.11340718 0.13898774,0 0.21317138,-0.11340718 0.0503084,-0.0775944 0.0503084,-0.17991664 0,-0.12022866 -0.0665095,-0.19782305 -0.0767417,-0.0869739 -0.20208648,-0.0869739 z"
         style=""
         id="path1641" />
    </g>
  </a>
  <path
     d="m 34.562297,29.035263 h 1.1"
     id="path394"
     inkscape:connector-curvature="0"
     style="fill:none;stroke:currentColor;stroke-width:0.12;stroke-linecap:square;stroke-linejoin:round" />
  <g
     id="g398"
     style="color:#ffffff"
     transform="translate(-2.5845028,-2.7782181)">
    <path
       transform="translate(40.7109,30.9373)"
       style="fill:currentColor"
       d="m 0.11,-0.63840002 h 1.1 V 0.6383 h -1.1 z"
       id="rect396" />
  </g>
  <a
     style="color:inherit"
     xlink:href="textedit:///home/paul/Projects/tsugaru/lilypond-shamisen/example.ly:50:20:21"
     id="a404"
     transform="translate(-2.5845028,-2.7782181)">
    <g
       aria-label="4"
       transform="translate(40.8209,31.5756)"
       style="font-weight:bold;font-size:1.74629998px;font-family:IPAexGothic;text-anchor:start;fill:currentColor"
       id="text402">
      <path
         d="M 1.0402764,-0.31634633 H 0.83477914 v 0.29929262 H 0.69493871 V -0.31634633 H 0.05371919 V -0.45618676 L 0.67021083,-1.2764703 h 0.16456831 v 0.83051576 H 1.0402764 Z M 0.70346557,-1.1212815 h -0.005116 q -0.0767417,0.12363942 -0.15177803,0.225109 l -0.33936884,0.45021796 h 0.48773612 v -0.41184711 q 0,-0.09209 0.008527,-0.26347985 z"
         style=""
         id="path1645" />
    </g>
  </a>
  <path
     d="m 38.236397,29.020859 h 1.1"
     id="path406"
     inkscape:connector-curvature="0"
     style="fill:none;stroke:currentColor;stroke-width:0.12;stroke-linecap:square;stroke-linejoin:round" />
  <a
     style="color:inherit"
     xlink:href="textedit:///home/paul/Projects/tsugaru/lilypond-shamisen/example.ly:54:13:14"
     id="a410"
     transform="translate(-2.5845028,-2.7782181)">
    <path
       transform="matrix(0.004,0,0,-0.004,65.5104,29.9242)"
       d="m -63,47 c 0,35 28,63 63,63 35,0 63,-28 63,-63 0,-35 -28,-63 -63,-63 -35,0 -63,28 -63,63 z M 0,360 c 156,0 329,-173 329,-362 0,-8 -8,-14 -16,-14 -7,0 -15,5 -17,16 C 270,149 149,265 0,265 -149,265 -270,149 -296,0 c -2,-11 -10,-16 -17,-16 -8,0 -16,6 -16,14 0,189 174,362 329,362 z"
       id="path408"
       inkscape:connector-curvature="0"
       style="fill:currentColor" />
  </a>
  <g
     id="g414"
     style="color:#ffffff"
     transform="translate(-2.5845028,-2.7782181)">
    <path
       transform="translate(64.8504,33.9373)"
       style="fill:currentColor"
       d="m 0.11,-0.64899999 h 1.1 v 1.29799998 h -1.1 z"
       id="rect412" />
  </g>
  <a
     style="color:inherit"
     xlink:href="textedit:///home/paul/Projects/tsugaru/lilypond-shamisen/example.ly:54:5:6"
     id="a420"
     transform="translate(-2.5845028,-2.7782181)">
    <g
       aria-label="0"
       transform="translate(64.9604,34.5776)"
       style="font-weight:bold;font-size:1.74629998px;font-family:IPAexGothic;text-anchor:start;fill:currentColor"
       id="text418">
      <path
         d="m 0.55595097,-1.2892605 q 0.2302251,0 0.3538645,0.2131714 0.0980588,0.16883169 0.0980588,0.43657495 0,0.2651852 -0.0980588,0.43742768 -0.12193403,0.21061333 -0.3598333,0.21061333 -0.23704658,0 -0.35898061,-0.21061333 -0.09805884,-0.17224248 -0.09805884,-0.43913305 0,-0.37177088 0.17991665,-0.54145528 0.11425986,-0.1065857 0.2830916,-0.1065857 z m -0.005969,0.1253447 q -0.13642968,0 -0.21487675,0.1381351 -0.0801524,0.13984043 -0.0801524,0.38626655 0,0.24216269 0.0784471,0.38115043 0.0792998,0.13642969 0.21658212,0.13642969 0.16456831,0 0.24386807,-0.19270693 0.0520138,-0.12790283 0.0520138,-0.33340005 0,-0.24045732 -0.0801524,-0.37773969 -0.0810051,-0.1381351 -0.21572944,-0.1381351 z"
         style=""
         id="path1649" />
    </g>
  </a>
  <g
     id="g424"
     style="color:#ffffff"
     transform="translate(-2.5845028,-2.7782181)">
    <path
       transform="translate(64.8504,32.4373)"
       style="fill:currentColor"
       d="m 0.11,-0.64899999 h 1.1 v 1.29799998 h -1.1 z"
       id="rect422" />
  </g>
  <a
     style="color:inherit"
     xlink:href="textedit:///home/paul/Projects/tsugaru/lilypond-shamisen/example.ly:54:7:8"
     id="a430"
     transform="translate(-2.5845028,-2.7782181)">
    <g
       aria-label="0"
       transform="translate(64.9604,33.0776)"
       style="font-weight:bold;font-size:1.74629998px;font-family:IPAexGothic;text-anchor:start;fill:currentColor"
       id="text428">
      <path
         d="m 0.55595097,-1.2892605 q 0.2302251,0 0.3538645,0.2131714 0.0980588,0.16883169 0.0980588,0.43657495 0,0.2651852 -0.0980588,0.43742768 -0.12193403,0.21061333 -0.3598333,0.21061333 -0.23704658,0 -0.35898061,-0.21061333 -0.09805884,-0.17224248 -0.09805884,-0.43913305 0,-0.37177088 0.17991665,-0.54145528 0.11425986,-0.1065857 0.2830916,-0.1065857 z m -0.005969,0.1253447 q -0.13642968,0 -0.21487675,0.1381351 -0.0801524,0.13984043 -0.0801524,0.38626655 0,0.24216269 0.0784471,0.38115043 0.0792998,0.13642969 0.21658212,0.13642969 0.16456831,0 0.24386807,-0.19270693 0.0520138,-0.12790283 0.0520138,-0.33340005 0,-0.24045732 -0.0801524,-0.37773969 -0.0810051,-0.1381351 -0.21572944,-0.1381351 z"
         style=""
         id="path1653" />
    </g>
  </a>
  <g
     id="g434"
     style="color:#ffffff"
     transform="translate(-2.5845028,-2.7782181)">
    <path
       transform="translate(64.8504,30.9373)"
       style="fill:currentColor"
       d="m 0.11,-0.64899999 h 1.1 v 1.29799998 h -1.1 z"
       id="rect432" />
  </g>
  <a
     style="color:inherit"
     xlink:href="textedit:///home/paul/Projects/tsugaru/lilypond-shamisen/example.ly:54:9:10"
     id="a440"
     transform="translate(-2.5845028,-2.7782181)">
    <g
       aria-label="0"
       transform="translate(64.9604,31.5776)"
       style="font-weight:bold;font-size:1.74629998px;font-family:IPAexGothic;text-anchor:start;fill:currentColor"
       id="text438">
      <path
         d="m 0.55595097,-1.2892605 q 0.2302251,0 0.3538645,0.2131714 0.0980588,0.16883169 0.0980588,0.43657495 0,0.2651852 -0.0980588,0.43742768 -0.12193403,0.21061333 -0.3598333,0.21061333 -0.23704658,0 -0.35898061,-0.21061333 -0.09805884,-0.17224248 -0.09805884,-0.43913305 0,-0.37177088 0.17991665,-0.54145528 0.11425986,-0.1065857 0.2830916,-0.1065857 z m -0.005969,0.1253447 q -0.13642968,0 -0.21487675,0.1381351 -0.0801524,0.13984043 -0.0801524,0.38626655 0,0.24216269 0.0784471,0.38115043 0.0792998,0.13642969 0.21658212,0.13642969 0.16456831,0 0.24386807,-0.19270693 0.0520138,-0.12790283 0.0520138,-0.33340005 0,-0.24045732 -0.0801524,-0.37773969 -0.0810051,-0.1381351 -0.21572944,-0.1381351 z"
         style=""
         id="path1657" />
    </g>
  </a>
  <a
     style="color:inherit"
     xlink:href="textedit:///home/paul/Projects/tsugaru/lilypond-shamisen/example.ly:50:14:15"
     id="a444"
     transform="translate(-2.5845028,-2.7782181)">
    <path
       transform="translate(33.3626,32.4373)"
       d="M 0.658928,-2.8883531 C 1.6460124,-3.792603 3.3407358,-3.7975245 4.3330555,-2.8990229 3.3409984,-3.7070963 1.646275,-3.7021748 0.658928,-2.8883531 Z"
       id="path442"
       inkscape:connector-curvature="0"
       style="fill:currentColor;stroke:currentColor;stroke-width:0.0603;stroke-linecap:round;stroke-linejoin:round" />
  </a>
  <g
     id="g448"
     style="color:#ffffff"
     transform="translate(-2.5845028,-2.7782181)">
    <path
       transform="translate(53.5163,33.9373)"
       style="fill:currentColor"
       d="m 0.11,-0.63840002 h 1.1 V 0.6383 h -1.1 z"
       id="rect446" />
  </g>
  <a
     style="color:inherit"
     xlink:href="textedit:///home/paul/Projects/tsugaru/lilypond-shamisen/example.ly:52:8:9"
     id="a454"
     transform="translate(-2.5845028,-2.7782181)">
    <g
       aria-label="4"
       transform="translate(53.6263,34.5756)"
       style="font-weight:bold;font-size:1.74629998px;font-family:IPAexGothic;text-anchor:start;fill:currentColor"
       id="text452">
      <path
         d="M 1.0402764,-0.31634633 H 0.83477914 v 0.29929262 H 0.69493871 V -0.31634633 H 0.05371919 V -0.45618676 L 0.67021083,-1.2764703 h 0.16456831 v 0.83051576 H 1.0402764 Z M 0.70346557,-1.1212815 h -0.005116 q -0.0767417,0.12363942 -0.15177803,0.225109 l -0.33936884,0.45021796 h 0.48773612 v -0.41184711 q 0,-0.09209 0.008527,-0.26347985 z"
         style=""
         id="path1661" />
    </g>
  </a>
  <path
     d="m 51.041797,32.320859 h 1.1 m -1.1,-0.3 h 1.1"
     id="path456"
     inkscape:connector-curvature="0"
     style="fill:none;stroke:currentColor;stroke-width:0.12;stroke-linecap:square;stroke-linejoin:round" />
  <a
     style="color:inherit"
     xlink:href="textedit:///home/paul/Projects/tsugaru/lilypond-shamisen/example.ly:52:16:17"
     id="a460"
     transform="translate(-2.5845028,-2.7782181)">
    <path
       transform="translate(56.6183,34.6873)"
       d="M -1,0 H 0 V -0.6"
       id="path458"
       inkscape:connector-curvature="0"
       style="fill:none;stroke:currentColor;stroke-width:0.12;stroke-linecap:square;stroke-linejoin:miter" />
  </a>
  <g
     id="g464"
     style="color:#ffffff"
     transform="translate(-2.5845028,-2.7782181)">
    <path
       transform="translate(55.9583,32.4373)"
       style="fill:currentColor"
       d="m 0.11,-0.64899999 h 1.1 v 1.29799998 h -1.1 z"
       id="rect462" />
  </g>
  <a
     style="color:inherit"
     xlink:href="textedit:///home/paul/Projects/tsugaru/lilypond-shamisen/example.ly:52:12:13"
     id="a470"
     transform="translate(-2.5845028,-2.7782181)">
    <g
       aria-label="0"
       transform="translate(56.0683,33.0776)"
       style="font-weight:bold;font-size:1.74629998px;font-family:IPAexGothic;text-anchor:start;fill:currentColor"
       id="text468">
      <path
         d="m 0.55595097,-1.2892605 q 0.2302251,0 0.3538645,0.2131714 0.0980588,0.16883169 0.0980588,0.43657495 0,0.2651852 -0.0980588,0.43742768 -0.12193403,0.21061333 -0.3598333,0.21061333 -0.23704658,0 -0.35898061,-0.21061333 -0.09805884,-0.17224248 -0.09805884,-0.43913305 0,-0.37177088 0.17991665,-0.54145528 0.11425986,-0.1065857 0.2830916,-0.1065857 z m -0.005969,0.1253447 q -0.13642968,0 -0.21487675,0.1381351 -0.0801524,0.13984043 -0.0801524,0.38626655 0,0.24216269 0.0784471,0.38115043 0.0792998,0.13642969 0.21658212,0.13642969 0.16456831,0 0.24386807,-0.19270693 0.0520138,-0.12790283 0.0520138,-0.33340005 0,-0.24045732 -0.0801524,-0.37773969 -0.0810051,-0.1381351 -0.21572944,-0.1381351 z"
         style=""
         id="path1665" />
    </g>
  </a>
  <path
     d="m 55.040597,28.909082 c 0,-0.128 0.1,-0.228 0.228,-0.228 0.128,0 0.228,0.1 0.228,0.228 0,0.128 -0.1,0.228 -0.228,0.228 -0.128,0 -0.228,-0.1 -0.228,-0.228 z"
     id="path472"
     inkscape:connector-curvature="0"
     style="fill:currentColor;stroke-width:0.004" />
  <path
     d="m 53.483797,30.535263 h 1.1"
     id="path474"
     inkscape:connector-curvature="0"
     style="fill:none;stroke:currentColor;stroke-width:0.12;stroke-linecap:square;stroke-linejoin:round" />
  <g
     id="g478"
     style="color:#ffffff"
     transform="translate(-2.5845028,-2.7782181)">
    <path
       transform="translate(60.3532,33.9373)"
       style="fill:currentColor"
       d="m 0.11,-0.64899999 h 1.1 v 1.29799998 h -1.1 z"
       id="rect476" />
  </g>
  <a
     style="color:inherit"
     xlink:href="textedit:///home/paul/Projects/tsugaru/lilypond-shamisen/example.ly:52:23:24"
     id="a484"
     transform="translate(-2.5845028,-2.7782181)">
    <g
       aria-label="0"
       transform="translate(60.4632,34.5776)"
       style="font-weight:bold;font-size:1.74629998px;font-family:IPAexGothic;text-anchor:start;fill:currentColor"
       id="text482">
      <path
         d="m 0.55595097,-1.2892605 q 0.2302251,0 0.3538645,0.2131714 0.0980588,0.16883169 0.0980588,0.43657495 0,0.2651852 -0.0980588,0.43742768 -0.12193403,0.21061333 -0.3598333,0.21061333 -0.23704658,0 -0.35898061,-0.21061333 -0.09805884,-0.17224248 -0.09805884,-0.43913305 0,-0.37177088 0.17991665,-0.54145528 0.11425986,-0.1065857 0.2830916,-0.1065857 z m -0.005969,0.1253447 q -0.13642968,0 -0.21487675,0.1381351 -0.0801524,0.13984043 -0.0801524,0.38626655 0,0.24216269 0.0784471,0.38115043 0.0792998,0.13642969 0.21658212,0.13642969 0.16456831,0 0.24386807,-0.19270693 0.0520138,-0.12790283 0.0520138,-0.33340005 0,-0.24045732 -0.0801524,-0.37773969 -0.0810051,-0.1381351 -0.21572944,-0.1381351 z"
         style=""
         id="path1669" />
    </g>
  </a>
  <g
     id="g488"
     style="color:#ffffff"
     transform="translate(-2.5845028,-2.7782181)">
    <path
       transform="translate(60.3532,32.4373)"
       style="fill:currentColor"
       d="m 0.11,-0.64899999 h 1.1 v 1.29799998 h -1.1 z"
       id="rect486" />
  </g>
  <a
     style="color:inherit"
     xlink:href="textedit:///home/paul/Projects/tsugaru/lilypond-shamisen/example.ly:52:25:26"
     id="a494"
     transform="translate(-2.5845028,-2.7782181)">
    <g
       aria-label="0"
       transform="translate(60.4632,33.0776)"
       style="font-weight:bold;font-size:1.74629998px;font-family:IPAexGothic;text-anchor:start;fill:currentColor"
       id="text492">
      <path
         d="m 0.55595097,-1.2892605 q 0.2302251,0 0.3538645,0.2131714 0.0980588,0.16883169 0.0980588,0.43657495 0,0.2651852 -0.0980588,0.43742768 -0.12193403,0.21061333 -0.3598333,0.21061333 -0.23704658,0 -0.35898061,-0.21061333 -0.09805884,-0.17224248 -0.09805884,-0.43913305 0,-0.37177088 0.17991665,-0.54145528 0.11425986,-0.1065857 0.2830916,-0.1065857 z m -0.005969,0.1253447 q -0.13642968,0 -0.21487675,0.1381351 -0.0801524,0.13984043 -0.0801524,0.38626655 0,0.24216269 0.0784471,0.38115043 0.0792998,0.13642969 0.21658212,0.13642969 0.16456831,0 0.24386807,-0.19270693 0.0520138,-0.12790283 0.0520138,-0.33340005 0,-0.24045732 -0.0801524,-0.37773969 -0.0810051,-0.1381351 -0.21572944,-0.1381351 z"
         style=""
         id="path1673" />
    </g>
  </a>
  <g
     id="g498"
     style="color:#ffffff"
     transform="translate(-2.5845028,-2.7782181)">
    <path
       transform="translate(60.3532,30.9373)"
       style="fill:currentColor"
       d="m 0.11,-0.64899999 h 1.1 v 1.29799998 h -1.1 z"
       id="rect496" />
  </g>
  <a
     style="color:inherit"
     xlink:href="textedit:///home/paul/Projects/tsugaru/lilypond-shamisen/example.ly:52:27:28"
     id="a504"
     transform="translate(-2.5845028,-2.7782181)">
    <g
       aria-label="0"
       transform="translate(60.4632,31.5776)"
       style="font-weight:bold;font-size:1.74629998px;font-family:IPAexGothic;text-anchor:start;fill:currentColor"
       id="text502">
      <path
         d="m 0.55595097,-1.2892605 q 0.2302251,0 0.3538645,0.2131714 0.0980588,0.16883169 0.0980588,0.43657495 0,0.2651852 -0.0980588,0.43742768 -0.12193403,0.21061333 -0.3598333,0.21061333 -0.23704658,0 -0.35898061,-0.21061333 -0.09805884,-0.17224248 -0.09805884,-0.43913305 0,-0.37177088 0.17991665,-0.54145528 0.11425986,-0.1065857 0.2830916,-0.1065857 z m -0.005969,0.1253447 q -0.13642968,0 -0.21487675,0.1381351 -0.0801524,0.13984043 -0.0801524,0.38626655 0,0.24216269 0.0784471,0.38115043 0.0792998,0.13642969 0.21658212,0.13642969 0.16456831,0 0.24386807,-0.19270693 0.0520138,-0.12790283 0.0520138,-0.33340005 0,-0.24045732 -0.0801524,-0.37773969 -0.0810051,-0.1381351 -0.21572944,-0.1381351 z"
         style=""
         id="path1677" />
    </g>
  </a>
  <path
     d="m 57.878697,32.335263 h 1.1 m -1.1,-0.3 h 1.1"
     id="path506"
     inkscape:connector-curvature="0"
     style="fill:none;stroke:currentColor;stroke-width:0.12;stroke-linecap:square;stroke-linejoin:round" />
  <g
     id="g510"
     style="color:#ffffff"
     transform="translate(-2.5845028,-2.7782181)">
    <path
       transform="translate(10.4815,30.9373)"
       style="fill:currentColor"
       d="m 0.11,-0.63840002 h 1.1 V 0.6383 h -1.1 z"
       id="rect508" />
  </g>
  <a
     style="color:inherit"
     xlink:href="textedit:///home/paul/Projects/tsugaru/lilypond-shamisen/example.ly:46:12:13"
     id="a516"
     transform="translate(-2.5845028,-2.7782181)">
    <g
       aria-label="4"
       transform="translate(10.5915,31.5756)"
       style="font-weight:bold;font-size:1.74629998px;font-family:IPAexGothic;text-anchor:start;fill:currentColor"
       id="text514">
      <path
         d="M 1.0402764,-0.31634633 H 0.83477914 v 0.29929262 H 0.69493871 V -0.31634633 H 0.05371919 V -0.45618676 L 0.67021083,-1.2764703 h 0.16456831 v 0.83051576 H 1.0402764 Z M 0.70346557,-1.1212815 h -0.005116 q -0.0767417,0.12363942 -0.15177803,0.225109 l -0.33936884,0.45021796 h 0.48773612 v -0.41184711 q 0,-0.09209 0.008527,-0.26347985 z"
         style=""
         id="path1681" />
    </g>
  </a>
  <path
     d="m 8.0069972,29.320859 h 1.1 m -1.1,-0.3 h 1.1"
     id="path518"
     inkscape:connector-curvature="0"
     style="fill:none;stroke:currentColor;stroke-width:0.12;stroke-linecap:square;stroke-linejoin:round" />
  <a
     style="color:inherit"
     xlink:href="textedit:///home/paul/Projects/tsugaru/lilypond-shamisen/example.ly:46:21:22"
     id="a522"
     transform="translate(-2.5845028,-2.7782181)">
    <path
       transform="translate(12.7442,33.1873)"
       d="m -0.212,-0.334 c -0.077,0.281 -0.197,0.491 -0.341,0.672 m 0.708,-0.69 c 0.173,0.246 0.303,0.466 0.39,0.659"
       id="path520"
       inkscape:connector-curvature="0"
       style="fill:none;stroke:currentColor;stroke-width:0.12;stroke-linecap:square;stroke-linejoin:miter" />
  </a>
  <g
     id="g526"
     style="color:#ffffff"
     transform="translate(-2.5845028,-2.7782181)">
    <path
       transform="translate(12.0842,30.9373)"
       style="fill:currentColor"
       d="m 0.11,-0.64899999 h 1.1 v 1.29799998 h -1.1 z"
       id="rect524" />
  </g>
  <a
     style="color:inherit"
     xlink:href="textedit:///home/paul/Projects/tsugaru/lilypond-shamisen/example.ly:46:17:18"
     id="a532"
     transform="translate(-2.5845028,-2.7782181)">
    <g
       aria-label="3"
       transform="translate(12.1942,31.5776)"
       style="font-weight:bold;font-size:1.74629998px;font-family:IPAexGothic;text-anchor:start;fill:currentColor"
       id="text530">
      <path
         d="m 0.64974638,-0.65997861 q 0.30696679,0.0554246 0.30696679,0.31123022 0,0.1534834 -0.10317495,0.25154224 -0.11425986,0.10573301 -0.32316782,0.10573301 -0.31293559,0 -0.45192333,-0.24898418 l 0.12790283,-0.0682148 q 0.0963535,0.1884435 0.32231513,0.1884435 0.13301895,0 0.2063499,-0.0682148 0.0699202,-0.0648041 0.0699202,-0.16371563 0,-0.11681792 -0.10488032,-0.18759082 -0.0955008,-0.0639514 -0.25154224,-0.0639514 h -0.0767417 v -0.12449209 h 0.0801524 q 0.15689413,0 0.23960463,-0.059688 0.0886793,-0.0630987 0.0886793,-0.16968442 0,-0.11596524 -0.0997642,-0.17138984 -0.0639514,-0.038371 -0.1534834,-0.038371 -0.18929619,0 -0.28053354,0.19100156 L 0.11852329,-1.0377183 q 0.12619746,-0.2515422 0.41014174,-0.2515422 0.17991665,0 0.29161846,0.090385 0.1117018,0.088679 0.1117018,0.23448856 0,0.13813505 -0.10829106,0.22596166 -0.0699202,0.0562772 -0.17394785,0.0716256 z"
         style=""
         id="path1685" />
    </g>
  </a>
  <path
     d="m 9.6096972,29.335263 h 1.0999998 m -1.0999998,-0.3 h 1.0999998"
     id="path534"
     inkscape:connector-curvature="0"
     style="fill:none;stroke:currentColor;stroke-width:0.12;stroke-linecap:square;stroke-linejoin:round" />
  <a
     style="color:inherit"
     xlink:href="textedit:///home/paul/Projects/tsugaru/lilypond-shamisen/example.ly:46:32:33"
     id="a538"
     transform="translate(-2.5845028,-2.7782181)">
    <path
       transform="translate(14.3468,33.1873)"
       d="m -0.212,-0.334 c -0.077,0.281 -0.197,0.491 -0.341,0.672 m 0.708,-0.69 c 0.173,0.246 0.303,0.466 0.39,0.659"
       id="path536"
       inkscape:connector-curvature="0"
       style="fill:none;stroke:currentColor;stroke-width:0.12;stroke-linecap:square;stroke-linejoin:miter" />
  </a>
  <g
     id="g542"
     style="color:#ffffff"
     transform="translate(-2.5845028,-2.7782181)">
    <path
       transform="translate(13.6868,30.9373)"
       style="fill:currentColor"
       d="m 0.11,-0.64899999 h 1.1 v 1.29799998 h -1.1 z"
       id="rect540" />
  </g>
  <a
     style="color:inherit"
     xlink:href="textedit:///home/paul/Projects/tsugaru/lilypond-shamisen/example.ly:46:29:30"
     id="a548"
     transform="translate(-2.5845028,-2.7782181)">
    <g
       aria-label="0"
       transform="translate(13.7968,31.5776)"
       style="font-weight:bold;font-size:1.74629998px;font-family:IPAexGothic;text-anchor:start;fill:currentColor"
       id="text546">
      <path
         d="m 0.55595097,-1.2892605 q 0.2302251,0 0.3538645,0.2131714 0.0980588,0.16883169 0.0980588,0.43657495 0,0.2651852 -0.0980588,0.43742768 -0.12193403,0.21061333 -0.3598333,0.21061333 -0.23704658,0 -0.35898061,-0.21061333 -0.09805884,-0.17224248 -0.09805884,-0.43913305 0,-0.37177088 0.17991665,-0.54145528 0.11425986,-0.1065857 0.2830916,-0.1065857 z m -0.005969,0.1253447 q -0.13642968,0 -0.21487675,0.1381351 -0.0801524,0.13984043 -0.0801524,0.38626655 0,0.24216269 0.0784471,0.38115043 0.0792998,0.13642969 0.21658212,0.13642969 0.16456831,0 0.24386807,-0.19270693 0.0520138,-0.12790283 0.0520138,-0.33340005 0,-0.24045732 -0.0801524,-0.37773969 -0.0810051,-0.1381351 -0.21572944,-0.1381351 z"
         style=""
         id="path1689" />
    </g>
  </a>
  <path
     d="m 11.212297,29.335263 h 1.1 m -1.1,-0.3 h 1.1"
     id="path550"
     inkscape:connector-curvature="0"
     style="fill:none;stroke:currentColor;stroke-width:0.12;stroke-linecap:square;stroke-linejoin:round" />
  <g
     id="g554"
     style="color:#ffffff"
     transform="translate(-2.5845028,-2.7782181)">
    <path
       transform="translate(15.2895,32.4373)"
       style="fill:currentColor"
       d="m 0.11,-0.64899999 h 1.1 v 1.29799998 h -1.1 z"
       id="rect552" />
  </g>
  <a
     style="color:inherit"
     xlink:href="textedit:///home/paul/Projects/tsugaru/lilypond-shamisen/example.ly:46:40:41"
     id="a560"
     transform="translate(-2.5845028,-2.7782181)">
    <g
       aria-label="3"
       transform="translate(15.3995,33.0776)"
       style="font-weight:bold;font-size:1.74629998px;font-family:IPAexGothic;text-anchor:start;fill:currentColor"
       id="text558">
      <path
         d="m 0.64974638,-0.65997861 q 0.30696679,0.0554246 0.30696679,0.31123022 0,0.1534834 -0.10317495,0.25154224 -0.11425986,0.10573301 -0.32316782,0.10573301 -0.31293559,0 -0.45192333,-0.24898418 l 0.12790283,-0.0682148 q 0.0963535,0.1884435 0.32231513,0.1884435 0.13301895,0 0.2063499,-0.0682148 0.0699202,-0.0648041 0.0699202,-0.16371563 0,-0.11681792 -0.10488032,-0.18759082 -0.0955008,-0.0639514 -0.25154224,-0.0639514 h -0.0767417 v -0.12449209 h 0.0801524 q 0.15689413,0 0.23960463,-0.059688 0.0886793,-0.0630987 0.0886793,-0.16968442 0,-0.11596524 -0.0997642,-0.17138984 -0.0639514,-0.038371 -0.1534834,-0.038371 -0.18929619,0 -0.28053354,0.19100156 L 0.11852329,-1.0377183 q 0.12619746,-0.2515422 0.41014174,-0.2515422 0.17991665,0 0.29161846,0.090385 0.1117018,0.088679 0.1117018,0.23448856 0,0.13813505 -0.10829106,0.22596166 -0.0699202,0.0562772 -0.17394785,0.0716256 z"
         style=""
         id="path1693" />
    </g>
  </a>
  <path
     d="m 12.814997,30.835263 h 1.1 m -1.1,-0.3 h 1.1"
     id="path562"
     inkscape:connector-curvature="0"
     style="fill:none;stroke:currentColor;stroke-width:0.12;stroke-linecap:square;stroke-linejoin:round" />
  <g
     aria-label="5"
     style="font-size:1.74629998px;font-family:IPAexGothic;text-anchor:start;fill:currentColor"
     id="text566">
    <path
       d="m 0.19355961,26.402395 q 0.12449209,-0.09806 0.271154,-0.09806 0.17565322,0 0.29161846,0.118524 0.10829106,0.113407 0.10829106,0.281386 0,0.152631 -0.0929427,0.268596 Q 0.65486249,27.121209 0.42634276,27.121209 0.13387162,27.121209 0,26.898658 l 0.12790283,-0.06651 q 0.10146957,0.16201 0.29332382,0.16201 0.1236394,0 0.2063499,-0.07674 0.0852686,-0.08101 0.0852686,-0.214876 0,-0.126198 -0.0750363,-0.201234 -0.0784471,-0.07845 -0.20464453,-0.07845 -0.17735859,0 -0.26859595,0.136429 L 0.03325473,26.542236 0.11340717,25.84815 H 0.8015244 v 0.131313 H 0.23789926 l -0.0562772,0.422932 z"
       style=""
       id="path1696" />
  </g>
  <g
     id="g570"
     style="color:#ffffff"
     transform="translate(-2.5845028,-2.7782181)">
    <path
       transform="translate(5.8833,30.9373)"
       style="fill:currentColor"
       d="m 0.11,-0.64899999 h 1.1 v 1.29799998 h -1.1 z"
       id="rect568" />
  </g>
  <a
     style="color:inherit"
     xlink:href="textedit:///home/paul/Projects/tsugaru/lilypond-shamisen/example.ly:45:4:5"
     id="a576"
     transform="translate(-2.5845028,-2.7782181)">
    <g
       aria-label="0"
       transform="translate(5.9933,31.5776)"
       style="font-weight:bold;font-size:1.74629998px;font-family:IPAexGothic;text-anchor:start;fill:currentColor"
       id="text574">
      <path
         d="m 0.55595097,-1.2892605 q 0.2302251,0 0.3538645,0.2131714 0.0980588,0.16883169 0.0980588,0.43657495 0,0.2651852 -0.0980588,0.43742768 -0.12193403,0.21061333 -0.3598333,0.21061333 -0.23704658,0 -0.35898061,-0.21061333 -0.09805884,-0.17224248 -0.09805884,-0.43913305 0,-0.37177088 0.17991665,-0.54145528 0.11425986,-0.1065857 0.2830916,-0.1065857 z m -0.005969,0.1253447 q -0.13642968,0 -0.21487675,0.1381351 -0.0801524,0.13984043 -0.0801524,0.38626655 0,0.24216269 0.0784471,0.38115043 0.0792998,0.13642969 0.21658212,0.13642969 0.16456831,0 0.24386807,-0.19270693 0.0520138,-0.12790283 0.0520138,-0.33340005 0,-0.24045732 -0.0801524,-0.37773969 -0.0810051,-0.1381351 -0.21572944,-0.1381351 z"
         style=""
         id="path1700" />
    </g>
  </a>
  <path
     d="m 3.4087972,29.035263 h 1.1"
     id="path578"
     inkscape:connector-curvature="0"
     style="fill:none;stroke:currentColor;stroke-width:0.12;stroke-linecap:square;stroke-linejoin:round" />
  <a
     style="color:inherit"
     xlink:href="textedit:///home/paul/Projects/tsugaru/lilypond-shamisen/example.ly:45:11:12"
     id="a582"
     transform="translate(-2.5845028,-2.7782181)">
    <path
       transform="translate(8.5747,33.1873)"
       d="m -0.412,-0.422 0.64,-0.005 0.04,0.041 C 0.11,0.046 -0.131,0.276 -0.487,0.457 M 0.494,0.434 C 0.379,0.313 0.247,0.187 0.044,0.036"
       id="path580"
       inkscape:connector-curvature="0"
       style="fill:none;stroke:currentColor;stroke-width:0.12;stroke-linecap:square;stroke-linejoin:miter" />
  </a>
  <g
     id="g586"
     style="color:#ffffff"
     transform="translate(-2.5845028,-2.7782181)">
    <path
       transform="translate(7.9147,30.9373)"
       style="fill:currentColor"
       d="m 0.11,-0.64899999 h 1.1 v 1.29799998 h -1.1 z"
       id="rect584" />
  </g>
  <a
     style="color:inherit"
     xlink:href="textedit:///home/paul/Projects/tsugaru/lilypond-shamisen/example.ly:45:8:9"
     id="a592"
     transform="translate(-2.5845028,-2.7782181)">
    <g
       aria-label="0"
       transform="translate(8.0247,31.5776)"
       style="font-weight:bold;font-size:1.74629998px;font-family:IPAexGothic;text-anchor:start;fill:currentColor"
       id="text590">
      <path
         d="m 0.55595097,-1.2892605 q 0.2302251,0 0.3538645,0.2131714 0.0980588,0.16883169 0.0980588,0.43657495 0,0.2651852 -0.0980588,0.43742768 -0.12193403,0.21061333 -0.3598333,0.21061333 -0.23704658,0 -0.35898061,-0.21061333 -0.09805884,-0.17224248 -0.09805884,-0.43913305 0,-0.37177088 0.17991665,-0.54145528 0.11425986,-0.1065857 0.2830916,-0.1065857 z m -0.005969,0.1253447 q -0.13642968,0 -0.21487675,0.1381351 -0.0801524,0.13984043 -0.0801524,0.38626655 0,0.24216269 0.0784471,0.38115043 0.0792998,0.13642969 0.21658212,0.13642969 0.16456831,0 0.24386807,-0.19270693 0.0520138,-0.12790283 0.0520138,-0.33340005 0,-0.24045732 -0.0801524,-0.37773969 -0.0810051,-0.1381351 -0.21572944,-0.1381351 z"
         style=""
         id="path1704" />
    </g>
  </a>
  <path
     d="m 5.4401972,29.035263 h 1.1"
     id="path594"
     inkscape:connector-curvature="0"
     style="fill:none;stroke:currentColor;stroke-width:0.12;stroke-linecap:square;stroke-linejoin:round" />
  <a
     style="color:inherit"
     xlink:href="textedit:///home/paul/Projects/tsugaru/lilypond-shamisen/example.ly:48:11:12"
     id="a598"
     transform="translate(-2.5845028,-2.7782181)">
    <path
       transform="translate(22.1665,34.6873)"
       d="m -0.394,0.055 0.005,-0.348 h 0.761 l 0.03,0.023 C 0.371,0.116 0.197,0.391 -0.173,0.505 m 0.172,-1.075 v 0.26"
       id="path596"
       inkscape:connector-curvature="0"
       style="fill:none;stroke:currentColor;stroke-width:0.12;stroke-linecap:square;stroke-linejoin:miter" />
  </a>
  <g
     id="g602"
     style="color:#ffffff"
     transform="translate(-2.5845028,-2.7782181)">
    <path
       transform="translate(21.5065,32.4373)"
       style="fill:currentColor"
       d="m 0.11,-0.64899999 h 1.1 v 1.29799998 h -1.1 z"
       id="rect600" />
  </g>
  <a
     style="color:inherit"
     xlink:href="textedit:///home/paul/Projects/tsugaru/lilypond-shamisen/example.ly:48:8:9"
     id="a608"
     transform="translate(-2.5845028,-2.7782181)">
    <g
       aria-label="3"
       transform="translate(21.6165,33.0776)"
       style="font-weight:bold;font-size:1.74629998px;font-family:IPAexGothic;text-anchor:start;fill:currentColor"
       id="text606">
      <path
         d="m 0.64974638,-0.65997861 q 0.30696679,0.0554246 0.30696679,0.31123022 0,0.1534834 -0.10317495,0.25154224 -0.11425986,0.10573301 -0.32316782,0.10573301 -0.31293559,0 -0.45192333,-0.24898418 l 0.12790283,-0.0682148 q 0.0963535,0.1884435 0.32231513,0.1884435 0.13301895,0 0.2063499,-0.0682148 0.0699202,-0.0648041 0.0699202,-0.16371563 0,-0.11681792 -0.10488032,-0.18759082 -0.0955008,-0.0639514 -0.25154224,-0.0639514 h -0.0767417 v -0.12449209 h 0.0801524 q 0.15689413,0 0.23960463,-0.059688 0.0886793,-0.0630987 0.0886793,-0.16968442 0,-0.11596524 -0.0997642,-0.17138984 -0.0639514,-0.038371 -0.1534834,-0.038371 -0.18929619,0 -0.28053354,0.19100156 L 0.11852329,-1.0377183 q 0.12619746,-0.2515422 0.41014174,-0.2515422 0.17991665,0 0.29161846,0.090385 0.1117018,0.088679 0.1117018,0.23448856 0,0.13813505 -0.10829106,0.22596166 -0.0699202,0.0562772 -0.17394785,0.0716256 z"
         style=""
         id="path1708" />
    </g>
  </a>
  <path
     d="m 19.031997,30.835263 h 1.1 m -1.1,-0.3 h 1.1"
     id="path610"
     inkscape:connector-curvature="0"
     style="fill:none;stroke:currentColor;stroke-width:0.12;stroke-linecap:square;stroke-linejoin:round" />
  <path
     d="m 21.473997,29.035263 h 1.1"
     id="path612"
     inkscape:connector-curvature="0"
     style="fill:none;stroke:currentColor;stroke-width:0.12;stroke-linecap:square;stroke-linejoin:round" />
  <g
     id="g616"
     style="color:#ffffff"
     transform="translate(-2.5845028,-2.7782181)">
    <path
       transform="translate(23.9485,30.9373)"
       style="fill:currentColor"
       d="m 0.11,-0.64899999 h 1.1 v 1.29799998 h -1.1 z"
       id="rect614" />
  </g>
  <a
     style="color:inherit"
     xlink:href="textedit:///home/paul/Projects/tsugaru/lilypond-shamisen/example.ly:48:17:18"
     id="a622"
     transform="translate(-2.5845028,-2.7782181)">
    <g
       aria-label="0"
       transform="translate(24.0585,31.5776)"
       style="font-weight:bold;font-size:1.74629998px;font-family:IPAexGothic;text-anchor:start;fill:currentColor"
       id="text620">
      <path
         d="m 0.55595097,-1.2892605 q 0.2302251,0 0.3538645,0.2131714 0.0980588,0.16883169 0.0980588,0.43657495 0,0.2651852 -0.0980588,0.43742768 -0.12193403,0.21061333 -0.3598333,0.21061333 -0.23704658,0 -0.35898061,-0.21061333 -0.09805884,-0.17224248 -0.09805884,-0.43913305 0,-0.37177088 0.17991665,-0.54145528 0.11425986,-0.1065857 0.2830916,-0.1065857 z m -0.005969,0.1253447 q -0.13642968,0 -0.21487675,0.1381351 -0.0801524,0.13984043 -0.0801524,0.38626655 0,0.24216269 0.0784471,0.38115043 0.0792998,0.13642969 0.21658212,0.13642969 0.16456831,0 0.24386807,-0.19270693 0.0520138,-0.12790283 0.0520138,-0.33340005 0,-0.24045732 -0.0801524,-0.37773969 -0.0810051,-0.1381351 -0.21572944,-0.1381351 z"
         style=""
         id="path1712" />
    </g>
  </a>
  <g
     id="g626"
     style="color:#ffffff"
     transform="translate(-2.5845028,-2.7782181)">
    <path
       transform="translate(19.0644,32.4373)"
       style="fill:currentColor"
       d="m 0.11,-0.64899999 h 1.1 v 1.29799998 h -1.1 z"
       id="rect624" />
  </g>
  <a
     style="color:inherit"
     xlink:href="textedit:///home/paul/Projects/tsugaru/lilypond-shamisen/example.ly:48:4:5"
     id="a632"
     transform="translate(-2.5845028,-2.7782181)">
    <g
       aria-label="0"
       transform="translate(19.1744,33.0776)"
       style="font-weight:bold;font-size:1.74629998px;font-family:IPAexGothic;text-anchor:start;fill:currentColor"
       id="text630">
      <path
         d="m 0.55595097,-1.2892605 q 0.2302251,0 0.3538645,0.2131714 0.0980588,0.16883169 0.0980588,0.43657495 0,0.2651852 -0.0980588,0.43742768 -0.12193403,0.21061333 -0.3598333,0.21061333 -0.23704658,0 -0.35898061,-0.21061333 -0.09805884,-0.17224248 -0.09805884,-0.43913305 0,-0.37177088 0.17991665,-0.54145528 0.11425986,-0.1065857 0.2830916,-0.1065857 z m -0.005969,0.1253447 q -0.13642968,0 -0.21487675,0.1381351 -0.0801524,0.13984043 -0.0801524,0.38626655 0,0.24216269 0.0784471,0.38115043 0.0792998,0.13642969 0.21658212,0.13642969 0.16456831,0 0.24386807,-0.19270693 0.0520138,-0.12790283 0.0520138,-0.33340005 0,-0.24045732 -0.0801524,-0.37773969 -0.0810051,-0.1381351 -0.21572944,-0.1381351 z"
         style=""
         id="path1716" />
    </g>
  </a>
  <path
     d="m 16.589897,30.835263 h 1.1 m -1.1,-0.3 h 1.1"
     id="path634"
     inkscape:connector-curvature="0"
     style="fill:none;stroke:currentColor;stroke-width:0.12;stroke-linecap:square;stroke-linejoin:round" />
  <a
     style="color:inherit"
     xlink:href="textedit:///home/paul/Projects/tsugaru/lilypond-shamisen/example.ly:48:24:25"
     id="a638"
     transform="translate(-2.5845028,-2.7782181)">
    <path
       transform="translate(28.0977,34.6873)"
       d="m -0.168,-0.552 c -0.077,0.331 -0.209,0.504 -0.34,0.636 M -0.25,-0.257 H 0.53 M 0.158,-0.262 C 0.186,0.065 0.086,0.342 -0.254,0.523"
       id="path636"
       inkscape:connector-curvature="0"
       style="fill:none;stroke:currentColor;stroke-width:0.12;stroke-linecap:square;stroke-linejoin:miter" />
  </a>
  <a
     style="color:inherit"
     xlink:href="textedit:///home/paul/Projects/tsugaru/lilypond-shamisen/example.ly:48:21:22"
     id="a642"
     transform="translate(-2.5845028,-2.7782181)">
    <path
       transform="translate(28.0727,32.4373)"
       style="fill:currentColor;stroke:currentColor;stroke-width:0;stroke-linecap:round;stroke-linejoin:round"
       d="M 0.44999999,0 A 0.44999999,0.44999999 0 0 1 0,0.44999999 0.44999999,0.44999999 0 0 1 -0.44999999,0 0.44999999,0.44999999 0 0 1 0,-0.44999999 0.44999999,0.44999999 0 0 1 0.44999999,0 Z"
       id="circle640" />
  </a>
</svg>
